SplineFontDB: 3.0
FontName: Jaldi-Bold
FullName: Jaldi Bold
FamilyName: Jaldi
Weight: Regular
Copyright: Copyright (c) 2011-2015, Omnibus-Type (www.omnibus-type.com omnibus.type@gmail.com) with Reserved Font Name 'Jaldi' and 'Asap'
Version: 001.001
ItalicAngle: 0
UnderlinePosition: -50
UnderlineWidth: 50
Ascent: 798
Descent: 202
InvalidEm: 0
sfntRevision: 0x00010041
LayerCount: 2
Layer: 0 0 "Back" 1
Layer: 1 0 "Fore" 0
XUID: [1021 505 -982332716 7974004]
FSType: 8
OS2Version: 3
OS2_WeightWidthSlopeOnly: 0
OS2_UseTypoMetrics: 1
CreationTime: 1421254212
ModificationTime: 1421283066
PfmFamily: 17
TTFWeight: 400
TTFWidth: 5
LineGap: 0
VLineGap: 0
Panose: 2 15 8 4 3 2 2 6 2 3
OS2TypoAscent: 616
OS2TypoAOffset: 0
OS2TypoDescent: -383
OS2TypoDOffset: 0
OS2TypoLinegap: 0
OS2WinAscent: 616
OS2WinAOffset: 0
OS2WinDescent: 383
OS2WinDOffset: 0
HheadAscent: 616
HheadAOffset: 0
HheadDescent: -383
HheadDOffset: 0
OS2SubXSize: 302
OS2SubYSize: 279
OS2SubXOff: 0
OS2SubYOff: 34
OS2SupXSize: 302
OS2SupYSize: 279
OS2SupXOff: 0
OS2SupYOff: 163
OS2StrikeYSize: 50
OS2StrikeYPos: 146
OS2CapHeight: 0
OS2XHeight: 0
OS2Vendor: 'OMNI'
OS2CodePages: 20000193.00000000
OS2UnicodeRanges: 20008007.00000000.00000000.00000000
Lookup: 1 0 0 "'aalt' Access All Alternates lookup 0" { "'aalt' Access All Alternates lookup 0 subtable"  } ['aalt' ('DFLT' <'dflt' > 'dev2' <'MAR ' 'NEP ' 'dflt' > 'deva' <'MAR ' 'NEP ' 'dflt' > 'grek' <'dflt' > 'latn' <'CAT ' 'GUA ' 'MOL ' 'NLD ' 'PLK ' 'ROM ' 'TRK ' 'dflt' > ) ]
Lookup: 3 0 0 "'aalt' Access All Alternates lookup 1" { "'aalt' Access All Alternates lookup 1 subtable"  } ['aalt' ('DFLT' <'dflt' > 'dev2' <'MAR ' 'NEP ' 'dflt' > 'deva' <'MAR ' 'NEP ' 'dflt' > 'grek' <'dflt' > 'latn' <'CAT ' 'GUA ' 'MOL ' 'NLD ' 'PLK ' 'ROM ' 'TRK ' 'dflt' > ) ]
Lookup: 4 0 0 "Ligature Substitution lookup 2" { "Ligature Substitution lookup 2 subtable"  } []
Lookup: 4 0 0 "Ligature Substitution lookup 3" { "Ligature Substitution lookup 3 subtable"  } []

StartChar: .notdef
Encoding: 65536 -1 0
Width: 240
VWidth: 466
Flags: MW
HStem: 0 23.5<40.5 199 40.5 236.5> 282 44<26 26 212.5 212.5> 303 23<40 198.5 40 40>
VStem: 3.5 22.5<44.5 44.5 44.5 282> 212.5 24<44.5 282 282 282>
LayerCount: 2
Back
Fore
SplineSet
3.5 0 m 1xb8
 3.5 326 l 1
 236.5 326 l 1
 236.5 0 l 1
 3.5 0 l 1xb8
120 184 m 1
 198.5 303 l 1
 40 303 l 1
 120 184 l 1
26 44.5 m 1
 106 163 l 1
 26 282 l 1xd8
 26 44.5 l 1
212.5 44.5 m 1
 212.5 282 l 1
 133.5 163 l 1
 212.5 44.5 l 1
40.5 23.5 m 1
 199 23.5 l 1
 119.5 142 l 1
 40.5 23.5 l 1
EndSplineSet
Validated: 524289
EndChar

StartChar: A
Encoding: 65 65 2
Width: 286
VWidth: 466
GlyphClass: 2
Flags: MW
HStem: -1 21G<18.75 28.5 28.5 47 235.25 242 242 262.5> 65.5 61.5<107 177 107 197 87 177> 240 87<141.5 143.5 141.5 141.5> 307 20G<131 155 155 161.75>
VStem: 0 285.5<6.25 10.5>
AnchorPoint: "Anchor-1" 143 326 basechar 0
AnchorPoint: "Anchor-0" 145 0 basechar 0
LayerCount: 2
Back
Fore
SplineSet
28.5 -1 m 2xd8
 9 -1 0 3 0 9.5 c 0
 0 11.5 1 14.5 2 17.5 c 2
 104.5 317.5 l 2
 107 325 117.5 327 131 327 c 2
 155 327 l 2
 168.5 327 179 325 181.5 317.5 c 2
 284.5 17.5 l 2
 285 14.5 285.5 11.5 285.5 9.5 c 0
 285.5 3 278.5 -1 262.5 -1 c 2
 242 -1 l 2
 228.5 -1 218 1.5 216 9 c 2
 197 65.5 l 1
 87 65.5 l 1
 68.5 9 l 2
 66 2 58 -1 47 -1 c 2
 28.5 -1 l 2xd8
107 127 m 1
 177 127 l 1
 150.5 210 l 2
 147.5 220 145.5 230 143.5 240 c 1
 141.5 240 l 1
 140 230 138.5 220 134.5 210 c 2xe8
 107 127 l 1
EndSplineSet
Validated: 524289
Substitution2: "Single Substitution lookup 49 subtable" ordfeminine
Substitution2: "'aalt' Access All Alternates lookup 0 subtable" ordfeminine
Position2: "'cpsp' Capital Spacing lookup 0 subtable" dx=5 dy=0 dh=10 dv=0
EndChar

StartChar: Aacute
Encoding: 193 193 3
Width: 286
VWidth: 466
GlyphClass: 2
Flags: MW
HStem: -1 21G<18.75 28.5 28.5 47 235.25 242 242 262.5> 65.5 61.5<107 177 107 197 87 177> 240 87<141.5 143.5 141.5 141.5> 307 20G<131 155 155 161.75> 350.5 74<119 189.25>
VStem: 0 285.5<6.25 10.5>
AnchorPoint: "Anchor-1" 143 326 basechar 0
AnchorPoint: "Anchor-0" 145 0 basechar 0
LayerCount: 2
Back
Fore
SplineSet
124.5 350.5 m 0xdc
 113.5 350.5 110 352.5 110 357.5 c 0
 110 362.5 119 374 140.5 412 c 0
 146 421.5 161.5 424.5 180 424.5 c 0
 198.5 424.5 208 423 208 418 c 0
 208 412.5 205 411.5 159.5 362 c 0
 154.5 356.5 146.5 350.5 124.5 350.5 c 0xdc
28.5 -1 m 2
 9 -1 0 3 0 9.5 c 0
 0 11.5 1 14.5 2 17.5 c 2
 104.5 317.5 l 2
 107 325 117.5 327 131 327 c 2
 155 327 l 2
 168.5 327 179 325 181.5 317.5 c 2xd4
 284.5 17.5 l 2
 285 14.5 285.5 11.5 285.5 9.5 c 0
 285.5 3 278.5 -1 262.5 -1 c 2
 242 -1 l 2
 228.5 -1 218 1.5 216 9 c 2
 197 65.5 l 1
 87 65.5 l 1
 68.5 9 l 2
 66 2 58 -1 47 -1 c 2
 28.5 -1 l 2
107 127 m 1
 177 127 l 1
 150.5 210 l 2
 147.5 220 145.5 230 143.5 240 c 1
 141.5 240 l 1
 140 230 138.5 220 134.5 210 c 2xe4
 107 127 l 1
EndSplineSet
Validated: 524289
Position2: "'cpsp' Capital Spacing lookup 0 subtable" dx=5 dy=0 dh=10 dv=0
EndChar

StartChar: Abreve
Encoding: 258 258 4
Width: 286
VWidth: 466
GlyphClass: 2
Flags: MW
HStem: -1 21G<18.75 28.5 28.5 47 235.25 242 242 262.5> 65.5 61.5<107 177 107 197 87 177> 240 87<141.5 143.5 141.5 141.5> 307 20G<131 155 155 161.75> 350.5 42.5<131.25 155.75 131.25 163.25>
VStem: 74.5 137<389.25 406.75>
AnchorPoint: "Anchor-1" 143 402 basechar 0
AnchorPoint: "Anchor-0" 145 0 basechar 0
LayerCount: 2
Back
Fore
SplineSet
143 350.5 m 0xdc
 102.5 350.5 74.5 376 74.5 402.5 c 0
 74.5 411 80.5 415.5 91 415.5 c 0
 99 415.5 102 412 106.5 407.5 c 0
 112.5 401 119.5 393 143 393 c 0
 168.5 393 175 401.5 181 408 c 0
 184.5 412.5 188 415.5 195.5 415.5 c 0
 205.5 415.5 211.5 411 211.5 402.5 c 0
 211.5 376 183.5 350.5 143 350.5 c 0xdc
28.5 -1 m 2
 9 -1 0 3 0 9.5 c 0
 0 11.5 1 14.5 2 17.5 c 2
 104.5 317.5 l 2
 107 325 117.5 327 131 327 c 2
 155 327 l 2
 168.5 327 179 325 181.5 317.5 c 2xd4
 284.5 17.5 l 2
 285 14.5 285.5 11.5 285.5 9.5 c 0
 285.5 3 278.5 -1 262.5 -1 c 2
 242 -1 l 2
 228.5 -1 218 1.5 216 9 c 2
 197 65.5 l 1
 87 65.5 l 1
 68.5 9 l 2
 66 2 58 -1 47 -1 c 2
 28.5 -1 l 2
107 127 m 1
 177 127 l 1
 150.5 210 l 2
 147.5 220 145.5 230 143.5 240 c 1
 141.5 240 l 1
 140 230 138.5 220 134.5 210 c 2xe4
 107 127 l 1
EndSplineSet
Validated: 524289
Position2: "'cpsp' Capital Spacing lookup 0 subtable" dx=5 dy=0 dh=10 dv=0
EndChar

StartChar: uni1EAE
Encoding: 7854 7854 5
Width: 286
VWidth: 466
GlyphClass: 2
Flags: MW
HStem: -1 21G<18.75 28.5 28.5 47 235.25 242 242 262.5> 65.5 61.5<107 177 107 197 87 177> 240 87<141.5 143.5 141.5 141.5> 307 20G<131 155 155 161.75> 350.5 37.5<131.25 155.75 131.25 163.25> 404.5 64.5<129.75 181>
VStem: 0 285.5<6.25 10.5> 74.5 137<386.5 402.75>
AnchorPoint: "Anchor-1" 143 406 basechar 0
AnchorPoint: "Anchor-0" 145 0 basechar 0
LayerCount: 2
Back
Fore
SplineSet
133.5 404.5 m 0xd6
 126 404.5 124 406.5 124 411.5 c 0
 124 415.5 128.5 425.5 140 456.5 c 0
 145.5 466.5 159 469 175 469 c 0
 187 469 193.5 467 193.5 458 c 0
 193.5 453.5 187.5 446 159 411.5 c 0
 155.5 407.5 150 404.5 133.5 404.5 c 0xd6
143 350.5 m 0xdd
 102.5 350.5 74.5 374.5 74.5 398.5 c 0
 74.5 407 80.5 411.5 91 411.5 c 0
 99 411.5 102 408 106.5 403 c 0
 112.5 395.5 119.5 388 143 388 c 0
 168.5 388 175 396 181 404 c 0
 184.5 408 188 411.5 195.5 411.5 c 0
 205.5 411.5 211.5 407 211.5 398.5 c 0
 211.5 374.5 183.5 350.5 143 350.5 c 0xdd
28.5 -1 m 2
 9 -1 0 3 0 9.5 c 0
 0 11.5 1 14.5 2 17.5 c 2
 104.5 317.5 l 2
 107 325 117.5 327 131 327 c 2
 155 327 l 2
 168.5 327 179 325 181.5 317.5 c 2xd5
 284.5 17.5 l 2
 285 14.5 285.5 11.5 285.5 9.5 c 0
 285.5 3 278.5 -1 262.5 -1 c 2
 242 -1 l 2
 228.5 -1 218 1.5 216 9 c 2
 197 65.5 l 1
 87 65.5 l 1
 68.5 9 l 2
 66 2 58 -1 47 -1 c 2
 28.5 -1 l 2
107 127 m 1
 177 127 l 1
 150.5 210 l 2
 147.5 220 145.5 230 143.5 240 c 1
 141.5 240 l 1
 140 230 138.5 220 134.5 210 c 2xe5
 107 127 l 1
EndSplineSet
Validated: 524289
Position2: "'cpsp' Capital Spacing lookup 0 subtable" dx=5 dy=0 dh=10 dv=0
EndChar

StartChar: uni1EB6
Encoding: 7862 7862 6
Width: 286
VWidth: 466
GlyphClass: 2
Flags: MW
HStem: -95 42.5<117.5 155.25> -1 21G<18.75 28.5 28.5 47 235.25 242 242 262.5> 65.5 61.5<107 177 107 197 87 177> 240 87<141.5 143.5 141.5 141.5> 307 20G<131 155 155 161.75> 350.5 42.5<131.25 155.75 131.25 163.25>
VStem: 74.5 137<389.25 406.75> 117.5 56<-80 -52.5 -85 -47.5>
AnchorPoint: "Anchor-1" 143 402 basechar 0
AnchorPoint: "Anchor-0" 146 -95 basechar 0
LayerCount: 2
Back
Fore
SplineSet
143 350.5 m 0xee
 102.5 350.5 74.5 376 74.5 402.5 c 0
 74.5 411 80.5 415.5 91 415.5 c 0
 99 415.5 102 412 106.5 407.5 c 0
 112.5 401 119.5 393 143 393 c 0
 168.5 393 175 401.5 181 408 c 0
 184.5 412.5 188 415.5 195.5 415.5 c 0
 205.5 415.5 211.5 411 211.5 402.5 c 0
 211.5 376 183.5 350.5 143 350.5 c 0xee
28.5 -1 m 2
 9 -1 0 3 0 9.5 c 0
 0 11.5 1 14.5 2 17.5 c 2
 104.5 317.5 l 2
 107 325 117.5 327 131 327 c 2
 155 327 l 2
 168.5 327 179 325 181.5 317.5 c 2xea
 284.5 17.5 l 2
 285 14.5 285.5 11.5 285.5 9.5 c 0
 285.5 3 278.5 -1 262.5 -1 c 2
 242 -1 l 2
 228.5 -1 218 1.5 216 9 c 2
 197 65.5 l 1
 87 65.5 l 1
 68.5 9 l 2
 66 2 58 -1 47 -1 c 2
 28.5 -1 l 2
107 127 m 1
 177 127 l 1
 150.5 210 l 2
 147.5 220 145.5 230 143.5 240 c 1
 141.5 240 l 1
 140 230 138.5 220 134.5 210 c 2xf2
 107 127 l 1
145.5 -95 m 0xe9
 126 -95 117.5 -90 117.5 -80 c 2
 117.5 -52.5 l 2
 117.5 -42.5 126 -37.5 145.5 -37.5 c 0
 165 -37.5 173.5 -42.5 173.5 -52.5 c 2
 173.5 -80 l 2
 173.5 -90 165 -95 145.5 -95 c 0xe9
EndSplineSet
Validated: 524289
Position2: "'cpsp' Capital Spacing lookup 0 subtable" dx=5 dy=0 dh=10 dv=0
EndChar

StartChar: uni1EB0
Encoding: 7856 7856 7
Width: 286
VWidth: 466
GlyphClass: 2
Flags: MW
HStem: -1 21G<18.75 28.5 28.5 47 235.25 242 242 262.5> 65.5 61.5<107 177 107 197 87 177> 240 87<141.5 143.5 141.5 141.5> 307 20G<131 155 155 161.75> 350.5 37.5<131.25 155.75 131.25 163.25> 404 64.5<104.5 157.75>
VStem: 0 285.5<6.25 10.5> 74.5 137<386.5 402.75>
AnchorPoint: "Anchor-1" 143 406 basechar 0
AnchorPoint: "Anchor-0" 145 0 basechar 0
LayerCount: 2
Back
Fore
SplineSet
152 404 m 0xd6
 134.5 404 128 410 123 415.5 c 0
 91.5 456.5 89.5 457.5 89.5 462 c 0
 89.5 467.5 97.5 468.5 111.5 468.5 c 0
 130 468.5 147 466 151 456 c 0
 163.5 426 166.5 415 166.5 411 c 0
 166.5 406 163.5 404 152 404 c 0xd6
143 350.5 m 0xdd
 102.5 350.5 74.5 374.5 74.5 398.5 c 0
 74.5 407 80.5 411.5 91 411.5 c 0
 99 411.5 102 408 106.5 403 c 0
 112.5 395.5 119.5 388 143 388 c 0
 168.5 388 175 396 181 404 c 0
 184.5 408 188 411.5 195.5 411.5 c 0
 205.5 411.5 211.5 407 211.5 398.5 c 0
 211.5 374.5 183.5 350.5 143 350.5 c 0xdd
28.5 -1 m 2
 9 -1 0 3 0 9.5 c 0
 0 11.5 1 14.5 2 17.5 c 2
 104.5 317.5 l 2
 107 325 117.5 327 131 327 c 2
 155 327 l 2
 168.5 327 179 325 181.5 317.5 c 2xd5
 284.5 17.5 l 2
 285 14.5 285.5 11.5 285.5 9.5 c 0
 285.5 3 278.5 -1 262.5 -1 c 2
 242 -1 l 2
 228.5 -1 218 1.5 216 9 c 2
 197 65.5 l 1
 87 65.5 l 1
 68.5 9 l 2
 66 2 58 -1 47 -1 c 2
 28.5 -1 l 2
107 127 m 1
 177 127 l 1
 150.5 210 l 2
 147.5 220 145.5 230 143.5 240 c 1
 141.5 240 l 1
 140 230 138.5 220 134.5 210 c 2xe5
 107 127 l 1
EndSplineSet
Validated: 524289
Position2: "'cpsp' Capital Spacing lookup 0 subtable" dx=5 dy=0 dh=10 dv=0
EndChar

StartChar: uni1EB2
Encoding: 7858 7858 8
Width: 286
VWidth: 466
GlyphClass: 2
Flags: MW
HStem: -1 21G<18.75 28.5 28.5 47 235.25 242 242 262.5> 65.5 61.5<107 177 107 197 87 177> 240 87<141.5 143.5 141.5 141.5> 307 20G<131 155 155 161.75> 350.5 37.5<131.25 155.75 131.25 163.25> 437 33<111.25 150>
VStem: 74.5 137<386.5 402.75> 147.5 32.5<435.25 439.75>
AnchorPoint: "Anchor-1" 143 471 basechar 0
AnchorPoint: "Anchor-0" 145 0 basechar 0
LayerCount: 2
Back
Fore
SplineSet
145 407 m 0xd5
 132.5 407 124.5 411.5 124.5 416.5 c 0
 124.5 418.5 128.5 422 133 424 c 0
 142 428.5 147.5 430.5 147.5 437 c 0
 147.5 442.5 142.5 445 138 445 c 0
 122.5 445 117.5 437 113 437 c 0
 109.5 437 99 449.5 99 456.5 c 0
 99 463 120 470 136.5 470 c 0
 163.5 470 180 457.5 180 439 c 0
 180 431.5 177 424.5 167.5 417 c 0
 163 413.5 153 407 145 407 c 0xd5
143 350.5 m 0xde
 102.5 350.5 74.5 374.5 74.5 398.5 c 0
 74.5 407 80.5 411.5 91 411.5 c 0
 99 411.5 102 408 106.5 403 c 0
 112.5 395.5 119.5 388 143 388 c 0
 168.5 388 175 396 181 404 c 0
 184.5 408 188 411.5 195.5 411.5 c 0
 205.5 411.5 211.5 407 211.5 398.5 c 0
 211.5 374.5 183.5 350.5 143 350.5 c 0xde
28.5 -1 m 2
 9 -1 0 3 0 9.5 c 0
 0 11.5 1 14.5 2 17.5 c 2
 104.5 317.5 l 2
 107 325 117.5 327 131 327 c 2
 155 327 l 2
 168.5 327 179 325 181.5 317.5 c 2xd6
 284.5 17.5 l 2
 285 14.5 285.5 11.5 285.5 9.5 c 0
 285.5 3 278.5 -1 262.5 -1 c 2
 242 -1 l 2
 228.5 -1 218 1.5 216 9 c 2
 197 65.5 l 1
 87 65.5 l 1
 68.5 9 l 2
 66 2 58 -1 47 -1 c 2
 28.5 -1 l 2
107 127 m 1
 177 127 l 1
 150.5 210 l 2
 147.5 220 145.5 230 143.5 240 c 1
 141.5 240 l 1
 140 230 138.5 220 134.5 210 c 2xe6
 107 127 l 1
EndSplineSet
Validated: 524289
Position2: "'cpsp' Capital Spacing lookup 0 subtable" dx=5 dy=0 dh=10 dv=0
EndChar

StartChar: uni1EB4
Encoding: 7860 7860 9
Width: 286
VWidth: 466
GlyphClass: 2
Flags: MW
HStem: -1 21G<18.75 28.5 28.5 47 235.25 242 242 262.5> 65.5 61.5<107 177 107 197 87 177> 240 87<141.5 143.5 141.5 141.5> 307 20G<131 155 155 161.75> 350.5 37.5<131.25 155.75 131.25 163.25> 421 39<173.5 175.25 173.5 183.75> 434.5 39<110.25 112>
VStem: 0 285.5<6.25 10.5> 74.5 137<386.5 402.75>
AnchorPoint: "Anchor-1" 143 406 basechar 0
AnchorPoint: "Anchor-0" 145 0 basechar 0
LayerCount: 2
Back
Fore
SplineSet
81 420.5 m 2xd5
 76 421.5 l 2xd5
 69 424 66.5 429 66.5 434.5 c 0
 66.5 436.5 67 439 67.5 441 c 0
 73.5 457.5 89.5 473.5 114 473.5 c 0xd3
 128.5 473.5 159.5 461 173.5 460 c 0xd5
 177 460 182.5 461 187.5 467.5 c 0
 192 473.5 195.5 475.5 199.5 475.5 c 0
 201 475.5 203 475 204.5 474.5 c 2
 209.5 473 l 2xd3
 216.5 470.5 219 465.5 219 460.5 c 0
 219 458 218.5 455.5 218 454 c 0
 212 437 196 421 171.5 421 c 0xd5
 157 421 126 434 112 434.5 c 0xd3
 108.5 434.5 103 434 98 427.5 c 0
 93.5 421 90 419.5 86 419.5 c 0
 84.5 419.5 82.5 419.5 81 420.5 c 2xd5
143 350.5 m 0xdc80
 102.5 350.5 74.5 374.5 74.5 398.5 c 0
 74.5 407 80.5 411.5 91 411.5 c 0
 99 411.5 102 408 106.5 403 c 0
 112.5 395.5 119.5 388 143 388 c 0
 168.5 388 175 396 181 404 c 0
 184.5 408 188 411.5 195.5 411.5 c 0
 205.5 411.5 211.5 407 211.5 398.5 c 0
 211.5 374.5 183.5 350.5 143 350.5 c 0xdc80
28.5 -1 m 2
 9 -1 0 3 0 9.5 c 0
 0 11.5 1 14.5 2 17.5 c 2
 104.5 317.5 l 2
 107 325 117.5 327 131 327 c 2
 155 327 l 2
 168.5 327 179 325 181.5 317.5 c 2xd480
 284.5 17.5 l 2
 285 14.5 285.5 11.5 285.5 9.5 c 0
 285.5 3 278.5 -1 262.5 -1 c 2
 242 -1 l 2
 228.5 -1 218 1.5 216 9 c 2
 197 65.5 l 1
 87 65.5 l 1
 68.5 9 l 2
 66 2 58 -1 47 -1 c 2
 28.5 -1 l 2
107 127 m 1
 177 127 l 1
 150.5 210 l 2
 147.5 220 145.5 230 143.5 240 c 1
 141.5 240 l 1
 140 230 138.5 220 134.5 210 c 2xe480
 107 127 l 1
EndSplineSet
Validated: 524289
Position2: "'cpsp' Capital Spacing lookup 0 subtable" dx=5 dy=0 dh=10 dv=0
EndChar

StartChar: Acircumflex
Encoding: 194 194 10
Width: 286
VWidth: 466
GlyphClass: 2
Flags: MW
HStem: -1 21G<18.75 28.5 28.5 47 235.25 242 242 262.5> 65.5 61.5<107 177 107 197 87 177> 240 87<141.5 143.5 141.5 141.5> 307 20G<131 155 155 161.75> 349 68<84.75 145.5 88 145.5 140.5 187.5 140.5 197.5>
VStem: 0 285.5<6.25 10.5>
AnchorPoint: "Anchor-1" 221 379 basechar 0
AnchorPoint: "Anchor-0" 145 0 basechar 0
LayerCount: 2
Back
Fore
SplineSet
88 349 m 2xdc
 81.5 349 79 350.5 79 353.5 c 0
 79 355.5 80 358 81.5 360.5 c 2
 112 408 l 2
 117 416.5 127 417 140.5 417 c 2
 145.5 417 l 2
 159 417 169 416.5 174 408 c 2
 204 360.5 l 2
 206 358 207 355.5 207 353.5 c 0
 207 350.5 203.5 349 197.5 349 c 2
 187.5 349 l 2
 174 349 162 351.5 155.5 360 c 2
 142.5 379 l 1
 129.5 360.5 l 2
 122.5 351 112 349 98.5 349 c 2
 88 349 l 2xdc
28.5 -1 m 2
 9 -1 0 3 0 9.5 c 0
 0 11.5 1 14.5 2 17.5 c 2
 104.5 317.5 l 2
 107 325 117.5 327 131 327 c 2
 155 327 l 2
 168.5 327 179 325 181.5 317.5 c 2xd4
 284.5 17.5 l 2
 285 14.5 285.5 11.5 285.5 9.5 c 0
 285.5 3 278.5 -1 262.5 -1 c 2
 242 -1 l 2
 228.5 -1 218 1.5 216 9 c 2
 197 65.5 l 1
 87 65.5 l 1
 68.5 9 l 2
 66 2 58 -1 47 -1 c 2
 28.5 -1 l 2
107 127 m 1
 177 127 l 1
 150.5 210 l 2
 147.5 220 145.5 230 143.5 240 c 1
 141.5 240 l 1
 140 230 138.5 220 134.5 210 c 2xe4
 107 127 l 1
EndSplineSet
Validated: 524289
Position2: "'cpsp' Capital Spacing lookup 0 subtable" dx=5 dy=0 dh=10 dv=0
EndChar

StartChar: uni1EA4
Encoding: 7844 7844 11
Width: 286
VWidth: 466
GlyphClass: 2
Flags: MW
HStem: -1 21G<18.75 28.5 28.5 47 235.25 242 242 262.5> 65.5 61.5<107 177 107 197 87 177> 240 87<141.5 143.5 141.5 141.5> 307 20G<131 155 155 161.75> 349 68<84.75 145.5 88 145.5 140.5 180.5 140.5 190.5> 384.5 64.5<191.75 243>
VStem: 0 285.5<6.25 10.5>
AnchorPoint: "Anchor-1" 205 386 basechar 0
AnchorPoint: "Anchor-0" 145 0 basechar 0
LayerCount: 2
Back
Fore
SplineSet
195.5 384.5 m 0xda
 188 384.5 186 386.5 186 391.5 c 0xda
 186 395.5 190.5 405.5 202 436.5 c 0
 207.5 446.5 221 449 237 449 c 0
 249 449 255.5 447 255.5 438 c 0xd6
 255.5 433.5 249.5 426 221 391.5 c 0
 217.5 387.5 212 384.5 195.5 384.5 c 0xda
88 349 m 2
 81.5 349 79 350.5 79 353.5 c 0
 79 355.5 80 358 81.5 360.5 c 2
 112 408 l 2
 117 416.5 127 417 140.5 417 c 2
 145.5 417 l 2
 156.5 417 164.5 416.5 169.5 408 c 2
 197 360.5 l 2
 199 358 200 355.5 200 353.5 c 0
 200 350.5 197 349 190.5 349 c 2
 180.5 349 l 2
 167 349 152 350.5 149 360 c 2
 142.5 379 l 1
 129.5 360.5 l 2
 122.5 351 112 349 98.5 349 c 2
 88 349 l 2
28.5 -1 m 2xd2
 9 -1 0 3 0 9.5 c 0
 0 11.5 1 14.5 2 17.5 c 2
 104.5 317.5 l 2
 107 325 117.5 327 131 327 c 2
 155 327 l 2
 168.5 327 179 325 181.5 317.5 c 2
 284.5 17.5 l 2
 285 14.5 285.5 11.5 285.5 9.5 c 0
 285.5 3 278.5 -1 262.5 -1 c 2
 242 -1 l 2
 228.5 -1 218 1.5 216 9 c 2
 197 65.5 l 1
 87 65.5 l 1
 68.5 9 l 2
 66 2 58 -1 47 -1 c 2
 28.5 -1 l 2xd2
107 127 m 1
 177 127 l 1
 150.5 210 l 2
 147.5 220 145.5 230 143.5 240 c 1
 141.5 240 l 1
 140 230 138.5 220 134.5 210 c 2xe2
 107 127 l 1
EndSplineSet
Validated: 524289
Position2: "'cpsp' Capital Spacing lookup 0 subtable" dx=5 dy=0 dh=10 dv=0
EndChar

StartChar: uni1EAC
Encoding: 7852 7852 12
Width: 286
VWidth: 466
GlyphClass: 2
Flags: MW
HStem: -95 42.5<117.5 155.25> -1 21G<18.75 28.5 28.5 47 235.25 242 242 262.5> 65.5 61.5<107 177 107 197 87 177> 240 87<141.5 143.5 141.5 141.5> 307 20G<131 155 155 161.75> 349 68<84.75 145.5 88 145.5 140.5 187.5 140.5 197.5>
VStem: 117.5 56<-80 -52.5 -85 -47.5>
AnchorPoint: "Anchor-1" 221 379 basechar 0
AnchorPoint: "Anchor-0" 146 -95 basechar 0
LayerCount: 2
Back
Fore
SplineSet
88 349 m 2xee
 81.5 349 79 350.5 79 353.5 c 0
 79 355.5 80 358 81.5 360.5 c 2
 112 408 l 2
 117 416.5 127 417 140.5 417 c 2
 145.5 417 l 2
 159 417 169 416.5 174 408 c 2
 204 360.5 l 2
 206 358 207 355.5 207 353.5 c 0
 207 350.5 203.5 349 197.5 349 c 2
 187.5 349 l 2
 174 349 162 351.5 155.5 360 c 2
 142.5 379 l 1
 129.5 360.5 l 2
 122.5 351 112 349 98.5 349 c 2
 88 349 l 2xee
28.5 -1 m 2
 9 -1 0 3 0 9.5 c 0
 0 11.5 1 14.5 2 17.5 c 2
 104.5 317.5 l 2
 107 325 117.5 327 131 327 c 2
 155 327 l 2
 168.5 327 179 325 181.5 317.5 c 2xea
 284.5 17.5 l 2
 285 14.5 285.5 11.5 285.5 9.5 c 0
 285.5 3 278.5 -1 262.5 -1 c 2
 242 -1 l 2
 228.5 -1 218 1.5 216 9 c 2
 197 65.5 l 1
 87 65.5 l 1
 68.5 9 l 2
 66 2 58 -1 47 -1 c 2
 28.5 -1 l 2
107 127 m 1
 177 127 l 1
 150.5 210 l 2
 147.5 220 145.5 230 143.5 240 c 1
 141.5 240 l 1
 140 230 138.5 220 134.5 210 c 2xf2
 107 127 l 1
145.5 -95 m 0
 126 -95 117.5 -90 117.5 -80 c 2
 117.5 -52.5 l 2
 117.5 -42.5 126 -37.5 145.5 -37.5 c 0
 165 -37.5 173.5 -42.5 173.5 -52.5 c 2
 173.5 -80 l 2
 173.5 -90 165 -95 145.5 -95 c 0
EndSplineSet
Validated: 524289
Position2: "'cpsp' Capital Spacing lookup 0 subtable" dx=5 dy=0 dh=10 dv=0
EndChar

StartChar: uni1EA6
Encoding: 7846 7846 13
Width: 286
VWidth: 466
GlyphClass: 2
Flags: MW
HStem: -1 21G<18.75 28.5 28.5 47 235.25 242 242 262.5> 65.5 61.5<107 177 107 197 87 177> 240 87<141.5 143.5 141.5 141.5> 307 20G<131 155 155 161.75> 349 68<84.75 145.5 88 145.5 140.5 180.5 140.5 190.5> 384 64.5<166.5 219.75>
VStem: 0 285.5<6.25 10.5>
AnchorPoint: "Anchor-1" 205 386 basechar 0
AnchorPoint: "Anchor-0" 145 0 basechar 0
LayerCount: 2
Back
Fore
SplineSet
214 384 m 0xd6
 196.5 384 190 390 185 395.5 c 0xd6
 153.5 436.5 151.5 437.5 151.5 442 c 0
 151.5 447.5 159.5 448.5 173.5 448.5 c 0
 192 448.5 209 446 213 436 c 0xda
 225.5 406 228.5 395 228.5 391 c 0
 228.5 386 225.5 384 214 384 c 0xd6
88 349 m 2xda
 81.5 349 79 350.5 79 353.5 c 0
 79 355.5 80 358 81.5 360.5 c 2
 112 408 l 2
 117 416.5 127 417 140.5 417 c 2
 145.5 417 l 2
 156.5 417 164.5 416.5 169.5 408 c 2
 197 360.5 l 2
 199 358 200 355.5 200 353.5 c 0
 200 350.5 197 349 190.5 349 c 2
 180.5 349 l 2
 167 349 152 350.5 149 360 c 2
 142.5 379 l 1
 129.5 360.5 l 2
 122.5 351 112 349 98.5 349 c 2
 88 349 l 2xda
28.5 -1 m 2
 9 -1 0 3 0 9.5 c 0
 0 11.5 1 14.5 2 17.5 c 2
 104.5 317.5 l 2
 107 325 117.5 327 131 327 c 2
 155 327 l 2
 168.5 327 179 325 181.5 317.5 c 2xd6
 284.5 17.5 l 2
 285 14.5 285.5 11.5 285.5 9.5 c 0
 285.5 3 278.5 -1 262.5 -1 c 2
 242 -1 l 2
 228.5 -1 218 1.5 216 9 c 2
 197 65.5 l 1
 87 65.5 l 1
 68.5 9 l 2
 66 2 58 -1 47 -1 c 2
 28.5 -1 l 2
107 127 m 1
 177 127 l 1
 150.5 210 l 2
 147.5 220 145.5 230 143.5 240 c 1
 141.5 240 l 1
 140 230 138.5 220 134.5 210 c 2xe6
 107 127 l 1
EndSplineSet
Validated: 524289
Position2: "'cpsp' Capital Spacing lookup 0 subtable" dx=5 dy=0 dh=10 dv=0
EndChar

StartChar: uni1EA8
Encoding: 7848 7848 14
Width: 286
VWidth: 466
GlyphClass: 2
Flags: MW
HStem: -1 21G<18.75 28.5 28.5 47 235.25 242 242 262.5> 65.5 61.5<107 177 107 197 87 177> 240 87<141.5 143.5 141.5 141.5> 307 20G<131 155 155 161.75> 349 68<84.75 145.5 88 145.5 173.75 177.25 140.5 180.5 140.5 190.5> 417 33<173.25 212>
VStem: 209.5 32.5<415.25 419.75>
AnchorPoint: "Anchor-1" 205 451 basechar 0
AnchorPoint: "Anchor-0" 145 0 basechar 0
LayerCount: 2
Back
Fore
SplineSet
207 387 m 0xda
 194.5 387 186.5 391.5 186.5 396.5 c 0
 186.5 398.5 190.5 402 195 404 c 0xda
 204 408.5 209.5 410.5 209.5 417 c 0
 209.5 422.5 204.5 425 200 425 c 0
 184.5 425 179.5 417 175 417 c 0
 171.5 417 161 429.5 161 436.5 c 0
 161 443 182 450 198.5 450 c 0
 225.5 450 242 437.5 242 419 c 0xd6
 242 411.5 239 404.5 229.5 397 c 0
 225 393.5 215 387 207 387 c 0xda
88 349 m 2
 81.5 349 79 350.5 79 353.5 c 0
 79 355.5 80 358 81.5 360.5 c 2
 112 408 l 2
 117 416.5 127 417 140.5 417 c 2
 145.5 417 l 2
 156.5 417 164.5 416.5 169.5 408 c 2
 197 360.5 l 2
 199 358 200 355.5 200 353.5 c 0
 200 350.5 197 349 190.5 349 c 2
 180.5 349 l 2
 167 349 152 350.5 149 360 c 2
 142.5 379 l 1
 129.5 360.5 l 2
 122.5 351 112 349 98.5 349 c 2
 88 349 l 2
28.5 -1 m 2xd6
 9 -1 0 3 0 9.5 c 0
 0 11.5 1 14.5 2 17.5 c 2
 104.5 317.5 l 2
 107 325 117.5 327 131 327 c 2
 155 327 l 2
 168.5 327 179 325 181.5 317.5 c 2
 284.5 17.5 l 2
 285 14.5 285.5 11.5 285.5 9.5 c 0
 285.5 3 278.5 -1 262.5 -1 c 2
 242 -1 l 2
 228.5 -1 218 1.5 216 9 c 2
 197 65.5 l 1
 87 65.5 l 1
 68.5 9 l 2
 66 2 58 -1 47 -1 c 2
 28.5 -1 l 2xd6
107 127 m 1
 177 127 l 1
 150.5 210 l 2
 147.5 220 145.5 230 143.5 240 c 1
 141.5 240 l 1
 140 230 138.5 220 134.5 210 c 2xe6
 107 127 l 1
EndSplineSet
Validated: 524289
Position2: "'cpsp' Capital Spacing lookup 0 subtable" dx=5 dy=0 dh=10 dv=0
EndChar

StartChar: uni1EAA
Encoding: 7850 7850 15
Width: 286
VWidth: 466
GlyphClass: 2
Flags: MW
HStem: -1 21G<18.75 28.5 28.5 47 235.25 242 242 262.5> 65.5 61.5<107 177 107 197 87 177> 240 87<141.5 143.5 141.5 141.5> 307 20G<131 155 155 161.75> 349 57<84.75 145.5 88 145.5 140.5 187.5 140.5 197.5> 421 39<171.5 173.25 171.5 181.75> 434.5 39<108.25 110>
VStem: 0 285.5<6.25 10.5>
AnchorPoint: "Anchor-1" 143 326 basechar 0
AnchorPoint: "Anchor-0" 145 0 basechar 0
LayerCount: 2
Back
Fore
SplineSet
79 420.5 m 2xd5
 74 421.5 l 2xd5
 67 424 64.5 429 64.5 434.5 c 0
 64.5 436.5 65 439 65.5 441 c 0
 71.5 457.5 87.5 473.5 112 473.5 c 0xd3
 126.5 473.5 157.5 461 171.5 460 c 0xd5
 175 460 180.5 461 185.5 467.5 c 0
 190 473.5 193.5 475.5 197.5 475.5 c 0
 199 475.5 201 475 202.5 474.5 c 2
 207.5 473 l 2xd3
 214.5 470.5 217 465.5 217 460.5 c 0
 217 458 216.5 455.5 216 454 c 0
 210 437 194 421 169.5 421 c 0xd5
 155 421 124 434 110 434.5 c 0xd3
 106.5 434.5 101 434 96 427.5 c 0
 91.5 421 88 419.5 84 419.5 c 0
 82.5 419.5 80.5 419.5 79 420.5 c 2xd5
88 349 m 2xdd
 81.5 349 79 350.5 79 353.5 c 0
 79 355.5 80 358 81.5 360.5 c 2
 112 397 l 2
 119 404.5 127 406 140.5 406 c 2
 145.5 406 l 2
 159 406 167 404.5 174 397 c 2
 204 360.5 l 2
 206 358 207 355.5 207 353.5 c 0
 207 350.5 203.5 349 197.5 349 c 2
 187.5 349 l 2
 174 349 165.5 354 155.5 360 c 2
 142.5 373 l 1
 129.5 360.5 l 2
 118.5 354 112 349 98.5 349 c 2
 88 349 l 2xdd
28.5 -1 m 2
 9 -1 0 3 0 9.5 c 0
 0 11.5 1 14.5 2 17.5 c 2
 104.5 317.5 l 2
 107 325 117.5 327 131 327 c 2
 155 327 l 2
 168.5 327 179 325 181.5 317.5 c 2xd5
 284.5 17.5 l 2
 285 14.5 285.5 11.5 285.5 9.5 c 0
 285.5 3 278.5 -1 262.5 -1 c 2
 242 -1 l 2
 228.5 -1 218 1.5 216 9 c 2
 197 65.5 l 1
 87 65.5 l 1
 68.5 9 l 2
 66 2 58 -1 47 -1 c 2
 28.5 -1 l 2
107 127 m 1
 177 127 l 1
 150.5 210 l 2
 147.5 220 145.5 230 143.5 240 c 1
 141.5 240 l 1
 140 230 138.5 220 134.5 210 c 2xe5
 107 127 l 1
EndSplineSet
Validated: 524289
Position2: "'cpsp' Capital Spacing lookup 0 subtable" dx=5 dy=0 dh=10 dv=0
EndChar

StartChar: Adieresis
Encoding: 196 196 16
Width: 286
VWidth: 466
GlyphClass: 2
Flags: MW
HStem: -1 21G<18.75 28.5 28.5 47 235.25 242 242 262.5> 65.5 61.5<107 177 107 197 87 177> 240 87<141.5 143.5 141.5 141.5> 307 20G<131 155 155 161.75> 352 42.5<73 110.75>
VStem: 73 56<367 394.5 362 399.5> 157 56<367 394.5 362 399.5>
AnchorPoint: "Anchor-1" 143 326 basechar 0
AnchorPoint: "Anchor-0" 145 0 basechar 0
LayerCount: 2
Back
Fore
SplineSet
101 352 m 0xdc
 81.5 352 73 357 73 367 c 2
 73 394.5 l 2
 73 404.5 81.5 409.5 101 409.5 c 0
 120.5 409.5 129 404.5 129 394.5 c 2
 129 367 l 2
 129 357 120.5 352 101 352 c 0xdc
185 352 m 0xde
 165.5 352 157 357 157 367 c 2
 157 394.5 l 2
 157 404.5 165.5 409.5 185 409.5 c 0
 204.5 409.5 213 404.5 213 394.5 c 2
 213 367 l 2
 213 357 204.5 352 185 352 c 0xde
28.5 -1 m 2
 9 -1 0 3 0 9.5 c 0
 0 11.5 1 14.5 2 17.5 c 2
 104.5 317.5 l 2
 107 325 117.5 327 131 327 c 2
 155 327 l 2
 168.5 327 179 325 181.5 317.5 c 2xd6
 284.5 17.5 l 2
 285 14.5 285.5 11.5 285.5 9.5 c 0
 285.5 3 278.5 -1 262.5 -1 c 2
 242 -1 l 2
 228.5 -1 218 1.5 216 9 c 2
 197 65.5 l 1
 87 65.5 l 1
 68.5 9 l 2
 66 2 58 -1 47 -1 c 2
 28.5 -1 l 2
107 127 m 1
 177 127 l 1
 150.5 210 l 2
 147.5 220 145.5 230 143.5 240 c 1
 141.5 240 l 1
 140 230 138.5 220 134.5 210 c 2xe4
 107 127 l 1
EndSplineSet
Validated: 524289
Position2: "'cpsp' Capital Spacing lookup 0 subtable" dx=5 dy=0 dh=10 dv=0
EndChar

StartChar: uni1EA0
Encoding: 7840 7840 17
Width: 286
VWidth: 466
GlyphClass: 2
Flags: MW
HStem: -95 42.5<117.5 155.25> -1 21G<18.75 28.5 28.5 47 235.25 242 242 262.5> 65.5 61.5<107 177 107 197 87 177> 240 87<141.5 143.5 141.5 141.5> 307 20G<131 155 155 161.75>
VStem: 117.5 56<-80 -52.5 -85 -47.5>
AnchorPoint: "Anchor-1" 143 326 basechar 0
AnchorPoint: "Anchor-0" 146 -95 basechar 0
LayerCount: 2
Back
Fore
SplineSet
28.5 -1 m 2xec
 9 -1 0 3 0 9.5 c 0
 0 11.5 1 14.5 2 17.5 c 2
 104.5 317.5 l 2
 107 325 117.5 327 131 327 c 2
 155 327 l 2
 168.5 327 179 325 181.5 317.5 c 2
 284.5 17.5 l 2
 285 14.5 285.5 11.5 285.5 9.5 c 0
 285.5 3 278.5 -1 262.5 -1 c 2
 242 -1 l 2
 228.5 -1 218 1.5 216 9 c 2
 197 65.5 l 1
 87 65.5 l 1
 68.5 9 l 2
 66 2 58 -1 47 -1 c 2
 28.5 -1 l 2xec
107 127 m 1
 177 127 l 1
 150.5 210 l 2
 147.5 220 145.5 230 143.5 240 c 1
 141.5 240 l 1
 140 230 138.5 220 134.5 210 c 2xf4
 107 127 l 1
145.5 -95 m 0
 126 -95 117.5 -90 117.5 -80 c 2
 117.5 -52.5 l 2
 117.5 -42.5 126 -37.5 145.5 -37.5 c 0
 165 -37.5 173.5 -42.5 173.5 -52.5 c 2
 173.5 -80 l 2
 173.5 -90 165 -95 145.5 -95 c 0
EndSplineSet
Validated: 524289
Position2: "'cpsp' Capital Spacing lookup 0 subtable" dx=5 dy=0 dh=10 dv=0
EndChar

StartChar: Agrave
Encoding: 192 192 18
Width: 286
VWidth: 466
GlyphClass: 2
Flags: MW
HStem: -1 21G<18.75 28.5 28.5 47 235.25 242 242 262.5> 65.5 61.5<107 177 107 197 87 177> 240 87<141.5 143.5 141.5 141.5> 307 20G<131 155 155 161.75> 350.5 74<99.25 169.75>
VStem: 0 285.5<6.25 10.5>
AnchorPoint: "Anchor-1" 143 326 basechar 0
AnchorPoint: "Anchor-0" 145 0 basechar 0
LayerCount: 2
Back
Fore
SplineSet
164 350.5 m 0xdc
 142 350.5 134.5 356.5 129 362 c 0
 84 411.5 80.5 412.5 80.5 418 c 0
 80.5 423 90 424.5 108.5 424.5 c 0
 127.5 424.5 142.5 421.5 148 412 c 0
 169.5 374 178.5 362.5 178.5 357.5 c 0
 178.5 352.5 175.5 350.5 164 350.5 c 0xdc
28.5 -1 m 2
 9 -1 0 3 0 9.5 c 0
 0 11.5 1 14.5 2 17.5 c 2
 104.5 317.5 l 2
 107 325 117.5 327 131 327 c 2
 155 327 l 2
 168.5 327 179 325 181.5 317.5 c 2xd4
 284.5 17.5 l 2
 285 14.5 285.5 11.5 285.5 9.5 c 0
 285.5 3 278.5 -1 262.5 -1 c 2
 242 -1 l 2
 228.5 -1 218 1.5 216 9 c 2
 197 65.5 l 1
 87 65.5 l 1
 68.5 9 l 2
 66 2 58 -1 47 -1 c 2
 28.5 -1 l 2
107 127 m 1
 177 127 l 1
 150.5 210 l 2
 147.5 220 145.5 230 143.5 240 c 1
 141.5 240 l 1
 140 230 138.5 220 134.5 210 c 2xe4
 107 127 l 1
EndSplineSet
Validated: 524289
Position2: "'cpsp' Capital Spacing lookup 0 subtable" dx=5 dy=0 dh=10 dv=0
EndChar

StartChar: uni1EA2
Encoding: 7842 7842 19
Width: 286
VWidth: 466
GlyphClass: 2
Flags: MW
HStem: -1 21G<18.75 28.5 28.5 47 235.25 242 242 262.5> 65.5 61.5<107 177 107 197 87 177> 240 87<141.5 143.5 141.5 141.5> 307 20G<131 155 155 161.75> 404 28.5<140.75 149.25>
VStem: 160 41<387 397.25>
AnchorPoint: "Anchor-1" 143 409 basechar 0
AnchorPoint: "Anchor-0" 145 0 basechar 0
LayerCount: 2
Back
Fore
SplineSet
154 348 m 0xdc
 143 348 129 355 129 359 c 0
 129 367 160 380 160 394 c 0
 160 400.5 153 404 145.5 404 c 0
 135 404 130 398.5 126 398.5 c 0
 122 398.5 112 411 112 418 c 0
 112 424 132.5 432.5 149 432.5 c 0
 182.5 432.5 201 418.5 201 395.5 c 0
 201 371 162.5 348 154 348 c 0xdc
28.5 -1 m 2
 9 -1 0 3 0 9.5 c 0
 0 11.5 1 14.5 2 17.5 c 2
 104.5 317.5 l 2
 107 325 117.5 327 131 327 c 2
 155 327 l 2
 168.5 327 179 325 181.5 317.5 c 2
 284.5 17.5 l 2
 285 14.5 285.5 11.5 285.5 9.5 c 0
 285.5 3 278.5 -1 262.5 -1 c 2
 242 -1 l 2
 228.5 -1 218 1.5 216 9 c 2
 197 65.5 l 1
 87 65.5 l 1
 68.5 9 l 2
 66 2 58 -1 47 -1 c 2
 28.5 -1 l 2
107 127 m 1
 177 127 l 1
 150.5 210 l 2
 147.5 220 145.5 230 143.5 240 c 1
 141.5 240 l 1
 140 230 138.5 220 134.5 210 c 2xec
 107 127 l 1
EndSplineSet
Validated: 524289
Position2: "'cpsp' Capital Spacing lookup 0 subtable" dx=5 dy=0 dh=10 dv=0
EndChar

StartChar: Amacron
Encoding: 256 256 20
Width: 286
VWidth: 466
GlyphClass: 2
Flags: MW
HStem: -1 21G<18.75 28.5 28.5 47 235.25 242 242 262.5> 65.5 61.5<107 177 107 197 87 177> 240 87<141.5 143.5 141.5 141.5> 307 20G<131 155 155 161.75> 360.5 44.5<88 193 93 193>
VStem: 79 128<379.5 386.5 373 393>
AnchorPoint: "Anchor-1" 143 326 basechar 0
AnchorPoint: "Anchor-0" 145 0 basechar 0
LayerCount: 2
Back
Fore
SplineSet
93 360.5 m 2xdc
 83 360.5 79 366.5 79 379.5 c 2
 79 386.5 l 2
 79 399.5 83 405 93 405 c 2
 193 405 l 2
 202.5 405 207 399.5 207 386.5 c 2
 207 379.5 l 2
 207 366.5 202.5 360.5 193 360.5 c 2
 93 360.5 l 2xdc
28.5 -1 m 2
 9 -1 0 3 0 9.5 c 0
 0 11.5 1 14.5 2 17.5 c 2
 104.5 317.5 l 2
 107 325 117.5 327 131 327 c 2
 155 327 l 2
 168.5 327 179 325 181.5 317.5 c 2
 284.5 17.5 l 2
 285 14.5 285.5 11.5 285.5 9.5 c 0
 285.5 3 278.5 -1 262.5 -1 c 2
 242 -1 l 2
 228.5 -1 218 1.5 216 9 c 2
 197 65.5 l 1
 87 65.5 l 1
 68.5 9 l 2
 66 2 58 -1 47 -1 c 2
 28.5 -1 l 2
107 127 m 1
 177 127 l 1
 150.5 210 l 2
 147.5 220 145.5 230 143.5 240 c 1
 141.5 240 l 1
 140 230 138.5 220 134.5 210 c 2xec
 107 127 l 1
EndSplineSet
Validated: 524289
Position2: "'cpsp' Capital Spacing lookup 0 subtable" dx=5 dy=0 dh=10 dv=0
EndChar

StartChar: Aogonek
Encoding: 260 260 21
Width: 286
VWidth: 466
GlyphClass: 2
Flags: MW
HStem: -85.5 33<275.5 284.5> -1 21G<18.75 28.5 28.5 47 257 257 257 262.5> -0.5 21G 65.5 61.5<107 177 107 197 87 177> 240 87<141.5 143.5 141.5 141.5> 307 20G<131 155 155 161.75>
VStem: 220.5 31.5<-40.25 -33.75>
AnchorPoint: "Anchor-1" 143 326 basechar 0
AnchorPoint: "Anchor-0" 145 0 basechar 0
LayerCount: 2
Back
Fore
SplineSet
303.5 -49 m 0xb6
 310 -49 314 -53 314 -62 c 0
 314 -81.5 293.5 -85.5 275.5 -85.5 c 0
 226 -85.5 220.5 -51.5 220.5 -37.5 c 0
 220.5 -30 222.5 -11 232 -0.5 c 1
 223.5 0.5 217.5 3.5 216 9 c 2xb6
 197 65.5 l 1
 87 65.5 l 1
 68.5 9 l 2
 66 2 58 -1 47 -1 c 2
 28.5 -1 l 2
 9 -1 0 3 0 9.5 c 0
 0 11.5 1 14.5 2 17.5 c 2
 104.5 317.5 l 2
 107 325 117.5 327 131 327 c 2
 155 327 l 2
 168.5 327 179 325 181.5 317.5 c 2
 284.5 17.5 l 2
 285 14.5 285.5 11.5 285.5 9.5 c 0
 285.5 3 278.5 -1 262.5 -1 c 2
 257 -1 l 1
 257 -2.5 l 2xd6
 257 -9.5 252 -15.5 252 -29 c 0
 252 -51.5 270 -52.5 281 -52.5 c 0
 292.5 -52.5 295 -49 303.5 -49 c 0xb6
107 127 m 1
 177 127 l 1
 150.5 210 l 2
 147.5 220 145.5 230 143.5 240 c 1
 141.5 240 l 1
 140 230 138.5 220 134.5 210 c 2xba
 107 127 l 1
EndSplineSet
Validated: 524289
Position2: "'cpsp' Capital Spacing lookup 0 subtable" dx=5 dy=0 dh=10 dv=0
EndChar

StartChar: Aring
Encoding: 197 197 22
Width: 286
VWidth: 466
GlyphClass: 2
Flags: MW
HStem: -1 21G<18.75 28.5 28.5 47 235.25 242 242 262.5> 65.5 61.5<107 177 107 197 87 177> 240 87<141.5 143.5 141.5 141.5> 307 20G<131 155 155 161.75> 339 28.5<137.75 147.25 137.75 155.5> 401.5 30<137.75 147.25>
VStem: 96.5 46 142.5 46.5
AnchorPoint: "Anchor-1" 143 326 basechar 0
AnchorPoint: "Anchor-0" 145 0 basechar 0
LayerCount: 2
Back
Fore
SplineSet
142.5 339 m 0xda
 116.5 339 96.5 359 96.5 385 c 0xd6
 96.5 411 116.5 431.5 142.5 431.5 c 0
 168.5 431.5 189 411 189 385 c 0xdd
 189 359 168.5 339 142.5 339 c 0xda
142.5 367.5 m 0
 152 367.5 160 375 160 384.5 c 0xda
 160 394 152 401.5 142.5 401.5 c 0
 133 401.5 126 394 126 384.5 c 0xdd
 126 375 133 367.5 142.5 367.5 c 0
28.5 -1 m 2xd2
 9 -1 0 3 0 9.5 c 0
 0 11.5 1 14.5 2 17.5 c 2
 104.5 317.5 l 2
 107 325 117.5 327 131 327 c 2
 155 327 l 2
 168.5 327 179 325 181.5 317.5 c 2
 284.5 17.5 l 2
 285 14.5 285.5 11.5 285.5 9.5 c 0
 285.5 3 278.5 -1 262.5 -1 c 2
 242 -1 l 2
 228.5 -1 218 1.5 216 9 c 2
 197 65.5 l 1
 87 65.5 l 1
 68.5 9 l 2
 66 2 58 -1 47 -1 c 2
 28.5 -1 l 2xd2
107 127 m 1
 177 127 l 1
 150.5 210 l 2
 147.5 220 145.5 230 143.5 240 c 1
 141.5 240 l 1
 140 230 138.5 220 134.5 210 c 2xe2
 107 127 l 1
EndSplineSet
Validated: 524289
Position2: "'cpsp' Capital Spacing lookup 0 subtable" dx=5 dy=0 dh=10 dv=0
EndChar

StartChar: Aringacute
Encoding: 506 506 23
Width: 286
VWidth: 466
GlyphClass: 2
Flags: MW
HStem: -1 21G<18.75 28.5 28.5 47 235.25 242 242 262.5> 65.5 61.5<107 177 107 197 87 177> 341 30<138.25 147.75> 378.5 55.5<130.5 189.75>
VStem: 97 46 143 46.5
LayerCount: 2
Back
Fore
SplineSet
136 378.5 m 0xd8
 125 378.5 121.5 380.5 121.5 385.5 c 0
 129 402.5 133.5 410.5 140.5 421.5 c 0
 146.5 431 161.5 434 180.5 434 c 0
 199 434 208.5 432.5 208.5 427.5 c 0
 208.5 423.5 206 422.5 171 390 c 0
 166 384.5 158 378.5 136 378.5 c 0xd8
284.5 17.5 m 2xe4
 285 14.5 285.5 11.5 285.5 9.5 c 0
 285.5 3 278.5 -1 262.5 -1 c 2
 242 -1 l 2
 228.5 -1 218 1.5 216 9 c 2
 197 65.5 l 1xd4
 87 65.5 l 1
 68.5 9 l 2
 66 2 58 -1 47 -1 c 2
 28.5 -1 l 2
 9 -1 0 3 0 9.5 c 0
 0 11.5 1 14.5 2 17.5 c 2
 100.5 306 l 2
 98.5 311.5 97 318 97 324.5 c 0xe8
 97 350.5 117 371 143 371 c 0
 169 371 189.5 350.5 189.5 324.5 c 0
 189.5 317.5 188 311.5 185.5 305.5 c 1
 284.5 17.5 l 2xe4
143 341 m 0xe8
 133.5 341 126.5 333.5 126.5 324 c 0
 126.5 314.5 133.5 307 143 307 c 0
 152.5 307 160.5 314.5 160.5 324 c 0
 160.5 333.5 152.5 341 143 341 c 0xe8
107 127 m 1
 177 127 l 1
 150.5 210 l 2
 147.5 220 145.5 230 143.5 240 c 1
 141.5 240 l 1
 140 230 138.5 220 134.5 210 c 2
 107 127 l 1
EndSplineSet
Validated: 524289
Position2: "'cpsp' Capital Spacing lookup 0 subtable" dx=5 dy=0 dh=10 dv=0
EndChar

StartChar: Atilde
Encoding: 195 195 24
Width: 286
VWidth: 466
GlyphClass: 2
Flags: MW
HStem: -1 21G<18.75 28.5 28.5 47 235.25 242 242 262.5> 65.5 61.5<107 177 107 197 87 177> 240 87<141.5 143.5 141.5 141.5> 307 20G<131 155 155 161.75> 353.5 39<171.5 173.5 171.5 182.75> 367 39<102 104>
VStem: 0 285.5<6.25 10.5>
AnchorPoint: "Anchor-1" 143 326 basechar 0
AnchorPoint: "Anchor-0" 145 0 basechar 0
LayerCount: 2
Back
Fore
SplineSet
69.5 353 m 2xda
 64 354 l 2xda
 56.5 356.5 54 361.5 54 367 c 0
 54 369 54.5 371.5 55 373.5 c 0
 61.5 390 79 406 106 406 c 0xd6
 122 406 156 393.5 171.5 392.5 c 0xda
 175.5 392.5 181.5 393.5 187 400 c 0
 192 406 195.5 408 200 408 c 0
 201.5 408 204 407.5 205.5 407 c 2
 211 405.5 l 2xd6
 219 403 221.5 398 221.5 393 c 0
 221.5 390.5 221 388 220.5 386.5 c 0
 214 369.5 196 353.5 169.5 353.5 c 0xda
 153.5 353.5 119 366.5 104 367 c 0xd6
 100 367 94 366.5 88.5 360 c 0
 83.5 353.5 79.5 352 75 352 c 0
 73.5 352 71.5 352 69.5 353 c 2xda
28.5 -1 m 2xd2
 9 -1 0 3 0 9.5 c 0
 0 11.5 1 14.5 2 17.5 c 2
 104.5 317.5 l 2
 107 325 117.5 327 131 327 c 2
 155 327 l 2
 168.5 327 179 325 181.5 317.5 c 2
 284.5 17.5 l 2
 285 14.5 285.5 11.5 285.5 9.5 c 0
 285.5 3 278.5 -1 262.5 -1 c 2
 242 -1 l 2
 228.5 -1 218 1.5 216 9 c 2
 197 65.5 l 1
 87 65.5 l 1
 68.5 9 l 2
 66 2 58 -1 47 -1 c 2
 28.5 -1 l 2xd2
107 127 m 1
 177 127 l 1
 150.5 210 l 2
 147.5 220 145.5 230 143.5 240 c 1
 141.5 240 l 1
 140 230 138.5 220 134.5 210 c 2xe2
 107 127 l 1
EndSplineSet
Validated: 524289
Position2: "'cpsp' Capital Spacing lookup 0 subtable" dx=5 dy=0 dh=10 dv=0
EndChar

StartChar: AE
Encoding: 198 198 25
Width: 427
VWidth: 466
GlyphClass: 2
Flags: MW
HStem: 0 61<229.75 389 280.5 389 280.5 389> 65.5 61.5<126 197.5 126 209 95.5 197.5> 136.5 61<266 376 266 266> 265 61<241 388.5 241 241>
VStem: 0.5 402.5<6.25 23.5>
AnchorPoint: "Anchor-1" 214 326 basechar 0
AnchorPoint: "Anchor-0" 0 0 basechar 0
LayerCount: 2
Back
Fore
SplineSet
29 -1 m 2
 9.5 -1 0.5 3 0.5 9.5 c 0
 0.5 11.5 1 15 2.5 17.5 c 2
 152 313.5 l 2
 156.5 322.5 162.5 326 172.5 326 c 2
 388.5 326 l 2
 398.5 326 402.5 319 402.5 303 c 2
 402.5 288.5 l 2
 402.5 272 398.5 265 388.5 265 c 2
 241 265 l 1
 254 197.5 l 1
 376 197.5 l 2
 386 197.5 390 190.5 390 174.5 c 2
 390 160 l 2
 390 143.5 386 136.5 376 136.5 c 2
 266 136.5 l 1
 280.5 61 l 1
 389 61 l 2
 399 61 403 54 403 37.5 c 2
 403 23.5 l 2
 403 7 399 0 389 0 c 2
 235 0 l 2
 224.5 0 220.5 4 218.5 14 c 2xb8
 209 65.5 l 1
 95.5 65.5 l 1x78
 67.5 9 l 2
 64.5 2.5 57.5 -1 46 -1 c 2
 29 -1 l 2
126 127 m 1x78
 197.5 127 l 1
 182 211.5 l 1
 182 250 l 1
 180.5 250 l 1
 167.5 212 l 1
 126 127 l 1x78
EndSplineSet
Validated: 524289
Position2: "'cpsp' Capital Spacing lookup 0 subtable" dx=5 dy=0 dh=10 dv=0
EndChar

StartChar: AEacute
Encoding: 508 508 26
Width: 427
VWidth: 466
GlyphClass: 2
Flags: MW
HStem: 0 61<229.75 389 280.5 389 280.5 389> 65.5 61.5<126 197.5 126 209 95.5 197.5> 136.5 61<266 376 266 266> 265 61<241 388.5 241 241> 350.5 74<189.5 259.75>
VStem: 0.5 402.5<6.25 23.5>
AnchorPoint: "Anchor-1" 214 326 basechar 0
AnchorPoint: "Anchor-0" 0 0 basechar 0
LayerCount: 2
Back
Fore
SplineSet
195 350.5 m 0
 184 350.5 180.5 352.5 180.5 357.5 c 0
 180.5 362.5 189.5 374 211 412 c 0
 216.5 421.5 232 424.5 250.5 424.5 c 0
 269 424.5 278.5 423 278.5 418 c 0
 278.5 412.5 275.5 411.5 230 362 c 0
 225 356.5 217 350.5 195 350.5 c 0
29 -1 m 2
 9.5 -1 0.5 3 0.5 9.5 c 0
 0.5 11.5 1 15 2.5 17.5 c 2
 152 313.5 l 2
 156.5 322.5 162.5 326 172.5 326 c 2
 388.5 326 l 2
 398.5 326 402.5 319 402.5 303 c 2
 402.5 288.5 l 2
 402.5 272 398.5 265 388.5 265 c 2
 241 265 l 1
 254 197.5 l 1
 376 197.5 l 2
 386 197.5 390 190.5 390 174.5 c 2
 390 160 l 2
 390 143.5 386 136.5 376 136.5 c 2
 266 136.5 l 1
 280.5 61 l 1
 389 61 l 2
 399 61 403 54 403 37.5 c 2
 403 23.5 l 2
 403 7 399 0 389 0 c 2
 235 0 l 2
 224.5 0 220.5 4 218.5 14 c 2xb4
 209 65.5 l 1
 95.5 65.5 l 1x74
 67.5 9 l 2
 64.5 2.5 57.5 -1 46 -1 c 2
 29 -1 l 2
126 127 m 1x74
 197.5 127 l 1
 182 211.5 l 1
 182 250 l 1
 180.5 250 l 1
 167.5 212 l 1
 126 127 l 1x74
EndSplineSet
Validated: 524289
Position2: "'cpsp' Capital Spacing lookup 0 subtable" dx=5 dy=0 dh=10 dv=0
EndChar

StartChar: B
Encoding: 66 66 27
Width: 277
VWidth: 466
GlyphClass: 2
Flags: MW
HStem: 0 61<44.25 149.5 104 149.5 104 149.5> 135 61<104 136 136 142 104 136> 265.5 60.5<104 137 104 104>
VStem: 32 72<61 61 61 135 196 265.5> 179.5 73.5<227.75 242.5> 192.5 73.5<86.75 111>
LayerCount: 2
Back
Fore
SplineSet
51 0 m 2xf4
 37.5 0 32 5.5 32 18.5 c 2
 32 307.5 l 2
 32 320.5 37.5 326 51 326 c 2
 143 326 l 2
 222 326 253 292.5 253 243.5 c 0xf8
 253 212 230.5 184.5 202.5 173 c 1
 203 171 l 1
 240.5 163.5 266 130.5 266 94.5 c 0
 266 34.5 228.5 0 149.5 0 c 2
 51 0 l 2xf4
104 196 m 1
 136 196 l 2
 164 196 179.5 211.5 179.5 231 c 0
 179.5 254 165.5 265.5 137 265.5 c 2xf8
 104 265.5 l 1
 104 196 l 1
104 61 m 1
 149.5 61 l 2
 176.5 61 192.5 74.5 192.5 99 c 0
 192.5 123 174.5 135 142 135 c 2xf4
 104 135 l 1
 104 61 l 1
EndSplineSet
Validated: 524289
Position2: "'cpsp' Capital Spacing lookup 0 subtable" dx=5 dy=0 dh=10 dv=0
EndChar

StartChar: C
Encoding: 67 67 28
Width: 289
VWidth: 466
GlyphClass: 2
Flags: MW
HStem: -3.5 61<147.5 193> 268.5 61.5<147.5 197 124.75 197.25>
VStem: 21 73.5<128.5 198.5 128.5 219.5>
AnchorPoint: "Anchor-1" 172 326 basechar 0
AnchorPoint: "Anchor-0" 174 0 basechar 0
LayerCount: 2
Back
Fore
SplineSet
174.5 -3.5 m 0
 70 -3.5 21 49 21 164 c 0
 21 275 73 330 176.5 330 c 0
 217.5 330 274 317 274 297.5 c 0
 274 284.5 255.5 253.5 243.5 253.5 c 0
 238 253.5 219.5 268.5 175 268.5 c 0
 120 268.5 94.5 233.5 94.5 163.5 c 0
 94.5 93.5 120.5 57.5 174.5 57.5 c 0
 218.5 57.5 243.5 76 250.5 76 c 0
 265.5 76 278 43.5 278 35.5 c 0
 278 7.5 211.5 -3.5 174.5 -3.5 c 0
EndSplineSet
Validated: 524289
Position2: "'cpsp' Capital Spacing lookup 0 subtable" dx=5 dy=0 dh=10 dv=0
EndChar

StartChar: Cacute
Encoding: 262 262 29
Width: 289
VWidth: 466
GlyphClass: 2
Flags: MW
HStem: -3.5 61<147.5 193> 268.5 61.5<147.5 197 124.75 197.25> 350.5 74<147.5 217.75>
VStem: 21 73.5<128.5 198.5 128.5 219.5>
AnchorPoint: "Anchor-1" 172 326 basechar 0
AnchorPoint: "Anchor-0" 174 0 basechar 0
LayerCount: 2
Back
Fore
SplineSet
153 350.5 m 0
 142 350.5 138.5 352.5 138.5 357.5 c 0
 138.5 362.5 147.5 374 169 412 c 0
 174.5 421.5 190 424.5 208.5 424.5 c 0
 227 424.5 236.5 423 236.5 418 c 0
 236.5 412.5 233.5 411.5 188 362 c 0
 183 356.5 175 350.5 153 350.5 c 0
174.5 -3.5 m 0
 70 -3.5 21 49 21 164 c 0
 21 275 73 330 176.5 330 c 0
 217.5 330 274 317 274 297.5 c 0
 274 284.5 255.5 253.5 243.5 253.5 c 0
 238 253.5 219.5 268.5 175 268.5 c 0xd0
 120 268.5 94.5 233.5 94.5 163.5 c 0
 94.5 93.5 120.5 57.5 174.5 57.5 c 0
 218.5 57.5 243.5 76 250.5 76 c 0
 265.5 76 278 43.5 278 35.5 c 0
 278 7.5 211.5 -3.5 174.5 -3.5 c 0
EndSplineSet
Validated: 524289
Substitution2: "'locl' Localized Forms in Latin lookup 14 subtable" Cacute.loclPLK
Substitution2: "'aalt' Access All Alternates lookup 0 subtable" Cacute.loclPLK
Position2: "'cpsp' Capital Spacing lookup 0 subtable" dx=5 dy=0 dh=10 dv=0
EndChar

StartChar: Ccaron
Encoding: 268 268 30
Width: 289
VWidth: 466
GlyphClass: 2
Flags: MW
HStem: -3.5 61<147.5 193> 268.5 61.5<147.5 197 124.75 197.25> 349 68<116.5 169 116.5 174>
VStem: 21 73.5<128.5 198.5 128.5 219.5>
AnchorPoint: "Anchor-1" 172 326 basechar 0
AnchorPoint: "Anchor-0" 174 0 basechar 0
LayerCount: 2
Back
Fore
SplineSet
169 349 m 2
 155.5 349 145.5 349.5 140.5 358 c 2
 110 405.5 l 2
 108.5 408 107.5 410.5 107.5 412.5 c 0
 107.5 415.5 110 417 116.5 417 c 2
 127 417 l 2
 140.5 417 151 415 158 405.5 c 2
 171 387.5 l 1
 184 406 l 2
 190.5 415 202.5 417 216 417 c 2
 226 417 l 2
 232 417 235.5 415.5 235.5 412.5 c 0
 235.5 410.5 234.5 408 232.5 405.5 c 2
 202.5 358 l 2
 197.5 349.5 187.5 349 174 349 c 2
 169 349 l 2
174.5 -3.5 m 0
 70 -3.5 21 49 21 164 c 0
 21 275 73 330 176.5 330 c 0
 217.5 330 274 317 274 297.5 c 0
 274 284.5 255.5 253.5 243.5 253.5 c 0
 238 253.5 219.5 268.5 175 268.5 c 0xd0
 120 268.5 94.5 233.5 94.5 163.5 c 0
 94.5 93.5 120.5 57.5 174.5 57.5 c 0
 218.5 57.5 243.5 76 250.5 76 c 0
 265.5 76 278 43.5 278 35.5 c 0
 278 7.5 211.5 -3.5 174.5 -3.5 c 0
EndSplineSet
Validated: 524289
Position2: "'cpsp' Capital Spacing lookup 0 subtable" dx=5 dy=0 dh=10 dv=0
EndChar

StartChar: Ccedilla
Encoding: 199 199 31
Width: 289
VWidth: 466
GlyphClass: 2
Flags: MW
HStem: -99 34<152.5 166 152.25 184> -3 60.5<188.5 188.5> 268.5 61.5<147.5 197 124.75 197.25>
VStem: 21 73.5<128.5 198.5 128.5 219.5> 173 48<-59.5 -51>
AnchorPoint: "Anchor-1" 172 326 basechar 0
AnchorPoint: "Anchor-0" 174 0 basechar 0
LayerCount: 2
Back
Fore
SplineSet
278 35.5 m 0
 278 11 226 -0.5 188.5 -3 c 1
 185 -17 l 1
 202 -19 221 -28.5 221 -52 c 0
 221 -84 202.5 -99 165.5 -99 c 0
 139.5 -99 104.5 -90.5 104.5 -75.5 c 0
 104.5 -59.5 116 -55 119.5 -55 c 0
 130 -55 142.5 -65 162 -65 c 0
 170 -65 173 -62 173 -57 c 0
 173 -45 148.5 -45.5 148.5 -34.5 c 0
 148.5 -32.5 149 -30.5 157.5 -3 c 1
 64.5 2.5 21 55.5 21 164 c 0
 21 275 73 330 176.5 330 c 0
 217.5 330 274 317 274 297.5 c 0
 274 284.5 255.5 253.5 243.5 253.5 c 0
 238 253.5 219.5 268.5 175 268.5 c 0
 120 268.5 94.5 233.5 94.5 163.5 c 0
 94.5 93.5 120.5 57.5 174.5 57.5 c 0
 218.5 57.5 243.5 76 250.5 76 c 0
 265.5 76 278 43.5 278 35.5 c 0
EndSplineSet
Validated: 524289
Position2: "'cpsp' Capital Spacing lookup 0 subtable" dx=5 dy=0 dh=10 dv=0
EndChar

StartChar: Ccircumflex
Encoding: 264 264 32
Width: 289
VWidth: 466
GlyphClass: 2
Flags: MW
HStem: -3.5 61<147.5 193> 268.5 61.5<147.5 197 124.75 197.25> 349 68<113.25 174 116.5 174 169 216 169 226>
VStem: 21 73.5<128.5 198.5 128.5 219.5>
AnchorPoint: "Anchor-1" 250 379 basechar 0
AnchorPoint: "Anchor-0" 174 0 basechar 0
LayerCount: 2
Back
Fore
SplineSet
116.5 349 m 2
 110 349 107.5 350.5 107.5 353.5 c 0
 107.5 355.5 108.5 358 110 360.5 c 2
 140.5 408 l 2
 145.5 416.5 155.5 417 169 417 c 2
 174 417 l 2
 187.5 417 197.5 416.5 202.5 408 c 2
 232.5 360.5 l 2
 234.5 358 235.5 355.5 235.5 353.5 c 0
 235.5 350.5 232 349 226 349 c 2
 216 349 l 2
 202.5 349 190.5 351.5 184 360 c 2
 171 379 l 1
 158 360.5 l 2
 151 351 140.5 349 127 349 c 2
 116.5 349 l 2
174.5 -3.5 m 0
 70 -3.5 21 49 21 164 c 0
 21 275 73 330 176.5 330 c 0
 217.5 330 274 317 274 297.5 c 0
 274 284.5 255.5 253.5 243.5 253.5 c 0
 238 253.5 219.5 268.5 175 268.5 c 0xd0
 120 268.5 94.5 233.5 94.5 163.5 c 0
 94.5 93.5 120.5 57.5 174.5 57.5 c 0
 218.5 57.5 243.5 76 250.5 76 c 0
 265.5 76 278 43.5 278 35.5 c 0
 278 7.5 211.5 -3.5 174.5 -3.5 c 0
EndSplineSet
Validated: 524289
Position2: "'cpsp' Capital Spacing lookup 0 subtable" dx=5 dy=0 dh=10 dv=0
EndChar

StartChar: Cdotaccent
Encoding: 266 266 33
Width: 289
VWidth: 466
GlyphClass: 2
Flags: MW
HStem: -3.5 61<147.5 193> 268.5 61.5<147.5 197 124.75 197.25> 352 42.5<143.5 181.25>
VStem: 21 73.5<128.5 198.5 128.5 219.5> 143.5 56<367 394.5 362 399.5>
AnchorPoint: "Anchor-1" 172 326 basechar 0
AnchorPoint: "Anchor-0" 174 0 basechar 0
LayerCount: 2
Back
Fore
SplineSet
171.5 352 m 0
 152 352 143.5 357 143.5 367 c 2
 143.5 394.5 l 2
 143.5 404.5 152 409.5 171.5 409.5 c 0
 191 409.5 199.5 404.5 199.5 394.5 c 2
 199.5 367 l 2
 199.5 357 191 352 171.5 352 c 0
174.5 -3.5 m 0
 70 -3.5 21 49 21 164 c 0
 21 275 73 330 176.5 330 c 0
 217.5 330 274 317 274 297.5 c 0
 274 284.5 255.5 253.5 243.5 253.5 c 0
 238 253.5 219.5 268.5 175 268.5 c 0xd8
 120 268.5 94.5 233.5 94.5 163.5 c 0
 94.5 93.5 120.5 57.5 174.5 57.5 c 0
 218.5 57.5 243.5 76 250.5 76 c 0
 265.5 76 278 43.5 278 35.5 c 0
 278 7.5 211.5 -3.5 174.5 -3.5 c 0
EndSplineSet
Validated: 524289
Position2: "'cpsp' Capital Spacing lookup 0 subtable" dx=5 dy=0 dh=10 dv=0
EndChar

StartChar: D
Encoding: 68 68 34
Width: 324
VWidth: 466
GlyphClass: 2
Flags: MW
HStem: 0 61<44.25 155 104.5 155 104.5 155> 265 61<104.5 155 104.5 104.5>
VStem: 32 72.5<61 61 61 265> 230.5 74<130 196.25>
AnchorPoint: "Anchor-1" 155 326 basechar 0
AnchorPoint: "Anchor-0" 154 0 basechar 0
LayerCount: 2
Back
Fore
SplineSet
51 0 m 2
 37.5 0 32 5.5 32 18.5 c 2
 32 307.5 l 2
 32 320.5 37.5 326 51 326 c 2
 155 326 l 2
 251 326 304.5 268.5 304.5 163 c 0
 304.5 58 251 0 155 0 c 2
 51 0 l 2
104.5 61 m 1
 155 61 l 2
 205 61 230.5 97 230.5 163 c 0
 230.5 229.5 205 265 155 265 c 2
 104.5 265 l 1
 104.5 61 l 1
EndSplineSet
Validated: 524289
Position2: "'cpsp' Capital Spacing lookup 0 subtable" dx=5 dy=0 dh=10 dv=0
EndChar

StartChar: uni01F1
Encoding: 497 497 35
Width: 611
VWidth: 466
GlyphClass: 2
Flags: MW
HStem: 0 61<44.25 155 104.5 155 104.5 155 438 580.5> 265 61<104.5 155 104.5 104.5 364 493.5>
VStem: 32 72.5<61 61 61 265> 230.5 74<130 196.25>
AnchorPoint: "Anchor-1" 468 326 basechar 0
AnchorPoint: "Anchor-0" 463 0 basechar 0
LayerCount: 2
Back
Fore
SplineSet
51 0 m 2
 37.5 0 32 5.5 32 18.5 c 2
 32 307.5 l 2
 32 320.5 37.5 326 51 326 c 2
 155 326 l 2
 251 326 304.5 268.5 304.5 163 c 0
 304.5 58 251 0 155 0 c 2
 51 0 l 2
355 0 m 2
 347 0 336.5 29 336.5 41.5 c 0
 336.5 43.5 337 45 337.5 46 c 2
 493.5 265 l 1
 364 265 l 2
 354.5 265 350 272 350 288.5 c 2
 350 303 l 2
 350 319 354.5 326 364 326 c 2
 577 326 l 2
 584.5 326 594.5 295.5 594.5 283.5 c 0
 594.5 281.5 594.5 280.5 594 279.5 c 2
 438 61 l 1
 580.5 61 l 2
 590 61 594.5 54 594.5 37.5 c 2
 594.5 23.5 l 2
 594.5 7 590 0 580.5 0 c 2
 355 0 l 2
104.5 61 m 1
 155 61 l 2
 205 61 230.5 97 230.5 163 c 0
 230.5 229.5 205 265 155 265 c 2
 104.5 265 l 1
 104.5 61 l 1
EndSplineSet
Validated: 524289
Position2: "'cpsp' Capital Spacing lookup 0 subtable" dx=5 dy=0 dh=10 dv=0
EndChar

StartChar: uni01C4
Encoding: 452 452 36
Width: 611
VWidth: 466
GlyphClass: 2
Flags: MW
HStem: 0 61<44.25 155 104.5 155 104.5 155 438 580.5> 265 61<104.5 155 104.5 104.5 364 493.5> 349 68<412.5 465 412.5 470>
VStem: 32 72.5<61 61 61 265> 230.5 74<130 196.25>
AnchorPoint: "Anchor-1" 468 326 basechar 0
AnchorPoint: "Anchor-0" 463 0 basechar 0
LayerCount: 2
Back
Fore
SplineSet
465 349 m 2
 451.5 349 441.5 349.5 436.5 358 c 2
 406 405.5 l 2
 404.5 408 403.5 410.5 403.5 412.5 c 0
 403.5 415.5 406 417 412.5 417 c 2
 423 417 l 2
 436.5 417 447 415 454 405.5 c 2
 467 387.5 l 1
 480 406 l 2
 486.5 415 498.5 417 512 417 c 2
 522 417 l 2
 528 417 531.5 415.5 531.5 412.5 c 0
 531.5 410.5 530.5 408 528.5 405.5 c 2
 498.5 358 l 2
 493.5 349.5 483.5 349 470 349 c 2
 465 349 l 2
51 0 m 2
 37.5 0 32 5.5 32 18.5 c 2
 32 307.5 l 2
 32 320.5 37.5 326 51 326 c 2
 155 326 l 2xd8
 251 326 304.5 268.5 304.5 163 c 0
 304.5 58 251 0 155 0 c 2
 51 0 l 2
355 0 m 2
 347 0 336.5 29 336.5 41.5 c 0
 336.5 43.5 337 45 337.5 46 c 2
 493.5 265 l 1
 364 265 l 2
 354.5 265 350 272 350 288.5 c 2
 350 303 l 2
 350 319 354.5 326 364 326 c 2
 577 326 l 2
 584.5 326 594.5 295.5 594.5 283.5 c 0
 594.5 281.5 594.5 280.5 594 279.5 c 2xd8
 438 61 l 1
 580.5 61 l 2
 590 61 594.5 54 594.5 37.5 c 2
 594.5 23.5 l 2
 594.5 7 590 0 580.5 0 c 2
 355 0 l 2
104.5 61 m 1
 155 61 l 2
 205 61 230.5 97 230.5 163 c 0
 230.5 229.5 205 265 155 265 c 2
 104.5 265 l 1xd8
 104.5 61 l 1
EndSplineSet
Validated: 524289
Position2: "'cpsp' Capital Spacing lookup 0 subtable" dx=5 dy=0 dh=10 dv=0
EndChar

StartChar: Eth
Encoding: 208 208 37
Width: 325
VWidth: 466
GlyphClass: 2
Flags: MW
HStem: 0 61<45 156 105.5 156 105.5 156> 135.5 60.5<14.75 33 19.5 33 105.5 133> 265 61<105.5 156 105.5 105.5>
VStem: 33 72.5<61 61 61 135.5 196 265> 231.5 73.5<130 196.25>
LayerCount: 2
Back
Fore
SplineSet
51.5 0 m 2
 38.5 0 33 5.5 33 18.5 c 2
 33 135.5 l 1
 19.5 135.5 l 2
 10 135.5 5.5 142.5 5.5 159 c 2
 5.5 173 l 2
 5.5 189 10 196 19.5 196 c 2
 33 196 l 1
 33 307.5 l 2
 33 320.5 38.5 326 51.5 326 c 2
 156 326 l 2
 252 326 305 268.5 305 163 c 0
 305 58 252 0 156 0 c 2
 51.5 0 l 2
105.5 61 m 1
 156 61 l 2
 206 61 231.5 97 231.5 163 c 0
 231.5 229.5 206 265 156 265 c 2
 105.5 265 l 1
 105.5 196 l 1
 133 196 l 2
 142.5 196 147 189 147 173 c 2
 147 159 l 2
 147 142.5 142.5 135.5 133 135.5 c 2
 105.5 135.5 l 1
 105.5 61 l 1
EndSplineSet
Validated: 524289
Position2: "'cpsp' Capital Spacing lookup 0 subtable" dx=5 dy=0 dh=10 dv=0
EndChar

StartChar: Dcaron
Encoding: 270 270 38
Width: 324
VWidth: 466
GlyphClass: 2
Flags: MW
HStem: 0 61<44.25 155 104.5 155 104.5 155> 265 61<104.5 155 104.5 104.5> 349 68<100 152.5 100 157.5>
VStem: 32 72.5<61 61 61 265> 230.5 74<130 196.25>
AnchorPoint: "Anchor-1" 155 326 basechar 0
AnchorPoint: "Anchor-0" 154 0 basechar 0
LayerCount: 2
Back
Fore
SplineSet
152.5 349 m 2
 139 349 129 349.5 124 358 c 2
 93.5 405.5 l 2
 92 408 91 410.5 91 412.5 c 0
 91 415.5 93.5 417 100 417 c 2
 110.5 417 l 2
 124 417 134.5 415 141.5 405.5 c 2
 154.5 387.5 l 1
 167.5 406 l 2
 174 415 186 417 199.5 417 c 2
 209.5 417 l 2
 215.5 417 219 415.5 219 412.5 c 0
 219 410.5 218 408 216 405.5 c 2
 186 358 l 2
 181 349.5 171 349 157.5 349 c 2
 152.5 349 l 2
51 0 m 2
 37.5 0 32 5.5 32 18.5 c 2
 32 307.5 l 2
 32 320.5 37.5 326 51 326 c 2
 155 326 l 2xd8
 251 326 304.5 268.5 304.5 163 c 0
 304.5 58 251 0 155 0 c 2
 51 0 l 2
104.5 61 m 1
 155 61 l 2
 205 61 230.5 97 230.5 163 c 0
 230.5 229.5 205 265 155 265 c 2
 104.5 265 l 1xd8
 104.5 61 l 1
EndSplineSet
Validated: 524289
Position2: "'cpsp' Capital Spacing lookup 0 subtable" dx=5 dy=0 dh=10 dv=0
EndChar

StartChar: Dcroat
Encoding: 272 272 39
Width: 325
VWidth: 466
GlyphClass: 2
Flags: MW
HStem: 0 61<45 156 105.5 156 105.5 156> 135.5 60.5<14.75 33 19.5 33 105.5 133> 265 61<105.5 156 105.5 105.5>
VStem: 33 72.5<61 61 61 135.5 196 265> 231.5 73.5<130 196.25>
LayerCount: 2
Back
Fore
SplineSet
51.5 0 m 2
 38.5 0 33 5.5 33 18.5 c 2
 33 135.5 l 1
 19.5 135.5 l 2
 10 135.5 5.5 142.5 5.5 159 c 2
 5.5 173 l 2
 5.5 189 10 196 19.5 196 c 2
 33 196 l 1
 33 307.5 l 2
 33 320.5 38.5 326 51.5 326 c 2
 156 326 l 2
 252 326 305 268.5 305 163 c 0
 305 58 252 0 156 0 c 2
 51.5 0 l 2
105.5 61 m 1
 156 61 l 2
 206 61 231.5 97 231.5 163 c 0
 231.5 229.5 206 265 156 265 c 2
 105.5 265 l 1
 105.5 196 l 1
 133 196 l 2
 142.5 196 147 189 147 173 c 2
 147 159 l 2
 147 142.5 142.5 135.5 133 135.5 c 2
 105.5 135.5 l 1
 105.5 61 l 1
EndSplineSet
Validated: 524289
Position2: "'cpsp' Capital Spacing lookup 0 subtable" dx=5 dy=0 dh=10 dv=0
EndChar

StartChar: uni1E0C
Encoding: 7692 7692 40
Width: 324
VWidth: 466
GlyphClass: 2
Flags: MW
HStem: -95 42.5<127 164.75> 0 61<44.25 155 104.5 155 104.5 155> 265 61<104.5 155 104.5 104.5>
VStem: 32 72.5<61 61 61 265> 127 56<-80 -52.5 -85 -47.5> 230.5 74<130 196.25>
AnchorPoint: "Anchor-1" 155 326 basechar 0
AnchorPoint: "Anchor-0" 155 -95 basechar 0
LayerCount: 2
Back
Fore
SplineSet
51 0 m 2
 37.5 0 32 5.5 32 18.5 c 2
 32 307.5 l 2
 32 320.5 37.5 326 51 326 c 2
 155 326 l 2
 251 326 304.5 268.5 304.5 163 c 0
 304.5 58 251 0 155 0 c 2
 51 0 l 2
104.5 61 m 1
 155 61 l 2
 205 61 230.5 97 230.5 163 c 0
 230.5 229.5 205 265 155 265 c 2
 104.5 265 l 1
 104.5 61 l 1
155 -95 m 0xfc
 135.5 -95 127 -90 127 -80 c 2
 127 -52.5 l 2
 127 -42.5 135.5 -37.5 155 -37.5 c 0
 174.5 -37.5 183 -42.5 183 -52.5 c 2
 183 -80 l 2
 183 -90 174.5 -95 155 -95 c 0xfc
EndSplineSet
Validated: 524289
Position2: "'cpsp' Capital Spacing lookup 0 subtable" dx=5 dy=0 dh=10 dv=0
EndChar

StartChar: uni01F2
Encoding: 498 498 41
Width: 552
VWidth: 466
GlyphClass: 2
Flags: MW
HStem: 0 54.5<429 524.5 429 524.5> 0 61<44.25 155 104.5 155 104.5 155> 189 54.5<353 523 358 444.5> 265 61<104.5 155 104.5 104.5>
VStem: 32 72.5<61 61 61 265> 230.5 74<130 196.25>
AnchorPoint: "Anchor-1" 438 244 basechar 0
AnchorPoint: "Anchor-0" 436 0 basechar 0
LayerCount: 2
Back
Fore
SplineSet
51 0 m 2xac
 37.5 0 32 5.5 32 18.5 c 2
 32 307.5 l 2
 32 320.5 37.5 326 51 326 c 2
 155 326 l 2xbc
 251 326 304.5 268.5 304.5 163 c 0
 304.5 58 251 0 155 0 c 2
 51 0 l 2xac
104.5 61 m 1x7c
 155 61 l 2
 205 61 230.5 97 230.5 163 c 0
 230.5 229.5 205 265 155 265 c 2
 104.5 265 l 1
 104.5 61 l 1x7c
350 0 m 2xac
 344 0 336.5 23.5 336.5 35.5 c 0
 336.5 38 337 40.5 338 42 c 2
 444.5 189 l 1
 358 189 l 2
 348 189 344 196 344 212.5 c 2
 344 220.5 l 2
 344 236.5 348 243.5 358 243.5 c 2
 523 243.5 l 2
 528 243.5 536.5 221 536.5 208 c 0
 536.5 204.5 536 202 535 201 c 2
 429 54.5 l 1
 524.5 54.5 l 2
 534 54.5 538.5 47.5 538.5 31 c 2
 538.5 23.5 l 2
 538.5 7 534 0 524.5 0 c 2
 350 0 l 2xac
EndSplineSet
Validated: 524289
Position2: "'cpsp' Capital Spacing lookup 0 subtable" dx=5 dy=0 dh=10 dv=0
EndChar

StartChar: uni01C5
Encoding: 453 453 42
Width: 552
VWidth: 466
GlyphClass: 2
Flags: MW
HStem: 0 54.5<429 524.5 429 524.5> 0 61<44.25 155 104.5 155 104.5 155> 189 54.5<353 523 358 444.5> 265 61<104.5 155 104.5 104.5> 266.5 68<383 435.5 383 440.5>
VStem: 32 72.5<61 61 61 265> 230.5 74<130 196.25>
AnchorPoint: "Anchor-1" 438 244 basechar 0
AnchorPoint: "Anchor-0" 436 0 basechar 0
LayerCount: 2
Back
Fore
SplineSet
435.5 266.5 m 2xae
 422 266.5 412 267 407 275.5 c 2
 376.5 323 l 2
 375 325.5 374 328 374 330 c 0
 374 333 376.5 334.5 383 334.5 c 2
 393.5 334.5 l 2
 407 334.5 417.5 332.5 424.5 323 c 2
 437.5 305 l 1
 450.5 323.5 l 2
 457 332.5 469 334.5 482.5 334.5 c 2
 492.5 334.5 l 2
 498.5 334.5 502 333 502 330 c 0
 502 328 501 325.5 499 323 c 2
 469 275.5 l 2
 464 267 454 266.5 440.5 266.5 c 2
 435.5 266.5 l 2xae
51 0 m 2
 37.5 0 32 5.5 32 18.5 c 2
 32 307.5 l 2
 32 320.5 37.5 326 51 326 c 2
 155 326 l 2xb6
 251 326 304.5 268.5 304.5 163 c 0
 304.5 58 251 0 155 0 c 2
 51 0 l 2
104.5 61 m 1x76
 155 61 l 2
 205 61 230.5 97 230.5 163 c 0
 230.5 229.5 205 265 155 265 c 2
 104.5 265 l 1
 104.5 61 l 1x76
350 0 m 2xa6
 344 0 336.5 23.5 336.5 35.5 c 0
 336.5 38 337 40.5 338 42 c 2
 444.5 189 l 1
 358 189 l 2
 348 189 344 196 344 212.5 c 2
 344 220.5 l 2
 344 236.5 348 243.5 358 243.5 c 2
 523 243.5 l 2
 528 243.5 536.5 221 536.5 208 c 0
 536.5 204.5 536 202 535 201 c 2
 429 54.5 l 1
 524.5 54.5 l 2
 534 54.5 538.5 47.5 538.5 31 c 2
 538.5 23.5 l 2
 538.5 7 534 0 524.5 0 c 2
 350 0 l 2xa6
EndSplineSet
Validated: 524289
Position2: "'cpsp' Capital Spacing lookup 0 subtable" dx=5 dy=0 dh=10 dv=0
EndChar

StartChar: E
Encoding: 69 69 43
Width: 255
VWidth: 466
GlyphClass: 2
Flags: MW
HStem: 0 61<44.25 222 104 222 104 222> 136.5 61<104 209 104 209> 265 61<104 221.5 104 104>
VStem: 32 72<61 136.5 197.5 265>
AnchorPoint: "Anchor-1" 138 326 basechar 0
AnchorPoint: "Anchor-0" 134 0 basechar 0
LayerCount: 2
Back
Fore
SplineSet
51 0 m 2
 37.5 0 32 5.5 32 18.5 c 2
 32 307.5 l 2
 32 320.5 37.5 326 51 326 c 2
 221.5 326 l 2
 231 326 235.5 319 235.5 303 c 2
 235.5 288.5 l 2
 235.5 272 231 265 221.5 265 c 2
 104 265 l 1
 104 197.5 l 1
 209 197.5 l 2
 218.5 197.5 222.5 190.5 222.5 174.5 c 2
 222.5 160 l 2
 222.5 143.5 218.5 136.5 209 136.5 c 2
 104 136.5 l 1
 104 61 l 1
 222 61 l 2
 231.5 61 236 54 236 37.5 c 2
 236 23.5 l 2
 236 7 231.5 0 222 0 c 2
 51 0 l 2
EndSplineSet
Validated: 524289
Position2: "'cpsp' Capital Spacing lookup 0 subtable" dx=5 dy=0 dh=10 dv=0
EndChar

StartChar: Eacute
Encoding: 201 201 44
Width: 255
VWidth: 466
GlyphClass: 2
Flags: MW
HStem: 0 61<44.25 222 104 222 104 222> 136.5 61<104 209 104 209> 265 61<104 221.5 104 104> 350.5 74<113.5 183.75>
VStem: 32 72<61 136.5 197.5 265>
AnchorPoint: "Anchor-1" 138 326 basechar 0
AnchorPoint: "Anchor-0" 134 0 basechar 0
LayerCount: 2
Back
Fore
SplineSet
119 350.5 m 0
 108 350.5 104.5 352.5 104.5 357.5 c 0
 104.5 362.5 113.5 374 135 412 c 0
 140.5 421.5 156 424.5 174.5 424.5 c 0
 193 424.5 202.5 423 202.5 418 c 0
 202.5 412.5 199.5 411.5 154 362 c 0
 149 356.5 141 350.5 119 350.5 c 0
51 0 m 2
 37.5 0 32 5.5 32 18.5 c 2
 32 307.5 l 2
 32 320.5 37.5 326 51 326 c 2
 221.5 326 l 2
 231 326 235.5 319 235.5 303 c 2
 235.5 288.5 l 2
 235.5 272 231 265 221.5 265 c 2
 104 265 l 1xe8
 104 197.5 l 1
 209 197.5 l 2
 218.5 197.5 222.5 190.5 222.5 174.5 c 2
 222.5 160 l 2
 222.5 143.5 218.5 136.5 209 136.5 c 2
 104 136.5 l 1
 104 61 l 1
 222 61 l 2
 231.5 61 236 54 236 37.5 c 2
 236 23.5 l 2
 236 7 231.5 0 222 0 c 2
 51 0 l 2
EndSplineSet
Validated: 524289
Position2: "'cpsp' Capital Spacing lookup 0 subtable" dx=5 dy=0 dh=10 dv=0
EndChar

StartChar: Ebreve
Encoding: 276 276 45
Width: 255
VWidth: 466
GlyphClass: 2
Flags: MW
HStem: 0 61<44.25 222 104 222 104 222> 136.5 61<104 209 104 209> 265 61<104 221.5 104 104> 350.5 42.5<125.75 150.25 125.75 157.75>
VStem: 32 72<61 136.5 197.5 265> 69 137<389.25 406.75>
AnchorPoint: "Anchor-1" 138 402 basechar 0
AnchorPoint: "Anchor-0" 134 0 basechar 0
LayerCount: 2
Back
Fore
SplineSet
137.5 350.5 m 0xf4
 97 350.5 69 376 69 402.5 c 0
 69 411 75 415.5 85.5 415.5 c 0
 93.5 415.5 96.5 412 101 407.5 c 0
 107 401 114 393 137.5 393 c 0
 163 393 169.5 401.5 175.5 408 c 0
 179 412.5 182.5 415.5 190 415.5 c 0
 200 415.5 206 411 206 402.5 c 0
 206 376 178 350.5 137.5 350.5 c 0xf4
51 0 m 2xe8
 37.5 0 32 5.5 32 18.5 c 2
 32 307.5 l 2
 32 320.5 37.5 326 51 326 c 2
 221.5 326 l 2
 231 326 235.5 319 235.5 303 c 2
 235.5 288.5 l 2
 235.5 272 231 265 221.5 265 c 2
 104 265 l 1
 104 197.5 l 1
 209 197.5 l 2
 218.5 197.5 222.5 190.5 222.5 174.5 c 2
 222.5 160 l 2
 222.5 143.5 218.5 136.5 209 136.5 c 2
 104 136.5 l 1
 104 61 l 1
 222 61 l 2
 231.5 61 236 54 236 37.5 c 2
 236 23.5 l 2
 236 7 231.5 0 222 0 c 2
 51 0 l 2xe8
EndSplineSet
Validated: 524289
Position2: "'cpsp' Capital Spacing lookup 0 subtable" dx=5 dy=0 dh=10 dv=0
EndChar

StartChar: Ecaron
Encoding: 282 282 46
Width: 255
VWidth: 466
GlyphClass: 2
Flags: MW
HStem: 0 61<44.25 222 104 222 104 222> 136.5 61<104 209 104 209> 265 61<104 221.5 104 104> 349 68<82.5 135 82.5 140>
VStem: 32 72<61 136.5 197.5 265>
AnchorPoint: "Anchor-1" 138 326 basechar 0
AnchorPoint: "Anchor-0" 134 0 basechar 0
LayerCount: 2
Back
Fore
SplineSet
135 349 m 2
 121.5 349 111.5 349.5 106.5 358 c 2
 76 405.5 l 2
 74.5 408 73.5 410.5 73.5 412.5 c 0
 73.5 415.5 76 417 82.5 417 c 2
 93 417 l 2
 106.5 417 117 415 124 405.5 c 2
 137 387.5 l 1
 150 406 l 2
 156.5 415 168.5 417 182 417 c 2
 192 417 l 2
 198 417 201.5 415.5 201.5 412.5 c 0
 201.5 410.5 200.5 408 198.5 405.5 c 2
 168.5 358 l 2
 163.5 349.5 153.5 349 140 349 c 2
 135 349 l 2
51 0 m 2
 37.5 0 32 5.5 32 18.5 c 2
 32 307.5 l 2
 32 320.5 37.5 326 51 326 c 2
 221.5 326 l 2
 231 326 235.5 319 235.5 303 c 2
 235.5 288.5 l 2
 235.5 272 231 265 221.5 265 c 2
 104 265 l 1xe8
 104 197.5 l 1
 209 197.5 l 2
 218.5 197.5 222.5 190.5 222.5 174.5 c 2
 222.5 160 l 2
 222.5 143.5 218.5 136.5 209 136.5 c 2
 104 136.5 l 1
 104 61 l 1
 222 61 l 2
 231.5 61 236 54 236 37.5 c 2
 236 23.5 l 2
 236 7 231.5 0 222 0 c 2
 51 0 l 2
EndSplineSet
Validated: 524289
Position2: "'cpsp' Capital Spacing lookup 0 subtable" dx=5 dy=0 dh=10 dv=0
EndChar

StartChar: Ecircumflex
Encoding: 202 202 47
Width: 255
VWidth: 466
GlyphClass: 2
Flags: MW
HStem: 0 61<44.25 222 104 222 104 222> 136.5 61<104 209 104 209> 265 61<104 221.5 104 104> 349 68<79.25 140 82.5 140 135 182 135 192>
VStem: 32 72<61 136.5 197.5 265>
AnchorPoint: "Anchor-1" 216 379 basechar 0
AnchorPoint: "Anchor-0" 134 0 basechar 0
LayerCount: 2
Back
Fore
SplineSet
82.5 349 m 2
 76 349 73.5 350.5 73.5 353.5 c 0
 73.5 355.5 74.5 358 76 360.5 c 2
 106.5 408 l 2
 111.5 416.5 121.5 417 135 417 c 2
 140 417 l 2
 153.5 417 163.5 416.5 168.5 408 c 2
 198.5 360.5 l 2
 200.5 358 201.5 355.5 201.5 353.5 c 0
 201.5 350.5 198 349 192 349 c 2
 182 349 l 2
 168.5 349 156.5 351.5 150 360 c 2
 137 379 l 1
 124 360.5 l 2
 117 351 106.5 349 93 349 c 2
 82.5 349 l 2
51 0 m 2
 37.5 0 32 5.5 32 18.5 c 2
 32 307.5 l 2
 32 320.5 37.5 326 51 326 c 2
 221.5 326 l 2
 231 326 235.5 319 235.5 303 c 2
 235.5 288.5 l 2
 235.5 272 231 265 221.5 265 c 2
 104 265 l 1xe8
 104 197.5 l 1
 209 197.5 l 2
 218.5 197.5 222.5 190.5 222.5 174.5 c 2
 222.5 160 l 2
 222.5 143.5 218.5 136.5 209 136.5 c 2
 104 136.5 l 1
 104 61 l 1
 222 61 l 2
 231.5 61 236 54 236 37.5 c 2
 236 23.5 l 2
 236 7 231.5 0 222 0 c 2
 51 0 l 2
EndSplineSet
Validated: 524289
Position2: "'cpsp' Capital Spacing lookup 0 subtable" dx=5 dy=0 dh=10 dv=0
EndChar

StartChar: uni1EBE
Encoding: 7870 7870 48
Width: 255
VWidth: 466
GlyphClass: 2
Flags: MW
HStem: 0 61<44.25 222 104 222 104 222> 136.5 61<104 209 104 209> 265 61<104 221.5 104 104> 349 68<79.25 140 82.5 140 135 175 135 185> 384.5 64.5<186.25 237.5>
VStem: 32 72<61 136.5 197.5 265>
AnchorPoint: "Anchor-1" 200 386 basechar 0
AnchorPoint: "Anchor-0" 134 0 basechar 0
LayerCount: 2
Back
Fore
SplineSet
190 384.5 m 0xf4
 182.5 384.5 180.5 386.5 180.5 391.5 c 0xf4
 180.5 395.5 185 405.5 196.5 436.5 c 0
 202 446.5 215.5 449 231.5 449 c 0
 243.5 449 250 447 250 438 c 0xec
 250 433.5 244 426 215.5 391.5 c 0
 212 387.5 206.5 384.5 190 384.5 c 0xf4
82.5 349 m 2
 76 349 73.5 350.5 73.5 353.5 c 0
 73.5 355.5 74.5 358 76 360.5 c 2
 106.5 408 l 2
 111.5 416.5 121.5 417 135 417 c 2
 140 417 l 2
 151 417 159 416.5 164 408 c 2
 191.5 360.5 l 2
 193.5 358 194.5 355.5 194.5 353.5 c 0
 194.5 350.5 191.5 349 185 349 c 2
 175 349 l 2
 161.5 349 146.5 350.5 143.5 360 c 2
 137 379 l 1
 124 360.5 l 2
 117 351 106.5 349 93 349 c 2
 82.5 349 l 2
51 0 m 2xe4
 37.5 0 32 5.5 32 18.5 c 2
 32 307.5 l 2
 32 320.5 37.5 326 51 326 c 2
 221.5 326 l 2
 231 326 235.5 319 235.5 303 c 2
 235.5 288.5 l 2
 235.5 272 231 265 221.5 265 c 2
 104 265 l 1
 104 197.5 l 1
 209 197.5 l 2
 218.5 197.5 222.5 190.5 222.5 174.5 c 2
 222.5 160 l 2
 222.5 143.5 218.5 136.5 209 136.5 c 2
 104 136.5 l 1
 104 61 l 1
 222 61 l 2
 231.5 61 236 54 236 37.5 c 2
 236 23.5 l 2
 236 7 231.5 0 222 0 c 2
 51 0 l 2xe4
EndSplineSet
Validated: 524289
Position2: "'cpsp' Capital Spacing lookup 0 subtable" dx=5 dy=0 dh=10 dv=0
EndChar

StartChar: uni1EC6
Encoding: 7878 7878 49
Width: 255
VWidth: 466
GlyphClass: 2
Flags: MW
HStem: -95 42.5<106.5 144.25> 0 61<44.25 222 104 222 104 222> 136.5 61<104 209 104 209> 265 61<104 221.5 104 104> 349 68<79.25 140 82.5 140 135 182 135 192>
VStem: 32 72<61 136.5 197.5 265> 106.5 56<-80 -52.5 -85 -47.5>
AnchorPoint: "Anchor-1" 216 379 basechar 0
AnchorPoint: "Anchor-0" 135 -95 basechar 0
LayerCount: 2
Back
Fore
SplineSet
82.5 349 m 2
 76 349 73.5 350.5 73.5 353.5 c 0
 73.5 355.5 74.5 358 76 360.5 c 2
 106.5 408 l 2
 111.5 416.5 121.5 417 135 417 c 2
 140 417 l 2
 153.5 417 163.5 416.5 168.5 408 c 2
 198.5 360.5 l 2
 200.5 358 201.5 355.5 201.5 353.5 c 0
 201.5 350.5 198 349 192 349 c 2
 182 349 l 2
 168.5 349 156.5 351.5 150 360 c 2
 137 379 l 1
 124 360.5 l 2
 117 351 106.5 349 93 349 c 2
 82.5 349 l 2
51 0 m 2
 37.5 0 32 5.5 32 18.5 c 2
 32 307.5 l 2
 32 320.5 37.5 326 51 326 c 2
 221.5 326 l 2
 231 326 235.5 319 235.5 303 c 2
 235.5 288.5 l 2
 235.5 272 231 265 221.5 265 c 2
 104 265 l 1xf4
 104 197.5 l 1
 209 197.5 l 2
 218.5 197.5 222.5 190.5 222.5 174.5 c 2
 222.5 160 l 2
 222.5 143.5 218.5 136.5 209 136.5 c 2
 104 136.5 l 1
 104 61 l 1
 222 61 l 2
 231.5 61 236 54 236 37.5 c 2
 236 23.5 l 2
 236 7 231.5 0 222 0 c 2
 51 0 l 2
134.5 -95 m 0xf2
 115 -95 106.5 -90 106.5 -80 c 2
 106.5 -52.5 l 2
 106.5 -42.5 115 -37.5 134.5 -37.5 c 0
 154 -37.5 162.5 -42.5 162.5 -52.5 c 2
 162.5 -80 l 2
 162.5 -90 154 -95 134.5 -95 c 0xf2
EndSplineSet
Validated: 524289
Position2: "'cpsp' Capital Spacing lookup 0 subtable" dx=5 dy=0 dh=10 dv=0
EndChar

StartChar: uni1EC0
Encoding: 7872 7872 50
Width: 255
VWidth: 466
GlyphClass: 2
Flags: MW
HStem: 0 61<44.25 222 104 222 104 222> 136.5 61<104 209 104 209> 265 61<104 221.5 104 104> 349 68<79.25 140 82.5 140 135 175 135 185> 384 64.5<161 214.25>
VStem: 32 72<61 136.5 197.5 265>
AnchorPoint: "Anchor-1" 200 386 basechar 0
AnchorPoint: "Anchor-0" 134 0 basechar 0
LayerCount: 2
Back
Fore
SplineSet
208.5 384 m 0xec
 191 384 184.5 390 179.5 395.5 c 0xec
 148 436.5 146 437.5 146 442 c 0
 146 447.5 154 448.5 168 448.5 c 0
 186.5 448.5 203.5 446 207.5 436 c 0xf4
 220 406 223 395 223 391 c 0
 223 386 220 384 208.5 384 c 0xec
82.5 349 m 2xf4
 76 349 73.5 350.5 73.5 353.5 c 0
 73.5 355.5 74.5 358 76 360.5 c 2
 106.5 408 l 2
 111.5 416.5 121.5 417 135 417 c 2
 140 417 l 2
 151 417 159 416.5 164 408 c 2
 191.5 360.5 l 2
 193.5 358 194.5 355.5 194.5 353.5 c 0
 194.5 350.5 191.5 349 185 349 c 2
 175 349 l 2
 161.5 349 146.5 350.5 143.5 360 c 2
 137 379 l 1
 124 360.5 l 2
 117 351 106.5 349 93 349 c 2
 82.5 349 l 2xf4
51 0 m 2
 37.5 0 32 5.5 32 18.5 c 2
 32 307.5 l 2
 32 320.5 37.5 326 51 326 c 2
 221.5 326 l 2
 231 326 235.5 319 235.5 303 c 2
 235.5 288.5 l 2
 235.5 272 231 265 221.5 265 c 2
 104 265 l 1xec
 104 197.5 l 1
 209 197.5 l 2
 218.5 197.5 222.5 190.5 222.5 174.5 c 2
 222.5 160 l 2
 222.5 143.5 218.5 136.5 209 136.5 c 2
 104 136.5 l 1
 104 61 l 1
 222 61 l 2
 231.5 61 236 54 236 37.5 c 2
 236 23.5 l 2
 236 7 231.5 0 222 0 c 2
 51 0 l 2
EndSplineSet
Validated: 524289
Position2: "'cpsp' Capital Spacing lookup 0 subtable" dx=5 dy=0 dh=10 dv=0
EndChar

StartChar: uni1EC2
Encoding: 7874 7874 51
Width: 255
VWidth: 466
GlyphClass: 2
Flags: MW
HStem: 0 61<44.25 222 104 222 104 222> 136.5 61<104 209 104 209> 265 61<104 221.5 104 104> 349 68<79.25 140 82.5 140 168.25 171.75 135 175 135 185> 417 33<167.75 206.5>
VStem: 32 72<61 136.5 197.5 265> 204 32.5<415.25 419.75>
AnchorPoint: "Anchor-1" 200 451 basechar 0
AnchorPoint: "Anchor-0" 134 0 basechar 0
LayerCount: 2
Back
Fore
SplineSet
201.5 387 m 0xf6
 189 387 181 391.5 181 396.5 c 0
 181 398.5 185 402 189.5 404 c 0xf6
 198.5 408.5 204 410.5 204 417 c 0
 204 422.5 199 425 194.5 425 c 0
 179 425 174 417 169.5 417 c 0
 166 417 155.5 429.5 155.5 436.5 c 0
 155.5 443 176.5 450 193 450 c 0
 220 450 236.5 437.5 236.5 419 c 0xee
 236.5 411.5 233.5 404.5 224 397 c 0
 219.5 393.5 209.5 387 201.5 387 c 0xf6
82.5 349 m 2
 76 349 73.5 350.5 73.5 353.5 c 0
 73.5 355.5 74.5 358 76 360.5 c 2
 106.5 408 l 2
 111.5 416.5 121.5 417 135 417 c 2
 140 417 l 2
 151 417 159 416.5 164 408 c 2
 191.5 360.5 l 2
 193.5 358 194.5 355.5 194.5 353.5 c 0
 194.5 350.5 191.5 349 185 349 c 2
 175 349 l 2
 161.5 349 146.5 350.5 143.5 360 c 2
 137 379 l 1
 124 360.5 l 2
 117 351 106.5 349 93 349 c 2
 82.5 349 l 2
51 0 m 2xec
 37.5 0 32 5.5 32 18.5 c 2
 32 307.5 l 2
 32 320.5 37.5 326 51 326 c 2
 221.5 326 l 2
 231 326 235.5 319 235.5 303 c 2
 235.5 288.5 l 2
 235.5 272 231 265 221.5 265 c 2
 104 265 l 1
 104 197.5 l 1
 209 197.5 l 2
 218.5 197.5 222.5 190.5 222.5 174.5 c 2
 222.5 160 l 2
 222.5 143.5 218.5 136.5 209 136.5 c 2
 104 136.5 l 1
 104 61 l 1
 222 61 l 2
 231.5 61 236 54 236 37.5 c 2
 236 23.5 l 2
 236 7 231.5 0 222 0 c 2
 51 0 l 2xec
EndSplineSet
Validated: 524289
Position2: "'cpsp' Capital Spacing lookup 0 subtable" dx=5 dy=0 dh=10 dv=0
EndChar

StartChar: uni1EC4
Encoding: 7876 7876 52
Width: 255
VWidth: 466
GlyphClass: 2
Flags: MW
HStem: 0 61<44.25 222 104 222 104 222> 136.5 61<104 209 104 209> 265 61<104 221.5 104 104> 349 57<79.25 140 82.5 140 135 182 135 192> 421 39<166 167.75 166 176.25> 434.5 39<102.75 104.5>
VStem: 32 72<61 136.5 197.5 265>
AnchorPoint: "Anchor-1" 138 326 basechar 0
AnchorPoint: "Anchor-0" 134 0 basechar 0
LayerCount: 2
Back
Fore
SplineSet
73.5 420.5 m 2xea
 68.5 421.5 l 2xea
 61.5 424 59 429 59 434.5 c 0
 59 436.5 59.5 439 60 441 c 0
 66 457.5 82 473.5 106.5 473.5 c 0xe6
 121 473.5 152 461 166 460 c 0xea
 169.5 460 175 461 180 467.5 c 0
 184.5 473.5 188 475.5 192 475.5 c 0
 193.5 475.5 195.5 475 197 474.5 c 2
 202 473 l 2xe6
 209 470.5 211.5 465.5 211.5 460.5 c 0
 211.5 458 211 455.5 210.5 454 c 0
 204.5 437 188.5 421 164 421 c 0xea
 149.5 421 118.5 434 104.5 434.5 c 0xe6
 101 434.5 95.5 434 90.5 427.5 c 0
 86 421 82.5 419.5 78.5 419.5 c 0
 77 419.5 75 419.5 73.5 420.5 c 2xea
82.5 349 m 2xfa
 76 349 73.5 350.5 73.5 353.5 c 0
 73.5 355.5 74.5 358 76 360.5 c 2
 106.5 397 l 2
 113.5 404.5 121.5 406 135 406 c 2
 140 406 l 2
 153.5 406 161.5 404.5 168.5 397 c 2
 198.5 360.5 l 2
 200.5 358 201.5 355.5 201.5 353.5 c 0
 201.5 350.5 198 349 192 349 c 2
 182 349 l 2
 168.5 349 160 354 150 360 c 2
 137 373 l 1
 124 360.5 l 2
 113 354 106.5 349 93 349 c 2
 82.5 349 l 2xfa
51 0 m 2
 37.5 0 32 5.5 32 18.5 c 2
 32 307.5 l 2
 32 320.5 37.5 326 51 326 c 2
 221.5 326 l 2
 231 326 235.5 319 235.5 303 c 2
 235.5 288.5 l 2
 235.5 272 231 265 221.5 265 c 2
 104 265 l 1xea
 104 197.5 l 1
 209 197.5 l 2
 218.5 197.5 222.5 190.5 222.5 174.5 c 2
 222.5 160 l 2
 222.5 143.5 218.5 136.5 209 136.5 c 2
 104 136.5 l 1
 104 61 l 1
 222 61 l 2
 231.5 61 236 54 236 37.5 c 2
 236 23.5 l 2
 236 7 231.5 0 222 0 c 2
 51 0 l 2
EndSplineSet
Validated: 524289
Position2: "'cpsp' Capital Spacing lookup 0 subtable" dx=5 dy=0 dh=10 dv=0
EndChar

StartChar: Edieresis
Encoding: 203 203 53
Width: 255
VWidth: 466
GlyphClass: 2
Flags: MW
HStem: 0 61<44.25 222 104 222 104 222> 136.5 61<104 209 104 209> 265 61<104 221.5 104 104> 352 42.5<67.5 105.25>
VStem: 32 72<61 136.5 197.5 265> 67.5 56<367 394.5 362 399.5> 151.5 56<367 394.5 362 399.5>
AnchorPoint: "Anchor-1" 138 326 basechar 0
AnchorPoint: "Anchor-0" 134 0 basechar 0
LayerCount: 2
Back
Fore
SplineSet
95.5 352 m 0xf6
 76 352 67.5 357 67.5 367 c 2
 67.5 394.5 l 2
 67.5 404.5 76 409.5 95.5 409.5 c 0
 115 409.5 123.5 404.5 123.5 394.5 c 2
 123.5 367 l 2
 123.5 357 115 352 95.5 352 c 0xf6
179.5 352 m 0xfa
 160 352 151.5 357 151.5 367 c 2
 151.5 394.5 l 2
 151.5 404.5 160 409.5 179.5 409.5 c 0
 199 409.5 207.5 404.5 207.5 394.5 c 2
 207.5 367 l 2
 207.5 357 199 352 179.5 352 c 0xfa
51 0 m 2
 37.5 0 32 5.5 32 18.5 c 2
 32 307.5 l 2
 32 320.5 37.5 326 51 326 c 2
 221.5 326 l 2
 231 326 235.5 319 235.5 303 c 2
 235.5 288.5 l 2
 235.5 272 231 265 221.5 265 c 2
 104 265 l 1xea
 104 197.5 l 1
 209 197.5 l 2
 218.5 197.5 222.5 190.5 222.5 174.5 c 2
 222.5 160 l 2
 222.5 143.5 218.5 136.5 209 136.5 c 2
 104 136.5 l 1
 104 61 l 1
 222 61 l 2
 231.5 61 236 54 236 37.5 c 2
 236 23.5 l 2
 236 7 231.5 0 222 0 c 2
 51 0 l 2
EndSplineSet
Validated: 524289
Position2: "'cpsp' Capital Spacing lookup 0 subtable" dx=5 dy=0 dh=10 dv=0
EndChar

StartChar: Edotaccent
Encoding: 278 278 54
Width: 255
VWidth: 466
GlyphClass: 2
Flags: MW
HStem: 0 61<44.25 222 104 222 104 222> 136.5 61<104 209 104 209> 265 61<104 221.5 104 104> 352 42.5<109.5 147.25>
VStem: 32 72<61 136.5 197.5 265> 109.5 56<367 394.5 362 399.5>
AnchorPoint: "Anchor-1" 138 326 basechar 0
AnchorPoint: "Anchor-0" 134 0 basechar 0
LayerCount: 2
Back
Fore
SplineSet
137.5 352 m 0
 118 352 109.5 357 109.5 367 c 2
 109.5 394.5 l 2
 109.5 404.5 118 409.5 137.5 409.5 c 0
 157 409.5 165.5 404.5 165.5 394.5 c 2
 165.5 367 l 2
 165.5 357 157 352 137.5 352 c 0
51 0 m 2xe8
 37.5 0 32 5.5 32 18.5 c 2
 32 307.5 l 2
 32 320.5 37.5 326 51 326 c 2
 221.5 326 l 2
 231 326 235.5 319 235.5 303 c 2
 235.5 288.5 l 2
 235.5 272 231 265 221.5 265 c 2
 104 265 l 1
 104 197.5 l 1
 209 197.5 l 2
 218.5 197.5 222.5 190.5 222.5 174.5 c 2
 222.5 160 l 2
 222.5 143.5 218.5 136.5 209 136.5 c 2
 104 136.5 l 1
 104 61 l 1
 222 61 l 2
 231.5 61 236 54 236 37.5 c 2
 236 23.5 l 2
 236 7 231.5 0 222 0 c 2
 51 0 l 2xe8
EndSplineSet
Validated: 524289
Position2: "'cpsp' Capital Spacing lookup 0 subtable" dx=5 dy=0 dh=10 dv=0
EndChar

StartChar: uni1EB8
Encoding: 7864 7864 55
Width: 255
VWidth: 466
GlyphClass: 2
Flags: MW
HStem: -95 42.5<106.5 144.25> 0 61<44.25 222 104 222 104 222> 136.5 61<104 209 104 209> 265 61<104 221.5 104 104>
VStem: 32 72<61 136.5 197.5 265> 106.5 56<-80 -52.5 -85 -47.5>
AnchorPoint: "Anchor-1" 138 326 basechar 0
AnchorPoint: "Anchor-0" 135 -95 basechar 0
LayerCount: 2
Back
Fore
SplineSet
51 0 m 2
 37.5 0 32 5.5 32 18.5 c 2
 32 307.5 l 2
 32 320.5 37.5 326 51 326 c 2
 221.5 326 l 2
 231 326 235.5 319 235.5 303 c 2
 235.5 288.5 l 2
 235.5 272 231 265 221.5 265 c 2
 104 265 l 1
 104 197.5 l 1
 209 197.5 l 2
 218.5 197.5 222.5 190.5 222.5 174.5 c 2
 222.5 160 l 2
 222.5 143.5 218.5 136.5 209 136.5 c 2
 104 136.5 l 1
 104 61 l 1
 222 61 l 2
 231.5 61 236 54 236 37.5 c 2
 236 23.5 l 2
 236 7 231.5 0 222 0 c 2
 51 0 l 2
134.5 -95 m 0xf4
 115 -95 106.5 -90 106.5 -80 c 2
 106.5 -52.5 l 2
 106.5 -42.5 115 -37.5 134.5 -37.5 c 0
 154 -37.5 162.5 -42.5 162.5 -52.5 c 2
 162.5 -80 l 2
 162.5 -90 154 -95 134.5 -95 c 0xf4
EndSplineSet
Validated: 524289
Position2: "'cpsp' Capital Spacing lookup 0 subtable" dx=5 dy=0 dh=10 dv=0
EndChar

StartChar: Egrave
Encoding: 200 200 56
Width: 255
VWidth: 466
GlyphClass: 2
Flags: MW
HStem: 0 61<44.25 222 104 222 104 222> 136.5 61<104 209 104 209> 265 61<104 221.5 104 104> 350.5 74<93.75 164.25>
VStem: 32 72<61 136.5 197.5 265>
AnchorPoint: "Anchor-1" 138 326 basechar 0
AnchorPoint: "Anchor-0" 134 0 basechar 0
LayerCount: 2
Back
Fore
SplineSet
158.5 350.5 m 0
 136.5 350.5 129 356.5 123.5 362 c 0
 78.5 411.5 75 412.5 75 418 c 0
 75 423 84.5 424.5 103 424.5 c 0
 122 424.5 137 421.5 142.5 412 c 0
 164 374 173 362.5 173 357.5 c 0
 173 352.5 170 350.5 158.5 350.5 c 0
51 0 m 2
 37.5 0 32 5.5 32 18.5 c 2
 32 307.5 l 2
 32 320.5 37.5 326 51 326 c 2
 221.5 326 l 2
 231 326 235.5 319 235.5 303 c 2
 235.5 288.5 l 2
 235.5 272 231 265 221.5 265 c 2
 104 265 l 1xe8
 104 197.5 l 1
 209 197.5 l 2
 218.5 197.5 222.5 190.5 222.5 174.5 c 2
 222.5 160 l 2
 222.5 143.5 218.5 136.5 209 136.5 c 2
 104 136.5 l 1
 104 61 l 1
 222 61 l 2
 231.5 61 236 54 236 37.5 c 2
 236 23.5 l 2
 236 7 231.5 0 222 0 c 2
 51 0 l 2
EndSplineSet
Validated: 524289
Position2: "'cpsp' Capital Spacing lookup 0 subtable" dx=5 dy=0 dh=10 dv=0
EndChar

StartChar: uni1EBA
Encoding: 7866 7866 57
Width: 255
VWidth: 466
GlyphClass: 2
Flags: MW
HStem: 0 61<44.25 222 104 222 104 222> 136.5 61<104 209 104 209> 265 61<104 221.5 104 104> 404 28.5<135.25 143.75>
VStem: 32 72<61 136.5 197.5 265> 154.5 41<387 397.25>
AnchorPoint: "Anchor-1" 138 409 basechar 0
AnchorPoint: "Anchor-0" 134 0 basechar 0
LayerCount: 2
Back
Fore
SplineSet
148.5 348 m 0
 137.5 348 123.5 355 123.5 359 c 0
 123.5 367 154.5 380 154.5 394 c 0
 154.5 400.5 147.5 404 140 404 c 0
 129.5 404 124.5 398.5 120.5 398.5 c 0
 116.5 398.5 106.5 411 106.5 418 c 0
 106.5 424 127 432.5 143.5 432.5 c 0
 177 432.5 195.5 418.5 195.5 395.5 c 0
 195.5 371 157 348 148.5 348 c 0
51 0 m 2
 37.5 0 32 5.5 32 18.5 c 2
 32 307.5 l 2
 32 320.5 37.5 326 51 326 c 2
 221.5 326 l 2
 231 326 235.5 319 235.5 303 c 2
 235.5 288.5 l 2
 235.5 272 231 265 221.5 265 c 2
 104 265 l 1
 104 197.5 l 1
 209 197.5 l 2
 218.5 197.5 222.5 190.5 222.5 174.5 c 2
 222.5 160 l 2
 222.5 143.5 218.5 136.5 209 136.5 c 2
 104 136.5 l 1
 104 61 l 1
 222 61 l 2
 231.5 61 236 54 236 37.5 c 2
 236 23.5 l 2
 236 7 231.5 0 222 0 c 2
 51 0 l 2
EndSplineSet
Validated: 524289
Position2: "'cpsp' Capital Spacing lookup 0 subtable" dx=5 dy=0 dh=10 dv=0
EndChar

StartChar: Emacron
Encoding: 274 274 58
Width: 255
VWidth: 466
GlyphClass: 2
Flags: MW
HStem: 0 61<44.25 222 104 222 104 222> 136.5 61<104 209 104 209> 265 61<104 221.5 104 104> 360.5 44.5<82.5 187.5 87.5 187.5>
VStem: 32 72<61 136.5 197.5 265> 73.5 128<379.5 386.5 373 393>
AnchorPoint: "Anchor-1" 138 326 basechar 0
AnchorPoint: "Anchor-0" 134 0 basechar 0
LayerCount: 2
Back
Fore
SplineSet
87.5 360.5 m 2xf4
 77.5 360.5 73.5 366.5 73.5 379.5 c 2
 73.5 386.5 l 2
 73.5 399.5 77.5 405 87.5 405 c 2
 187.5 405 l 2
 197 405 201.5 399.5 201.5 386.5 c 2
 201.5 379.5 l 2
 201.5 366.5 197 360.5 187.5 360.5 c 2
 87.5 360.5 l 2xf4
51 0 m 2xf8
 37.5 0 32 5.5 32 18.5 c 2
 32 307.5 l 2
 32 320.5 37.5 326 51 326 c 2
 221.5 326 l 2
 231 326 235.5 319 235.5 303 c 2
 235.5 288.5 l 2
 235.5 272 231 265 221.5 265 c 2
 104 265 l 1
 104 197.5 l 1
 209 197.5 l 2
 218.5 197.5 222.5 190.5 222.5 174.5 c 2
 222.5 160 l 2
 222.5 143.5 218.5 136.5 209 136.5 c 2
 104 136.5 l 1
 104 61 l 1
 222 61 l 2
 231.5 61 236 54 236 37.5 c 2
 236 23.5 l 2
 236 7 231.5 0 222 0 c 2
 51 0 l 2xf8
EndSplineSet
Validated: 524289
Position2: "'cpsp' Capital Spacing lookup 0 subtable" dx=5 dy=0 dh=10 dv=0
EndChar

StartChar: Eogonek
Encoding: 280 280 59
Width: 255
VWidth: 466
GlyphClass: 2
Flags: MW
HStem: -85.5 33<239 248> 0 61<44.25 222 104 196 220.5 220.5 220.5 222> 136.5 61<104 209 104 209> 265 61<104 221.5 104 104>
VStem: 32 72<61 136.5 197.5 265> 184 31.5<-40.25 -33.75>
AnchorPoint: "Anchor-1" 138 326 basechar 0
AnchorPoint: "Anchor-0" 134 0 basechar 0
LayerCount: 2
Back
Fore
SplineSet
267 -49 m 0
 273.5 -49 277.5 -53 277.5 -62 c 0
 277.5 -81.5 257 -85.5 239 -85.5 c 0
 189.5 -85.5 184 -51.5 184 -37.5 c 0
 184 -30 186 -10.5 196 0 c 1
 51 0 l 2
 37.5 0 32 5.5 32 18.5 c 2
 32 307.5 l 2
 32 320.5 37.5 326 51 326 c 2
 221.5 326 l 2
 231 326 235.5 319 235.5 303 c 2
 235.5 288.5 l 2
 235.5 272 231 265 221.5 265 c 2
 104 265 l 1
 104 197.5 l 1
 209 197.5 l 2
 218.5 197.5 222.5 190.5 222.5 174.5 c 2
 222.5 160 l 2
 222.5 143.5 218.5 136.5 209 136.5 c 2
 104 136.5 l 1
 104 61 l 1
 222 61 l 2
 231.5 61 236 54 236 37.5 c 2
 236 23.5 l 2
 236 7 231.5 0 222 0 c 2
 220.5 0 l 1
 220.5 -2.5 l 2
 220.5 -9.5 215.5 -15.5 215.5 -29 c 0
 215.5 -51.5 233.5 -52.5 244.5 -52.5 c 0
 256 -52.5 258.5 -49 267 -49 c 0
EndSplineSet
Validated: 524289
Position2: "'cpsp' Capital Spacing lookup 0 subtable" dx=5 dy=0 dh=10 dv=0
EndChar

StartChar: uni1EBC
Encoding: 7868 7868 60
Width: 255
VWidth: 466
GlyphClass: 2
Flags: MW
HStem: 0 61<44.25 222 104 222 104 222> 136.5 61<104 209 104 209> 265 61<104 221.5 104 104> 353.5 39<166 168 166 177.25> 367 39<96.5 98.5>
VStem: 32 72<61 136.5 197.5 265>
AnchorPoint: "Anchor-1" 138 326 basechar 0
AnchorPoint: "Anchor-0" 134 0 basechar 0
LayerCount: 2
Back
Fore
SplineSet
64 353 m 2xf4
 58.5 354 l 2xf4
 51 356.5 48.5 361.5 48.5 367 c 0
 48.5 369 49 371.5 49.5 373.5 c 0
 56 390 73.5 406 100.5 406 c 0xec
 116.5 406 150.5 393.5 166 392.5 c 0xf4
 170 392.5 176 393.5 181.5 400 c 0
 186.5 406 190 408 194.5 408 c 0
 196 408 198.5 407.5 200 407 c 2
 205.5 405.5 l 2xec
 213.5 403 216 398 216 393 c 0
 216 390.5 215.5 388 215 386.5 c 0
 208.5 369.5 190.5 353.5 164 353.5 c 0xf4
 148 353.5 113.5 366.5 98.5 367 c 0xec
 94.5 367 88.5 366.5 83 360 c 0
 78 353.5 74 352 69.5 352 c 0
 68 352 66 352 64 353 c 2xf4
51 0 m 2xe4
 37.5 0 32 5.5 32 18.5 c 2
 32 307.5 l 2
 32 320.5 37.5 326 51 326 c 2
 221.5 326 l 2
 231 326 235.5 319 235.5 303 c 2
 235.5 288.5 l 2
 235.5 272 231 265 221.5 265 c 2
 104 265 l 1
 104 197.5 l 1
 209 197.5 l 2
 218.5 197.5 222.5 190.5 222.5 174.5 c 2
 222.5 160 l 2
 222.5 143.5 218.5 136.5 209 136.5 c 2
 104 136.5 l 1
 104 61 l 1
 222 61 l 2
 231.5 61 236 54 236 37.5 c 2
 236 23.5 l 2
 236 7 231.5 0 222 0 c 2
 51 0 l 2xe4
EndSplineSet
Validated: 524289
Position2: "'cpsp' Capital Spacing lookup 0 subtable" dx=5 dy=0 dh=10 dv=0
EndChar

StartChar: F
Encoding: 70 70 61
Width: 235
VWidth: 466
GlyphClass: 2
Flags: MW
HStem: -1 21G<50.25 60 60 76> 136 61<104 203 104 203> 265 61<104 206.5 104 104>
VStem: 32 72<14 136 197 265>
LayerCount: 2
Back
Fore
SplineSet
60 -1 m 2
 40.5 -1 32 4 32 14 c 2
 32 307.5 l 2
 32 320.5 37.5 326 51 326 c 2
 206.5 326 l 2
 216 326 220.5 319 220.5 303 c 2
 220.5 288.5 l 2
 220.5 272 216 265 206.5 265 c 2
 104 265 l 1
 104 197 l 1
 203 197 l 2
 213 197 217 190 217 174 c 2
 217 159.5 l 2
 217 143 213 136 203 136 c 2
 104 136 l 1
 104 14 l 2
 104 4 95.5 -1 76 -1 c 2
 60 -1 l 2
EndSplineSet
Validated: 524289
Position2: "'cpsp' Capital Spacing lookup 0 subtable" dx=5 dy=0 dh=10 dv=0
EndChar

StartChar: G
Encoding: 71 71 62
Width: 313
VWidth: 466
GlyphClass: 2
Flags: MW
HStem: -3.5 61<147.5 181 147.5 191> 120 61.5<164.75 264 169.5 210.5> 268.5 61.5<147.5 197 124.75 197.25>
VStem: 21 73.5<128.5 198.5 128.5 219.5> 210.5 72.5<60.5 120 120 120>
AnchorPoint: "Anchor-1" 163 326 basechar 0
AnchorPoint: "Anchor-0" 166 0 basechar 0
LayerCount: 2
Back
Fore
SplineSet
174.5 -3.5 m 0
 70 -3.5 21 49 21 164 c 0
 21 275 73 330 176.5 330 c 0
 217.5 330 276.5 317 276.5 297.5 c 0
 276.5 284.5 257.5 253.5 246 253.5 c 0
 240.5 253.5 219.5 268.5 175 268.5 c 0
 120 268.5 94.5 233.5 94.5 163.5 c 0
 94.5 93.5 120.5 57.5 174.5 57.5 c 0
 187.5 57.5 198 58 210.5 60.5 c 1
 210.5 120 l 1
 169.5 120 l 2
 160 120 155.5 127 155.5 143 c 2
 155.5 158 l 2
 155.5 174.5 160 181.5 169.5 181.5 c 2
 264 181.5 l 2
 277.5 181.5 283 175.5 283 162.5 c 2
 283 33 l 2
 283 1 207.5 -3.5 174.5 -3.5 c 0
EndSplineSet
Validated: 524289
Position2: "'cpsp' Capital Spacing lookup 0 subtable" dx=5 dy=0 dh=10 dv=0
EndChar

StartChar: Gbreve
Encoding: 286 286 63
Width: 313
VWidth: 466
GlyphClass: 2
Flags: MW
HStem: -3.5 61<147.5 181 147.5 191> 120 61.5<164.75 264 169.5 210.5> 268.5 61.5<147.5 197 124.75 197.25> 350.5 42.5<151.25 175.75 151.25 183.25>
VStem: 21 73.5<128.5 198.5 128.5 219.5> 94.5 137<389.25 406.75> 210.5 72.5<60.5 120 120 120>
AnchorPoint: "Anchor-1" 163 402 basechar 0
AnchorPoint: "Anchor-0" 166 0 basechar 0
LayerCount: 2
Back
Fore
SplineSet
163 350.5 m 0xf4
 122.5 350.5 94.5 376 94.5 402.5 c 0
 94.5 411 100.5 415.5 111 415.5 c 0
 119 415.5 122 412 126.5 407.5 c 0
 132.5 401 139.5 393 163 393 c 0
 188.5 393 195 401.5 201 408 c 0
 204.5 412.5 208 415.5 215.5 415.5 c 0
 225.5 415.5 231.5 411 231.5 402.5 c 0
 231.5 376 203.5 350.5 163 350.5 c 0xf4
174.5 -3.5 m 0xea
 70 -3.5 21 49 21 164 c 0
 21 275 73 330 176.5 330 c 0
 217.5 330 276.5 317 276.5 297.5 c 0
 276.5 284.5 257.5 253.5 246 253.5 c 0
 240.5 253.5 219.5 268.5 175 268.5 c 0
 120 268.5 94.5 233.5 94.5 163.5 c 0
 94.5 93.5 120.5 57.5 174.5 57.5 c 0
 187.5 57.5 198 58 210.5 60.5 c 1
 210.5 120 l 1
 169.5 120 l 2
 160 120 155.5 127 155.5 143 c 2
 155.5 158 l 2
 155.5 174.5 160 181.5 169.5 181.5 c 2
 264 181.5 l 2
 277.5 181.5 283 175.5 283 162.5 c 2
 283 33 l 2
 283 1 207.5 -3.5 174.5 -3.5 c 0xea
EndSplineSet
Validated: 524289
Position2: "'cpsp' Capital Spacing lookup 0 subtable" dx=5 dy=0 dh=10 dv=0
EndChar

StartChar: Gcircumflex
Encoding: 284 284 64
Width: 313
VWidth: 466
GlyphClass: 2
Flags: MW
HStem: -3.5 61<147.5 181 147.5 191> 120 61.5<164.75 264 169.5 210.5> 268.5 61.5<147.5 197 124.75 197.25> 349 68<104.75 165.5 108 165.5 160.5 207.5 160.5 217.5>
VStem: 21 73.5<128.5 198.5 128.5 219.5> 210.5 72.5<60.5 120 120 120>
AnchorPoint: "Anchor-1" 241 379 basechar 0
AnchorPoint: "Anchor-0" 166 0 basechar 0
LayerCount: 2
Back
Fore
SplineSet
108 349 m 2
 101.5 349 99 350.5 99 353.5 c 0
 99 355.5 100 358 101.5 360.5 c 2
 132 408 l 2
 137 416.5 147 417 160.5 417 c 2
 165.5 417 l 2
 179 417 189 416.5 194 408 c 2
 224 360.5 l 2
 226 358 227 355.5 227 353.5 c 0
 227 350.5 223.5 349 217.5 349 c 2
 207.5 349 l 2
 194 349 182 351.5 175.5 360 c 2
 162.5 379 l 1
 149.5 360.5 l 2
 142.5 351 132 349 118.5 349 c 2
 108 349 l 2
174.5 -3.5 m 0
 70 -3.5 21 49 21 164 c 0
 21 275 73 330 176.5 330 c 0
 217.5 330 276.5 317 276.5 297.5 c 0
 276.5 284.5 257.5 253.5 246 253.5 c 0
 240.5 253.5 219.5 268.5 175 268.5 c 0xec
 120 268.5 94.5 233.5 94.5 163.5 c 0
 94.5 93.5 120.5 57.5 174.5 57.5 c 0
 187.5 57.5 198 58 210.5 60.5 c 1
 210.5 120 l 1
 169.5 120 l 2
 160 120 155.5 127 155.5 143 c 2
 155.5 158 l 2
 155.5 174.5 160 181.5 169.5 181.5 c 2
 264 181.5 l 2
 277.5 181.5 283 175.5 283 162.5 c 2
 283 33 l 2
 283 1 207.5 -3.5 174.5 -3.5 c 0
EndSplineSet
Validated: 524289
Position2: "'cpsp' Capital Spacing lookup 0 subtable" dx=5 dy=0 dh=10 dv=0
EndChar

StartChar: Gcommaaccent
Encoding: 290 290 65
Width: 313
VWidth: 466
GlyphClass: 2
Flags: MW
HStem: -112 21G<139.75 152.25> -112 88<139.75 171> -3.5 61<147.5 181 147.5 191> 120 61.5<164.75 264 169.5 210.5> 268.5 61.5<147.5 197 124.75 197.25>
VStem: 21 73.5<128.5 198.5 128.5 219.5> 134.5 60<-60 -38.5 -60 -38> 210.5 72.5<60.5 120 120 120>
AnchorPoint: "Anchor-1" 163 326 basechar 0
AnchorPoint: "Anchor-0" 166 -95 basechar 0
LayerCount: 2
Back
Fore
SplineSet
174.5 -3.5 m 0xbe
 70 -3.5 21 49 21 164 c 0
 21 275 73 330 176.5 330 c 0
 217.5 330 276.5 317 276.5 297.5 c 0
 276.5 284.5 257.5 253.5 246 253.5 c 0
 240.5 253.5 219.5 268.5 175 268.5 c 0
 120 268.5 94.5 233.5 94.5 163.5 c 0
 94.5 93.5 120.5 57.5 174.5 57.5 c 0
 187.5 57.5 198 58 210.5 60.5 c 1
 210.5 120 l 1
 169.5 120 l 2
 160 120 155.5 127 155.5 143 c 2
 155.5 158 l 2
 155.5 174.5 160 181.5 169.5 181.5 c 2
 264 181.5 l 2
 277.5 181.5 283 175.5 283 162.5 c 2
 283 33 l 2xbf
 283 1 207.5 -3.5 174.5 -3.5 c 0xbe
144 -112 m 0
 135.5 -112 123 -109 123 -101.5 c 0
 123 -93 134.5 -81.5 134.5 -44.5 c 0
 134.5 -31.5 142.5 -24 162 -24 c 2
 171 -24 l 2x7e
 187.5 -24 194.5 -32.5 194.5 -44.5 c 0
 194.5 -75.5 160.5 -112 144 -112 c 0
EndSplineSet
Validated: 524289
Position2: "'cpsp' Capital Spacing lookup 0 subtable" dx=5 dy=0 dh=10 dv=0
EndChar

StartChar: Gdotaccent
Encoding: 288 288 66
Width: 313
VWidth: 466
GlyphClass: 2
Flags: MW
HStem: -3.5 61<147.5 181 147.5 191> 120 61.5<164.75 264 169.5 210.5> 268.5 61.5<147.5 197 124.75 197.25> 352 42.5<135 172.75>
VStem: 21 73.5<128.5 198.5 128.5 219.5> 135 56<367 394.5 362 399.5> 210.5 72.5<60.5 120 120 120>
AnchorPoint: "Anchor-1" 163 326 basechar 0
AnchorPoint: "Anchor-0" 166 0 basechar 0
LayerCount: 2
Back
Fore
SplineSet
163 352 m 0
 143.5 352 135 357 135 367 c 2
 135 394.5 l 2
 135 404.5 143.5 409.5 163 409.5 c 0
 182.5 409.5 191 404.5 191 394.5 c 2
 191 367 l 2
 191 357 182.5 352 163 352 c 0
174.5 -3.5 m 0
 70 -3.5 21 49 21 164 c 0
 21 275 73 330 176.5 330 c 0
 217.5 330 276.5 317 276.5 297.5 c 0
 276.5 284.5 257.5 253.5 246 253.5 c 0
 240.5 253.5 219.5 268.5 175 268.5 c 0
 120 268.5 94.5 233.5 94.5 163.5 c 0
 94.5 93.5 120.5 57.5 174.5 57.5 c 0
 187.5 57.5 198 58 210.5 60.5 c 1
 210.5 120 l 1
 169.5 120 l 2
 160 120 155.5 127 155.5 143 c 2
 155.5 158 l 2
 155.5 174.5 160 181.5 169.5 181.5 c 2
 264 181.5 l 2
 277.5 181.5 283 175.5 283 162.5 c 2
 283 33 l 2xea
 283 1 207.5 -3.5 174.5 -3.5 c 0
EndSplineSet
Validated: 524289
Position2: "'cpsp' Capital Spacing lookup 0 subtable" dx=5 dy=0 dh=10 dv=0
EndChar

StartChar: H
Encoding: 72 72 67
Width: 342
VWidth: 466
GlyphClass: 2
Flags: MW
HStem: -1 21G<57.25 67 67 83.5 255.25 265 265 281.5> 135.5 61.5<111.5 237 111.5 237> 307 20G<67 83.5 83.5 93.25 265 281.5 281.5 291.25>
VStem: 39 72.5<14 135.5 197 312> 237 72.5<14 135.5 135.5 135.5 197 312>
AnchorPoint: "Anchor-1" 171 326 basechar 0
AnchorPoint: "Anchor-0" 178 0 basechar 0
LayerCount: 2
Back
Fore
SplineSet
67 -1 m 2
 47.5 -1 39 4 39 14 c 2
 39 312 l 2
 39 322 47.5 327 67 327 c 2
 83.5 327 l 2
 103 327 111.5 322 111.5 312 c 2
 111.5 197 l 1
 237 197 l 1
 237 312 l 2
 237 322 245.5 327 265 327 c 2
 281.5 327 l 2
 301 327 309.5 322 309.5 312 c 2
 309.5 14 l 2
 309.5 4 301 -1 281.5 -1 c 2
 265 -1 l 2
 245.5 -1 237 4 237 14 c 2
 237 135.5 l 1
 111.5 135.5 l 1
 111.5 14 l 2
 111.5 4 103 -1 83.5 -1 c 2
 67 -1 l 2
EndSplineSet
Validated: 524289
Position2: "'cpsp' Capital Spacing lookup 0 subtable" dx=5 dy=0 dh=10 dv=0
EndChar

StartChar: Hbar
Encoding: 294 294 68
Width: 342
VWidth: 466
GlyphClass: 2
Flags: MW
HStem: -1 21G<57.25 67 67 83.5 255.25 265 265 281.5> 135.5 61.5<111.5 237 111.5 237> 222 44<22.75 39 27.5 39 111.5 237 309.5 314.5> 222 105<22.75 83.5 27.5 83.5 67 111.5 67 237>
VStem: 39 72.5<14 135.5 197 222 266 312> 237 72.5<14 135.5 135.5 135.5 197 222 266 312>
AnchorPoint: "Anchor-1" 171 326 basechar 0
AnchorPoint: "Anchor-0" 178 0 basechar 0
LayerCount: 2
Back
Fore
SplineSet
314.5 266 m 2xac
 324 266 328 260.5 328 247.5 c 2
 328 240.5 l 2
 328 227.5 324 222 314.5 222 c 2
 309.5 222 l 1x9c
 309.5 14 l 2
 309.5 4 301 -1 281.5 -1 c 2
 265 -1 l 2
 245.5 -1 237 4 237 14 c 2
 237 135.5 l 1
 111.5 135.5 l 1xdc
 111.5 14 l 2
 111.5 4 103 -1 83.5 -1 c 2
 67 -1 l 2
 47.5 -1 39 4 39 14 c 2
 39 222 l 1
 27.5 222 l 2x9c
 18 222 13.5 227.5 13.5 240.5 c 2
 13.5 247.5 l 2
 13.5 260.5 18 266 27.5 266 c 2
 39 266 l 1xac
 39 312 l 2
 39 322 47.5 327 67 327 c 2
 83.5 327 l 2
 103 327 111.5 322 111.5 312 c 2x9c
 111.5 266 l 1
 237 266 l 1xac
 237 312 l 2
 237 322 245.5 327 265 327 c 2
 281.5 327 l 2
 301 327 309.5 322 309.5 312 c 2x9c
 309.5 266 l 1
 314.5 266 l 2xac
237 197 m 1xdc
 237 222 l 1
 111.5 222 l 1x9c
 111.5 197 l 1
 237 197 l 1xdc
EndSplineSet
Validated: 524289
Position2: "'cpsp' Capital Spacing lookup 0 subtable" dx=5 dy=0 dh=10 dv=0
EndChar

StartChar: Hcircumflex
Encoding: 292 292 69
Width: 342
VWidth: 466
GlyphClass: 2
Flags: MW
HStem: -1 21G<57.25 67 67 83.5 255.25 265 265 281.5> 135.5 61.5<111.5 237 111.5 237> 307 20G<67 83.5 83.5 93.25 265 281.5 281.5 291.25> 349 68<112.75 173.5 116 173.5 168.5 215.5 168.5 225.5>
VStem: 39 72.5<14 135.5 197 312> 237 72.5<14 135.5 135.5 135.5 197 312>
AnchorPoint: "Anchor-1" 249 379 basechar 0
AnchorPoint: "Anchor-0" 178 0 basechar 0
LayerCount: 2
Back
Fore
SplineSet
116 349 m 2
 109.5 349 107 350.5 107 353.5 c 0
 107 355.5 108 358 109.5 360.5 c 2
 140 408 l 2
 145 416.5 155 417 168.5 417 c 2
 173.5 417 l 2
 187 417 197 416.5 202 408 c 2
 232 360.5 l 2
 234 358 235 355.5 235 353.5 c 0
 235 350.5 231.5 349 225.5 349 c 2
 215.5 349 l 2
 202 349 190 351.5 183.5 360 c 2
 170.5 379 l 1
 157.5 360.5 l 2
 150.5 351 140 349 126.5 349 c 2
 116 349 l 2
67 -1 m 2
 47.5 -1 39 4 39 14 c 2
 39 312 l 2
 39 322 47.5 327 67 327 c 2
 83.5 327 l 2
 103 327 111.5 322 111.5 312 c 2
 111.5 197 l 1
 237 197 l 1
 237 312 l 2
 237 322 245.5 327 265 327 c 2
 281.5 327 l 2
 301 327 309.5 322 309.5 312 c 2xec
 309.5 14 l 2
 309.5 4 301 -1 281.5 -1 c 2
 265 -1 l 2
 245.5 -1 237 4 237 14 c 2
 237 135.5 l 1
 111.5 135.5 l 1
 111.5 14 l 2
 111.5 4 103 -1 83.5 -1 c 2
 67 -1 l 2
EndSplineSet
Validated: 524289
Position2: "'cpsp' Capital Spacing lookup 0 subtable" dx=5 dy=0 dh=10 dv=0
EndChar

StartChar: uni1E24
Encoding: 7716 7716 70
Width: 342
VWidth: 466
GlyphClass: 2
Flags: MW
HStem: -95 42.5<150.5 188.25> -1 21G<57.25 67 67 83.5 255.25 265 265 281.5> 135.5 61.5<111.5 237 111.5 237> 307 20G<67 83.5 83.5 93.25 265 281.5 281.5 291.25>
VStem: 39 72.5<14 135.5 197 312> 150.5 56<-80 -52.5 -85 -47.5> 237 72.5<14 135.5 135.5 135.5 197 312>
AnchorPoint: "Anchor-1" 171 326 basechar 0
AnchorPoint: "Anchor-0" 179 -95 basechar 0
LayerCount: 2
Back
Fore
SplineSet
67 -1 m 2
 47.5 -1 39 4 39 14 c 2
 39 312 l 2
 39 322 47.5 327 67 327 c 2
 83.5 327 l 2
 103 327 111.5 322 111.5 312 c 2
 111.5 197 l 1
 237 197 l 1
 237 312 l 2
 237 322 245.5 327 265 327 c 2
 281.5 327 l 2
 301 327 309.5 322 309.5 312 c 2
 309.5 14 l 2
 309.5 4 301 -1 281.5 -1 c 2
 265 -1 l 2
 245.5 -1 237 4 237 14 c 2
 237 135.5 l 1
 111.5 135.5 l 1
 111.5 14 l 2
 111.5 4 103 -1 83.5 -1 c 2
 67 -1 l 2
178.5 -95 m 0
 159 -95 150.5 -90 150.5 -80 c 2
 150.5 -52.5 l 2
 150.5 -42.5 159 -37.5 178.5 -37.5 c 0
 198 -37.5 206.5 -42.5 206.5 -52.5 c 2
 206.5 -80 l 2
 206.5 -90 198 -95 178.5 -95 c 0
EndSplineSet
Validated: 524289
Position2: "'cpsp' Capital Spacing lookup 0 subtable" dx=5 dy=0 dh=10 dv=0
EndChar

StartChar: I
Encoding: 73 73 71
Width: 132
VWidth: 466
GlyphClass: 2
Flags: MW
HStem: -1.5 21G<47.5 57.5 57.5 73.5> 307.5 20G<57.5 73.5 73.5 83.25>
VStem: 29.5 72<14 312>
AnchorPoint: "Anchor-1" 66 326 basechar 0
AnchorPoint: "Anchor-0" 66 0 basechar 0
LayerCount: 2
Back
Fore
SplineSet
57.5 -1.5 m 2
 37.5 -1.5 29.5 4 29.5 14 c 2
 29.5 312 l 2
 29.5 322 37.5 327.5 57.5 327.5 c 2
 73.5 327.5 l 2
 93 327.5 101.5 322 101.5 312 c 2
 101.5 14 l 2
 101.5 4 93 -1.5 73.5 -1.5 c 2
 57.5 -1.5 l 2
EndSplineSet
Validated: 524289
Position2: "'cpsp' Capital Spacing lookup 0 subtable" dx=5 dy=0 dh=10 dv=0
EndChar

StartChar: IJ
Encoding: 306 306 72
Width: 319
VWidth: 466
GlyphClass: 2
Flags: MW
HStem: -3.5 61<183.75 190.5 169.25 224> 307.5 20G<57.5 73.5 73.5 83.25 244 260 260 269.75>
VStem: 29.5 72<14 312> 216 72<106 312>
AnchorPoint: "Anchor-1" 253 326 basechar 0
AnchorPoint: "Anchor-0" 66 0 basechar 0
LayerCount: 2
Back
Fore
SplineSet
57.5 -1.5 m 2
 37.5 -1.5 29.5 4 29.5 14 c 2
 29.5 312 l 2
 29.5 322 37.5 327.5 57.5 327.5 c 2
 73.5 327.5 l 2
 93 327.5 101.5 322 101.5 312 c 2
 101.5 14 l 2
 101.5 4 93 -1.5 73.5 -1.5 c 2
 57.5 -1.5 l 2
189.5 -3.5 m 0
 178 -3.5 131.5 -2.5 131.5 17.5 c 0
 131.5 26 136 59.5 150.5 61 c 0
 155.5 61 162 57.5 176.5 57.5 c 0
 204.5 57.5 216 72 216 106 c 2
 216 312 l 2
 216 322 224 327.5 244 327.5 c 2
 260 327.5 l 2
 279.5 327.5 288 322 288 312 c 2
 288 94 l 2
 288 35 258.5 -3.5 189.5 -3.5 c 0
EndSplineSet
Validated: 524289
Position2: "'cpsp' Capital Spacing lookup 0 subtable" dx=5 dy=0 dh=10 dv=0
EndChar

StartChar: Iacute
Encoding: 205 205 73
Width: 132
VWidth: 466
GlyphClass: 2
Flags: MW
HStem: -1.5 21G<47.5 57.5 57.5 73.5> 307.5 20G<57.5 73.5 73.5 83.25> 350.5 74<41.5 111.75>
VStem: 29.5 72<14 312>
AnchorPoint: "Anchor-1" 66 326 basechar 0
AnchorPoint: "Anchor-0" 66 0 basechar 0
LayerCount: 2
Back
Fore
SplineSet
47 350.5 m 0
 36 350.5 32.5 352.5 32.5 357.5 c 0
 32.5 362.5 41.5 374 63 412 c 0
 68.5 421.5 84 424.5 102.5 424.5 c 0
 121 424.5 130.5 423 130.5 418 c 0
 130.5 412.5 127.5 411.5 82 362 c 0
 77 356.5 69 350.5 47 350.5 c 0
57.5 -1.5 m 2
 37.5 -1.5 29.5 4 29.5 14 c 2
 29.5 312 l 2
 29.5 322 37.5 327.5 57.5 327.5 c 2
 73.5 327.5 l 2
 93 327.5 101.5 322 101.5 312 c 2xd0
 101.5 14 l 2
 101.5 4 93 -1.5 73.5 -1.5 c 2
 57.5 -1.5 l 2
EndSplineSet
Validated: 524289
Position2: "'cpsp' Capital Spacing lookup 0 subtable" dx=5 dy=0 dh=10 dv=0
EndChar

StartChar: Ibreve
Encoding: 300 300 74
Width: 132
VWidth: 466
GlyphClass: 2
Flags: MW
HStem: -1.5 21G<47.5 57.5 57.5 73.5> 307.5 20G<57.5 73.5 73.5 83.25> 350.5 42.5<53.75 78.25 53.75 85.75>
VStem: 29.5 72<14 312>
AnchorPoint: "Anchor-1" 66 402 basechar 0
AnchorPoint: "Anchor-0" 66 0 basechar 0
LayerCount: 2
Back
Fore
SplineSet
65.5 350.5 m 0
 25 350.5 -3 376 -3 402.5 c 0
 -3 411 3 415.5 13.5 415.5 c 0
 21.5 415.5 24.5 412 29 407.5 c 0
 35 401 42 393 65.5 393 c 0
 91 393 97.5 401.5 103.5 408 c 0
 107 412.5 110.5 415.5 118 415.5 c 0
 128 415.5 134 411 134 402.5 c 0
 134 376 106 350.5 65.5 350.5 c 0
57.5 -1.5 m 2
 37.5 -1.5 29.5 4 29.5 14 c 2
 29.5 312 l 2
 29.5 322 37.5 327.5 57.5 327.5 c 2
 73.5 327.5 l 2
 93 327.5 101.5 322 101.5 312 c 2xd0
 101.5 14 l 2
 101.5 4 93 -1.5 73.5 -1.5 c 2
 57.5 -1.5 l 2
EndSplineSet
Validated: 524289
Position2: "'cpsp' Capital Spacing lookup 0 subtable" dx=5 dy=0 dh=10 dv=0
EndChar

StartChar: Icircumflex
Encoding: 206 206 75
Width: 132
VWidth: 466
GlyphClass: 2
Flags: MW
HStem: -1.5 21G<47.5 57.5 57.5 73.5> 307.5 20G<57.5 73.5 73.5 83.25> 349 68<7.25 68 10.5 68 63 110 63 120>
VStem: 29.5 72<14 312>
AnchorPoint: "Anchor-1" 144 379 basechar 0
AnchorPoint: "Anchor-0" 66 0 basechar 0
LayerCount: 2
Back
Fore
SplineSet
10.5 349 m 2
 4 349 1.5 350.5 1.5 353.5 c 0
 1.5 355.5 2.5 358 4 360.5 c 2
 34.5 408 l 2
 39.5 416.5 49.5 417 63 417 c 2
 68 417 l 2
 81.5 417 91.5 416.5 96.5 408 c 2
 126.5 360.5 l 2
 128.5 358 129.5 355.5 129.5 353.5 c 0
 129.5 350.5 126 349 120 349 c 2
 110 349 l 2
 96.5 349 84.5 351.5 78 360 c 2
 65 379 l 1
 52 360.5 l 2
 45 351 34.5 349 21 349 c 2
 10.5 349 l 2
57.5 -1.5 m 2
 37.5 -1.5 29.5 4 29.5 14 c 2
 29.5 312 l 2
 29.5 322 37.5 327.5 57.5 327.5 c 2
 73.5 327.5 l 2
 93 327.5 101.5 322 101.5 312 c 2xd0
 101.5 14 l 2
 101.5 4 93 -1.5 73.5 -1.5 c 2
 57.5 -1.5 l 2
EndSplineSet
Validated: 524289
Position2: "'cpsp' Capital Spacing lookup 0 subtable" dx=5 dy=0 dh=10 dv=0
EndChar

StartChar: Idieresis
Encoding: 207 207 76
Width: 132
VWidth: 466
GlyphClass: 2
Flags: MW
HStem: -1.5 21G<47.5 57.5 57.5 73.5> 307.5 20G<57.5 73.5 73.5 83.25> 352 42.5<-4.5 33.25>
VStem: -4.5 56<367 394.5 362 399.5> 29.5 72<14 312> 79.5 56<367 394.5 362 399.5>
AnchorPoint: "Anchor-1" 66 326 basechar 0
AnchorPoint: "Anchor-0" 66 0 basechar 0
LayerCount: 2
Back
Fore
SplineSet
23.5 352 m 0xf0
 4 352 -4.5 357 -4.5 367 c 2
 -4.5 394.5 l 2
 -4.5 404.5 4 409.5 23.5 409.5 c 0
 43 409.5 51.5 404.5 51.5 394.5 c 2
 51.5 367 l 2
 51.5 357 43 352 23.5 352 c 0xf0
107.5 352 m 0xe4
 88 352 79.5 357 79.5 367 c 2
 79.5 394.5 l 2
 79.5 404.5 88 409.5 107.5 409.5 c 0
 127 409.5 135.5 404.5 135.5 394.5 c 2
 135.5 367 l 2
 135.5 357 127 352 107.5 352 c 0xe4
57.5 -1.5 m 2xc8
 37.5 -1.5 29.5 4 29.5 14 c 2
 29.5 312 l 2
 29.5 322 37.5 327.5 57.5 327.5 c 2
 73.5 327.5 l 2
 93 327.5 101.5 322 101.5 312 c 2
 101.5 14 l 2
 101.5 4 93 -1.5 73.5 -1.5 c 2
 57.5 -1.5 l 2xc8
EndSplineSet
Validated: 524289
Position2: "'cpsp' Capital Spacing lookup 0 subtable" dx=5 dy=0 dh=10 dv=0
EndChar

StartChar: Idotaccent
Encoding: 304 304 77
Width: 132
VWidth: 466
GlyphClass: 2
Flags: MW
HStem: -1.5 21G<47.5 57.5 57.5 73.5> 307.5 20G<57.5 73.5 73.5 83.25> 352 42.5<37.5 75.25>
VStem: 29.5 72<14 312>
AnchorPoint: "Anchor-1" 66 326 basechar 0
AnchorPoint: "Anchor-0" 66 0 basechar 0
LayerCount: 2
Back
Fore
SplineSet
65.5 352 m 0
 46 352 37.5 357 37.5 367 c 2
 37.5 394.5 l 2
 37.5 404.5 46 409.5 65.5 409.5 c 0
 85 409.5 93.5 404.5 93.5 394.5 c 2
 93.5 367 l 2
 93.5 357 85 352 65.5 352 c 0
57.5 -1.5 m 2
 37.5 -1.5 29.5 4 29.5 14 c 2
 29.5 312 l 2
 29.5 322 37.5 327.5 57.5 327.5 c 2
 73.5 327.5 l 2
 93 327.5 101.5 322 101.5 312 c 2xd0
 101.5 14 l 2
 101.5 4 93 -1.5 73.5 -1.5 c 2
 57.5 -1.5 l 2
EndSplineSet
Validated: 524289
Position2: "'cpsp' Capital Spacing lookup 0 subtable" dx=5 dy=0 dh=10 dv=0
EndChar

StartChar: uni1ECA
Encoding: 7882 7882 78
Width: 132
VWidth: 466
GlyphClass: 2
Flags: MW
HStem: -95 42.5<38.5 76.25> -1.5 21G<47.5 57.5 57.5 73.5> 307.5 20G<57.5 73.5 73.5 83.25>
VStem: 29.5 72<14 312> 38.5 56<-80 -52.5 -85 -47.5>
AnchorPoint: "Anchor-1" 66 326 basechar 0
AnchorPoint: "Anchor-0" 67 -95 basechar 0
LayerCount: 2
Back
Fore
SplineSet
57.5 -1.5 m 2xf0
 37.5 -1.5 29.5 4 29.5 14 c 2
 29.5 312 l 2
 29.5 322 37.5 327.5 57.5 327.5 c 2
 73.5 327.5 l 2
 93 327.5 101.5 322 101.5 312 c 2
 101.5 14 l 2
 101.5 4 93 -1.5 73.5 -1.5 c 2
 57.5 -1.5 l 2xf0
66.5 -95 m 0xe8
 47 -95 38.5 -90 38.5 -80 c 2
 38.5 -52.5 l 2
 38.5 -42.5 47 -37.5 66.5 -37.5 c 0
 86 -37.5 94.5 -42.5 94.5 -52.5 c 2
 94.5 -80 l 2
 94.5 -90 86 -95 66.5 -95 c 0xe8
EndSplineSet
Validated: 524289
Position2: "'cpsp' Capital Spacing lookup 0 subtable" dx=5 dy=0 dh=10 dv=0
EndChar

StartChar: Igrave
Encoding: 204 204 79
Width: 132
VWidth: 466
GlyphClass: 2
Flags: MW
HStem: -1.5 21G<47.5 57.5 57.5 73.5> 307.5 20G<57.5 73.5 73.5 83.25> 350.5 74<21.75 92.25>
VStem: 29.5 72<14 312>
AnchorPoint: "Anchor-1" 66 326 basechar 0
AnchorPoint: "Anchor-0" 66 0 basechar 0
LayerCount: 2
Back
Fore
SplineSet
86.5 350.5 m 0
 64.5 350.5 57 356.5 51.5 362 c 0
 6.5 411.5 3 412.5 3 418 c 0
 3 423 12.5 424.5 31 424.5 c 0
 50 424.5 65 421.5 70.5 412 c 0
 92 374 101 362.5 101 357.5 c 0
 101 352.5 98 350.5 86.5 350.5 c 0
57.5 -1.5 m 2
 37.5 -1.5 29.5 4 29.5 14 c 2
 29.5 312 l 2
 29.5 322 37.5 327.5 57.5 327.5 c 2
 73.5 327.5 l 2
 93 327.5 101.5 322 101.5 312 c 2xd0
 101.5 14 l 2
 101.5 4 93 -1.5 73.5 -1.5 c 2
 57.5 -1.5 l 2
EndSplineSet
Validated: 524289
Position2: "'cpsp' Capital Spacing lookup 0 subtable" dx=5 dy=0 dh=10 dv=0
EndChar

StartChar: uni1EC8
Encoding: 7880 7880 80
Width: 132
VWidth: 466
GlyphClass: 2
Flags: MW
HStem: -1.5 21G<47.5 57.5 57.5 73.5> 307.5 20G<57.5 73.5 73.5 83.25> 404 28.5<63.25 71.75>
VStem: 29.5 72<14 312> 82.5 41<387 397.25>
AnchorPoint: "Anchor-1" 66 409 basechar 0
AnchorPoint: "Anchor-0" 66 0 basechar 0
LayerCount: 2
Back
Fore
SplineSet
76.5 348 m 0xf0
 65.5 348 51.5 355 51.5 359 c 0xf0
 51.5 367 82.5 380 82.5 394 c 0
 82.5 400.5 75.5 404 68 404 c 0
 57.5 404 52.5 398.5 48.5 398.5 c 0
 44.5 398.5 34.5 411 34.5 418 c 0
 34.5 424 55 432.5 71.5 432.5 c 0
 105 432.5 123.5 418.5 123.5 395.5 c 0xe8
 123.5 371 85 348 76.5 348 c 0xf0
57.5 -1.5 m 2
 37.5 -1.5 29.5 4 29.5 14 c 2
 29.5 312 l 2
 29.5 322 37.5 327.5 57.5 327.5 c 2
 73.5 327.5 l 2
 93 327.5 101.5 322 101.5 312 c 2
 101.5 14 l 2
 101.5 4 93 -1.5 73.5 -1.5 c 2
 57.5 -1.5 l 2
EndSplineSet
Validated: 524289
Position2: "'cpsp' Capital Spacing lookup 0 subtable" dx=5 dy=0 dh=10 dv=0
EndChar

StartChar: Imacron
Encoding: 298 298 81
Width: 132
VWidth: 466
GlyphClass: 2
Flags: MW
HStem: -1.5 21G<47.5 57.5 57.5 73.5> 307.5 20G<57.5 73.5 73.5 83.25> 360.5 44.5<10.5 115.5 15.5 115.5>
VStem: 29.5 72<14 312>
AnchorPoint: "Anchor-1" 66 326 basechar 0
AnchorPoint: "Anchor-0" 66 0 basechar 0
LayerCount: 2
Back
Fore
SplineSet
15.5 360.5 m 2
 5.5 360.5 1.5 366.5 1.5 379.5 c 2
 1.5 386.5 l 2
 1.5 399.5 5.5 405 15.5 405 c 2
 115.5 405 l 2
 125 405 129.5 399.5 129.5 386.5 c 2
 129.5 379.5 l 2
 129.5 366.5 125 360.5 115.5 360.5 c 2
 15.5 360.5 l 2
57.5 -1.5 m 2
 37.5 -1.5 29.5 4 29.5 14 c 2
 29.5 312 l 2
 29.5 322 37.5 327.5 57.5 327.5 c 2
 73.5 327.5 l 2
 93 327.5 101.5 322 101.5 312 c 2
 101.5 14 l 2
 101.5 4 93 -1.5 73.5 -1.5 c 2
 57.5 -1.5 l 2
EndSplineSet
Validated: 524289
Position2: "'cpsp' Capital Spacing lookup 0 subtable" dx=5 dy=0 dh=10 dv=0
EndChar

StartChar: Iogonek
Encoding: 302 302 82
Width: 132
VWidth: 466
GlyphClass: 2
Flags: MW
HStem: -85.5 33<103.5 112.5> -1.5 21G<47.5 57.5 57.5 59> -0.5 21G<85 85> 307.5 20G<57.5 73.5 73.5 83.25>
VStem: 29.5 72<14 312>
AnchorPoint: "Anchor-1" 66 326 basechar 0
AnchorPoint: "Anchor-0" 66 0 basechar 0
LayerCount: 2
Back
Fore
SplineSet
131.5 -49 m 0xb8
 138 -49 142 -53 142 -62 c 0
 142 -81.5 121.5 -85.5 103.5 -85.5 c 0
 54 -85.5 48.5 -51.5 48.5 -37.5 c 0
 48.5 -30.5 50.5 -12 59 -1.5 c 1
 57.5 -1.5 l 2
 37.5 -1.5 29.5 4 29.5 14 c 2xd8
 29.5 312 l 2
 29.5 322 37.5 327.5 57.5 327.5 c 2
 73.5 327.5 l 2
 93 327.5 101.5 322 101.5 312 c 2
 101.5 14 l 2
 101.5 6 96.5 1 85 -0.5 c 1
 85 -2.5 l 2
 85 -9.5 80 -15.5 80 -29 c 0
 80 -51.5 98 -52.5 109 -52.5 c 0
 120.5 -52.5 123 -49 131.5 -49 c 0xb8
EndSplineSet
Validated: 524289
Position2: "'cpsp' Capital Spacing lookup 0 subtable" dx=5 dy=0 dh=10 dv=0
EndChar

StartChar: Itilde
Encoding: 296 296 83
Width: 132
VWidth: 466
GlyphClass: 2
Flags: MW
HStem: -1.5 21G<47.5 57.5 57.5 73.5> 307.5 20G<57.5 73.5 73.5 83.25>
VStem: 29.5 72<14 312>
AnchorPoint: "Anchor-1" 66 326 basechar 0
AnchorPoint: "Anchor-0" 66 0 basechar 0
LayerCount: 2
Back
Fore
SplineSet
73.5 327.5 m 2
 93 327.5 101.5 322 101.5 312 c 2
 101.5 14 l 2
 101.5 4 93 -1.5 73.5 -1.5 c 2
 57.5 -1.5 l 2
 37.5 -1.5 29.5 4 29.5 14 c 2
 29.5 312 l 2
 29.5 322 37.5 327.5 57.5 327.5 c 2
 73.5 327.5 l 2
EndSplineSet
Validated: 524289
Position2: "'cpsp' Capital Spacing lookup 0 subtable" dx=5 dy=0 dh=10 dv=0
EndChar

StartChar: J
Encoding: 74 74 84
Width: 188
VWidth: 466
GlyphClass: 2
Flags: MW
HStem: -3.5 61<52.25 59 37.75 92.5> 307.5 20G<112.5 128.5 128.5 138.25>
VStem: 84.5 72<106 312>
AnchorPoint: "Anchor-1" 122 326 basechar 0
AnchorPoint: "Anchor-0" 0 0 basechar 0
LayerCount: 2
Back
Fore
SplineSet
58 -3.5 m 0
 46.5 -3.5 0 -2.5 0 17.5 c 0
 0 26 4.5 59.5 19 61 c 0
 24 61 30.5 57.5 45 57.5 c 0
 73 57.5 84.5 72 84.5 106 c 2
 84.5 312 l 2
 84.5 322 92.5 327.5 112.5 327.5 c 2
 128.5 327.5 l 2
 148 327.5 156.5 322 156.5 312 c 2
 156.5 94 l 2
 156.5 35 127 -3.5 58 -3.5 c 0
EndSplineSet
Validated: 524289
Position2: "'cpsp' Capital Spacing lookup 0 subtable" dx=5 dy=0 dh=10 dv=0
EndChar

StartChar: Jcircumflex
Encoding: 308 308 85
Width: 188
VWidth: 466
GlyphClass: 2
Flags: MW
HStem: -3.5 61<52.25 59 37.75 92.5> 307.5 20G<112.5 128.5 128.5 138.25> 349 68<63.25 124 66.5 124 119 166 119 176>
VStem: 84.5 72<106 312>
AnchorPoint: "Anchor-1" 200 379 basechar 0
AnchorPoint: "Anchor-0" 0 0 basechar 0
LayerCount: 2
Back
Fore
SplineSet
66.5 349 m 2
 60 349 57.5 350.5 57.5 353.5 c 0
 57.5 355.5 58.5 358 60 360.5 c 2
 90.5 408 l 2
 95.5 416.5 105.5 417 119 417 c 2
 124 417 l 2
 137.5 417 147.5 416.5 152.5 408 c 2
 182.5 360.5 l 2
 184.5 358 185.5 355.5 185.5 353.5 c 0
 185.5 350.5 182 349 176 349 c 2
 166 349 l 2
 152.5 349 140.5 351.5 134 360 c 2
 121 379 l 1
 108 360.5 l 2
 101 351 90.5 349 77 349 c 2
 66.5 349 l 2
58 -3.5 m 0
 46.5 -3.5 0 -2.5 0 17.5 c 0
 0 26 4.5 59.5 19 61 c 0
 24 61 30.5 57.5 45 57.5 c 0
 73 57.5 84.5 72 84.5 106 c 2
 84.5 312 l 2
 84.5 322 92.5 327.5 112.5 327.5 c 2
 128.5 327.5 l 2
 148 327.5 156.5 322 156.5 312 c 2xd0
 156.5 94 l 2
 156.5 35 127 -3.5 58 -3.5 c 0
EndSplineSet
Validated: 524289
Position2: "'cpsp' Capital Spacing lookup 0 subtable" dx=5 dy=0 dh=10 dv=0
EndChar

StartChar: K
Encoding: 75 75 86
Width: 269
VWidth: 466
GlyphClass: 2
Flags: MW
HStem: -1 21G<50.25 60 60 76.5 215.75 222.5 222.5 249.5> 307 20G<60 76.5 76.5 86.25 215.5 237 237 246.25>
VStem: 32 72.5<14 149 187.5 312>
AnchorPoint: "Anchor-1" 144 326 basechar 0
AnchorPoint: "Anchor-0" 139 0 basechar 0
LayerCount: 2
Back
Fore
SplineSet
60 -1 m 2
 40.5 -1 32 4 32 14 c 2
 32 312 l 2
 32 322 40.5 327 60 327 c 2
 76.5 327 l 2
 96 327 104.5 322 104.5 312 c 2
 104.5 187.5 l 1
 106 187 l 1
 187.5 318.5 l 2
 191.5 325.5 202 327 215.5 327 c 2
 237 327 l 2
 255.5 327 263.5 324.5 263.5 320 c 0
 263.5 318 262.5 314.5 259.5 310.5 c 2
 169.5 172.5 l 1
 271.5 16 l 2
 274.5 11.5 275.5 8.5 275.5 6 c 0
 275.5 2 267.5 -1 249.5 -1 c 2
 222.5 -1 l 2
 209 -1 198 1 194 8 c 2
 106 149.5 l 1
 104.5 149 l 1
 104.5 14 l 2
 104.5 4 96 -1 76.5 -1 c 2
 60 -1 l 2
EndSplineSet
Validated: 524289
Position2: "'cpsp' Capital Spacing lookup 0 subtable" dx=5 dy=0 dh=10 dv=0
EndChar

StartChar: Kcommaaccent
Encoding: 310 310 87
Width: 269
VWidth: 466
GlyphClass: 2
Flags: MW
HStem: -112 21G<113.25 125.75> -112 88<113.25 144.5> -1 21G<50.25 60 60 76.5 215.75 222.5 222.5 249.5> 307 20G<60 76.5 76.5 86.25 215.5 237 237 246.25>
VStem: 32 72.5<14 149 187.5 312> 108 60<-60 -38.5 -60 -38>
AnchorPoint: "Anchor-1" 144 326 basechar 0
AnchorPoint: "Anchor-0" 139 -95 basechar 0
LayerCount: 2
Back
Fore
SplineSet
60 -1 m 2xb8
 40.5 -1 32 4 32 14 c 2
 32 312 l 2
 32 322 40.5 327 60 327 c 2
 76.5 327 l 2
 96 327 104.5 322 104.5 312 c 2
 104.5 187.5 l 1
 106 187 l 1
 187.5 318.5 l 2
 191.5 325.5 202 327 215.5 327 c 2
 237 327 l 2
 255.5 327 263.5 324.5 263.5 320 c 0
 263.5 318 262.5 314.5 259.5 310.5 c 2
 169.5 172.5 l 1
 271.5 16 l 2
 274.5 11.5 275.5 8.5 275.5 6 c 0
 275.5 2 267.5 -1 249.5 -1 c 2
 222.5 -1 l 2
 209 -1 198 1 194 8 c 2
 106 149.5 l 1
 104.5 149 l 1
 104.5 14 l 2
 104.5 4 96 -1 76.5 -1 c 2
 60 -1 l 2xb8
117.5 -112 m 0xb4
 109 -112 96.5 -109 96.5 -101.5 c 0
 96.5 -93 108 -81.5 108 -44.5 c 0
 108 -31.5 116 -24 135.5 -24 c 2
 144.5 -24 l 2x74
 161 -24 168 -32.5 168 -44.5 c 0
 168 -75.5 134 -112 117.5 -112 c 0xb4
EndSplineSet
Validated: 524289
Position2: "'cpsp' Capital Spacing lookup 0 subtable" dx=5 dy=0 dh=10 dv=0
EndChar

StartChar: L
Encoding: 76 76 88
Width: 226
VWidth: 466
GlyphClass: 2
Flags: MW
HStem: 0 61<44.25 208 104 208 104 208> 307 20G<60 76 76 85.75>
VStem: 32 72<61 312 61 312 61 317>
AnchorPoint: "Anchor-1" 70 326 basechar 0
AnchorPoint: "Anchor-0" 113 0 basechar 0
LayerCount: 2
Back
Fore
SplineSet
51 0 m 2
 37.5 0 32 5.5 32 18.5 c 2
 32 312 l 2
 32 322 40.5 327 60 327 c 2
 76 327 l 2
 95.5 327 104 322 104 312 c 2
 104 61 l 1
 208 61 l 2
 217.5 61 222 54 222 37.5 c 2
 222 23.5 l 2
 222 7 217.5 0 208 0 c 2
 51 0 l 2
EndSplineSet
Validated: 524289
Position2: "'cpsp' Capital Spacing lookup 0 subtable" dx=5 dy=0 dh=10 dv=0
EndChar

StartChar: uni01C7
Encoding: 455 455 89
Width: 335
VWidth: 466
GlyphClass: 2
Flags: MW
HStem: -84.5 61<203.25 210 188.75 243.5> 0 61<44.25 175 104 175 104 175> 307 20G<60 76 76 85.75> 307.5 20G<263.5 279.5 279.5 289.25>
VStem: 32 72<61 312 61 312 61 317> 235.5 72<25 312>
LayerCount: 2
Back
Fore
SplineSet
209 -84.5 m 0xdc
 197.5 -84.5 151 -83 151 -63 c 0
 151 -54.5 155.5 -21 170 -19.5 c 0
 174.5 -19.5 181.5 -23.5 196 -23.5 c 0
 224 -23.5 235.5 -9 235.5 25 c 2
 235.5 312 l 2
 235.5 322 243.5 327.5 263.5 327.5 c 2
 279.5 327.5 l 2
 299 327.5 307.5 322 307.5 312 c 2
 307.5 19.5 l 2
 307.5 -39.5 278 -84.5 209 -84.5 c 0xdc
51 0 m 2x6c
 37.5 0 32 5.5 32 18.5 c 2
 32 312 l 2
 32 322 40.5 327 60 327 c 2
 76 327 l 2
 95.5 327 104 322 104 312 c 2
 104 61 l 1
 175 61 l 2
 185 61 189 54 189 37.5 c 2
 189 23.5 l 2
 189 7 185 0 175 0 c 2
 51 0 l 2x6c
EndSplineSet
Validated: 524289
Position2: "'cpsp' Capital Spacing lookup 0 subtable" dx=5 dy=0 dh=10 dv=0
EndChar

StartChar: Lacute
Encoding: 313 313 90
Width: 226
VWidth: 466
GlyphClass: 2
Flags: MW
HStem: 0 61<44.25 208 104 208 104 208> 307 20G<60 76 76 85.75> 350.5 74<46 116.25>
VStem: 32 72<61 312 61 312 61 317>
AnchorPoint: "Anchor-1" 70 326 basechar 0
AnchorPoint: "Anchor-0" 113 0 basechar 0
LayerCount: 2
Back
Fore
SplineSet
51.5 350.5 m 0
 40.5 350.5 37 352.5 37 357.5 c 0
 37 362.5 46 374 67.5 412 c 0
 73 421.5 88.5 424.5 107 424.5 c 0
 125.5 424.5 135 423 135 418 c 0
 135 412.5 132 411.5 86.5 362 c 0
 81.5 356.5 73.5 350.5 51.5 350.5 c 0
51 0 m 2
 37.5 0 32 5.5 32 18.5 c 2
 32 312 l 2
 32 322 40.5 327 60 327 c 2
 76 327 l 2
 95.5 327 104 322 104 312 c 2xd0
 104 61 l 1
 208 61 l 2
 217.5 61 222 54 222 37.5 c 2
 222 23.5 l 2
 222 7 217.5 0 208 0 c 2
 51 0 l 2
EndSplineSet
Validated: 524289
Position2: "'cpsp' Capital Spacing lookup 0 subtable" dx=5 dy=0 dh=10 dv=0
EndChar

StartChar: Lcaron
Encoding: 317 317 91
Width: 226
VWidth: 466
GlyphClass: 2
Flags: MW
HStem: 0 61<44.25 208 104 208 104 208> 238 88<163.25 185> 307 20G<60 76 76 85.75>
VStem: 32 72<61 312 61 312 61 317> 148.5 60<297.5 311.5 290 312>
AnchorPoint: "Anchor-1" 70 326 basechar 0
AnchorPoint: "Anchor-0" 113 0 basechar 0
LayerCount: 2
Back
Fore
SplineSet
51 0 m 2xb8
 37.5 0 32 5.5 32 18.5 c 2
 32 312 l 2
 32 322 40.5 327 60 327 c 2
 76 327 l 2
 95.5 327 104 322 104 312 c 2
 104 61 l 1
 208 61 l 2
 217.5 61 222 54 222 37.5 c 2
 222 23.5 l 2
 222 7 217.5 0 208 0 c 2
 51 0 l 2xb8
167.5 238 m 0xd8
 159 238 146.5 241 146.5 248.5 c 0
 146.5 272 148.5 289.5 148.5 305.5 c 0
 148.5 318.5 156.5 326 176.5 326 c 2
 185 326 l 2
 201.5 326 208.5 317.5 208.5 305.5 c 0
 208.5 274.5 181 239 167.5 238 c 0xd8
EndSplineSet
Validated: 524289
Position2: "'cpsp' Capital Spacing lookup 0 subtable" dx=5 dy=0 dh=10 dv=0
EndChar

StartChar: Lcommaaccent
Encoding: 315 315 92
Width: 226
VWidth: 466
GlyphClass: 2
Flags: MW
HStem: -112 21G<87.25 99.75> -112 88<87.25 118.5> 0 61<44.25 208 104 208 104 208> 307 20G<60 76 76 85.75>
VStem: 32 72<61 312 61 312 61 317> 82 60<-60 -38.5 -60 -38>
AnchorPoint: "Anchor-1" 70 326 basechar 0
AnchorPoint: "Anchor-0" 113 -95 basechar 0
LayerCount: 2
Back
Fore
SplineSet
51 0 m 2xb8
 37.5 0 32 5.5 32 18.5 c 2
 32 312 l 2
 32 322 40.5 327 60 327 c 2
 76 327 l 2
 95.5 327 104 322 104 312 c 2
 104 61 l 1
 208 61 l 2
 217.5 61 222 54 222 37.5 c 2
 222 23.5 l 2
 222 7 217.5 0 208 0 c 2
 51 0 l 2xb8
91.5 -112 m 0xb4
 83 -112 70.5 -109 70.5 -101.5 c 0
 70.5 -93 82 -81.5 82 -44.5 c 0
 82 -31.5 90 -24 109.5 -24 c 2
 118.5 -24 l 2x74
 135 -24 142 -32.5 142 -44.5 c 0
 142 -75.5 108 -112 91.5 -112 c 0xb4
EndSplineSet
Validated: 524289
Position2: "'cpsp' Capital Spacing lookup 0 subtable" dx=5 dy=0 dh=10 dv=0
EndChar

StartChar: Ldot
Encoding: 319 319 93
Width: 226
VWidth: 466
GlyphClass: 2
Flags: MW
HStem: 0 61<44.25 208 104 208 104 208> 134.5 65.5<145.5 163.75> 307 20G<60 76 76 85.75>
VStem: 32 72<61 312 61 312 61 317> 122 65.5<158.25 176.5>
AnchorPoint: "Anchor-1" 70 326 basechar 0
AnchorPoint: "Anchor-0" 113 0 basechar 0
LayerCount: 2
Back
Fore
SplineSet
51 0 m 2
 37.5 0 32 5.5 32 18.5 c 2
 32 312 l 2
 32 322 40.5 327 60 327 c 2
 76 327 l 2
 95.5 327 104 322 104 312 c 2
 104 61 l 1
 208 61 l 2
 217.5 61 222 54 222 37.5 c 2
 222 23.5 l 2
 222 7 217.5 0 208 0 c 2
 51 0 l 2
154.5 134.5 m 0xf8
 136.5 134.5 122 149 122 167.5 c 0
 122 185.5 136.5 200 154.5 200 c 0
 173 200 187.5 185.5 187.5 167.5 c 0
 187.5 149 173 134.5 154.5 134.5 c 0xf8
EndSplineSet
Validated: 524289
Ligature2: "Ligature Substitution lookup 48 subtable" L periodcentered
Position2: "'cpsp' Capital Spacing lookup 0 subtable" dx=5 dy=0 dh=10 dv=0
EndChar

StartChar: uni01C8
Encoding: 456 456 94
Width: 354
VWidth: 466
GlyphClass: 2
Flags: MW
HStem: -99 54.5<240.5 247.5 238.75 278.25> 0 61<44.25 208 104 208 104 208> 224.5 20G<286 299 299 308.75> 284 67.5<276.25 299 286 299> 307 20G<60 76 76 85.75>
VStem: 32 72<61 312 61 312 61 317> 258 69<-24 -23.5 -23.5 229.5 298.5 336.5>
AnchorPoint: "Anchor-1" 70 326 basechar 0
AnchorPoint: "Anchor-0" 113 0 basechar 0
LayerCount: 2
Back
Fore
SplineSet
286 284 m 2xf6
 266.5 284 258 289 258 298.5 c 2
 258 336.5 l 2
 258 346 266.5 351.5 286 351.5 c 2
 299 351.5 l 2
 318.5 351.5 327 346 327 336.5 c 2
 327 298.5 l 2
 327 289 318.5 284 299 284 c 2
 286 284 l 2xf6
51 0 m 2
 37.5 0 32 5.5 32 18.5 c 2
 32 312 l 2
 32 322 40.5 327 60 327 c 2
 76 327 l 2
 95.5 327 104 322 104 312 c 2xee
 104 61 l 1
 208 61 l 2
 217.5 61 222 54 222 37.5 c 2
 222 23.5 l 2
 222 7 217.5 0 208 0 c 2
 51 0 l 2
259 -99 m 0
 222 -99 210.5 -92.5 210.5 -74.5 c 0
 210.5 -64 217.5 -42.5 227.5 -42.5 c 0
 230 -42.5 236 -44.5 241.5 -44.5 c 0
 253.5 -44.5 258 -38 258 -24 c 2
 258 229.5 l 2
 258 239.5 266.5 244.5 286 244.5 c 2
 299 244.5 l 2
 318.5 244.5 327 239.5 327 229.5 c 2
 327 -23.5 l 2
 327 -74 297.5 -99 259 -99 c 0
EndSplineSet
Validated: 524289
Position2: "'cpsp' Capital Spacing lookup 0 subtable" dx=5 dy=0 dh=10 dv=0
EndChar

StartChar: Lslash
Encoding: 321 321 95
Width: 227
VWidth: 466
GlyphClass: 2
Flags: MW
HStem: 0 61<45 209 105 209 105 209> 229 20G<151.5 154> 307 20G<61 77 77 86.75>
VStem: 33 72<61 140.5 140.5 140.5 177.5 184 221.5 312>
LayerCount: 2
Back
Fore
SplineSet
51.5 0 m 2
 38.5 0 33 5.5 33 18.5 c 2
 33 140.5 l 1
 24 134.5 l 2
 21.5 133 19 132.5 17 132.5 c 0
 13.5 132.5 12 135 12 141.5 c 2
 12 151 l 2
 12 161 16 167 24 172 c 2
 33 177.5 l 1
 33 312 l 2
 33 322 41.5 327 61 327 c 2
 77 327 l 2
 96.5 327 105 322 105 312 c 2
 105 221.5 l 1
 145.5 246 l 2
 148 248 150.5 249 152.5 249 c 0
 155.5 249 157.5 245.5 157.5 239.5 c 2
 157.5 230 l 2
 157.5 220.5 154 214 145.5 209 c 2
 105 184 l 1
 105 61 l 1
 209 61 l 2
 218.5 61 222.5 54 222.5 37.5 c 2
 222.5 23.5 l 2
 222.5 7 218.5 0 209 0 c 2
 51.5 0 l 2
EndSplineSet
Validated: 524289
Position2: "'cpsp' Capital Spacing lookup 0 subtable" dx=5 dy=0 dh=10 dv=0
EndChar

StartChar: M
Encoding: 77 77 96
Width: 393
VWidth: 466
GlyphClass: 2
Flags: MW
HStem: -1 21G<50.25 60 60 73.5 309.25 319 319 332.5> 307 20G<60 85 85 91.75 308.5 332.5 332.5 342.5>
VStem: 32 69.5<14 207> 291 69.5<14 207 207 207>
LayerCount: 2
Back
Fore
SplineSet
60 -1 m 2
 40.5 -1 32 4 32 14 c 2
 32 312 l 2
 32 322 40.5 327 60 327 c 2
 85 327 l 2
 98.5 327 109 324 114 314.5 c 2
 192.5 175 l 1
 196 168.5 l 1
 200.5 176.5 l 1
 279 314.5 l 2
 284.5 324 295 327 308.5 327 c 2
 332.5 327 l 2
 352.5 327 360.5 322 360.5 312 c 2
 360.5 14 l 2
 360.5 4 352.5 -1 332.5 -1 c 2
 319 -1 l 2
 299.5 -1 291 4 291 14 c 2
 291 207 l 1
 289.5 207.5 l 1
 222 86.5 l 2
 217.5 81 212 78 203 78 c 2
 189.5 78 l 2
 181 78 175 81 171 86.5 c 2
 103.5 207.5 l 1
 101.5 207 l 1
 101.5 14 l 2
 101.5 4 93 -1 73.5 -1 c 2
 60 -1 l 2
EndSplineSet
Validated: 524289
Position2: "'cpsp' Capital Spacing lookup 0 subtable" dx=5 dy=0 dh=10 dv=0
EndChar

StartChar: N
Encoding: 78 78 97
Width: 335
VWidth: 466
GlyphClass: 2
Flags: MW
HStem: -1 21G<50.25 60 60 73.5 250.25 257 257 275> 307 20G<60 80 80 86.75 261.5 275 275 284.75>
VStem: 32 69.5<14 202.5> 233.5 69.5<126 312>
AnchorPoint: "Anchor-1" 168 326 basechar 0
AnchorPoint: "Anchor-0" 168 0 basechar 0
LayerCount: 2
Back
Fore
SplineSet
60 -1 m 2
 40.5 -1 32 4 32 14 c 2
 32 312 l 2
 32 322 40.5 327 60 327 c 2
 80 327 l 2
 93.5 327 104 325.5 111 314.5 c 2
 221 145 l 1
 233.5 126 l 1
 233.5 312 l 2
 233.5 322 242 327 261.5 327 c 2
 275 327 l 2
 294.5 327 303 322 303 312 c 2
 303 14 l 2
 303 4 294.5 -1 275 -1 c 2
 257 -1 l 2
 243.5 -1 233.5 1 226.5 11.5 c 2
 111.5 188 l 1
 101.5 202.5 l 1
 101.5 14 l 2
 101.5 4 93 -1 73.5 -1 c 2
 60 -1 l 2
EndSplineSet
Validated: 524289
Position2: "'cpsp' Capital Spacing lookup 0 subtable" dx=5 dy=0 dh=10 dv=0
EndChar

StartChar: uni01CA
Encoding: 458 458 98
Width: 523
VWidth: 466
GlyphClass: 2
Flags: MW
HStem: -3.5 61<387.25 394 372.75 427.5> -1 21G<50.25 60 60 73.5 250.25 257 257 275> 307 20G<60 80 80 86.75 261.5 275 275 284.75> 307.5 20G<447.5 463.5 463.5 473.25>
VStem: 32 69.5<14 202.5> 233.5 69.5<126 312> 419.5 72<106 312>
AnchorPoint: "Anchor-1" 457 326 basechar 0
AnchorPoint: "Anchor-0" 168 0 basechar 0
LayerCount: 2
Back
Fore
SplineSet
393 -3.5 m 0x9e
 381.5 -3.5 335 -2.5 335 17.5 c 0
 335 26 339.5 59.5 354 61 c 0
 359 61 365.5 57.5 380 57.5 c 0
 408 57.5 419.5 72 419.5 106 c 2
 419.5 312 l 2
 419.5 322 427.5 327.5 447.5 327.5 c 2
 463.5 327.5 l 2
 483 327.5 491.5 322 491.5 312 c 2
 491.5 94 l 2
 491.5 35 462 -3.5 393 -3.5 c 0x9e
60 -1 m 2x6e
 40.5 -1 32 4 32 14 c 2
 32 312 l 2
 32 322 40.5 327 60 327 c 2
 80 327 l 2
 93.5 327 104 325.5 111 314.5 c 2
 221 145 l 1
 233.5 126 l 1
 233.5 312 l 2
 233.5 322 242 327 261.5 327 c 2
 275 327 l 2
 294.5 327 303 322 303 312 c 2
 303 14 l 2
 303 4 294.5 -1 275 -1 c 2
 257 -1 l 2
 243.5 -1 233.5 1 226.5 11.5 c 2
 111.5 188 l 1
 101.5 202.5 l 1
 101.5 14 l 2
 101.5 4 93 -1 73.5 -1 c 2
 60 -1 l 2x6e
EndSplineSet
Validated: 524289
Position2: "'cpsp' Capital Spacing lookup 0 subtable" dx=5 dy=0 dh=10 dv=0
EndChar

StartChar: Nacute
Encoding: 323 323 99
Width: 335
VWidth: 466
GlyphClass: 2
Flags: MW
HStem: -1 21G<50.25 60 60 73.5 250.25 257 257 275> 307 20G<60 80 80 86.75 261.5 275 275 284.75> 350.5 74<144 214.25>
VStem: 32 69.5<14 202.5> 233.5 69.5<126 312>
AnchorPoint: "Anchor-1" 168 326 basechar 0
AnchorPoint: "Anchor-0" 168 0 basechar 0
LayerCount: 2
Back
Fore
SplineSet
149.5 350.5 m 0
 138.5 350.5 135 352.5 135 357.5 c 0
 135 362.5 144 374 165.5 412 c 0
 171 421.5 186.5 424.5 205 424.5 c 0
 223.5 424.5 233 423 233 418 c 0
 233 412.5 230 411.5 184.5 362 c 0
 179.5 356.5 171.5 350.5 149.5 350.5 c 0
60 -1 m 2
 40.5 -1 32 4 32 14 c 2
 32 312 l 2
 32 322 40.5 327 60 327 c 2
 80 327 l 2
 93.5 327 104 325.5 111 314.5 c 2
 221 145 l 1
 233.5 126 l 1
 233.5 312 l 2
 233.5 322 242 327 261.5 327 c 2
 275 327 l 2
 294.5 327 303 322 303 312 c 2xd8
 303 14 l 2
 303 4 294.5 -1 275 -1 c 2
 257 -1 l 2
 243.5 -1 233.5 1 226.5 11.5 c 2
 111.5 188 l 1
 101.5 202.5 l 1
 101.5 14 l 2
 101.5 4 93 -1 73.5 -1 c 2
 60 -1 l 2
EndSplineSet
Validated: 524289
Substitution2: "'locl' Localized Forms in Latin lookup 14 subtable" Nacute.loclPLK
Substitution2: "'aalt' Access All Alternates lookup 0 subtable" Nacute.loclPLK
Position2: "'cpsp' Capital Spacing lookup 0 subtable" dx=5 dy=0 dh=10 dv=0
EndChar

StartChar: Ncaron
Encoding: 327 327 100
Width: 335
VWidth: 466
GlyphClass: 2
Flags: MW
HStem: -1 21G<50.25 60 60 73.5 250.25 257 257 275> 307 20G<60 80 80 86.75 261.5 275 275 284.75> 349 68<113 165.5 113 170.5>
VStem: 32 69.5<14 202.5> 233.5 69.5<126 312>
AnchorPoint: "Anchor-1" 168 326 basechar 0
AnchorPoint: "Anchor-0" 168 0 basechar 0
LayerCount: 2
Back
Fore
SplineSet
165.5 349 m 2
 152 349 142 349.5 137 358 c 2
 106.5 405.5 l 2
 105 408 104 410.5 104 412.5 c 0
 104 415.5 106.5 417 113 417 c 2
 123.5 417 l 2
 137 417 147.5 415 154.5 405.5 c 2
 167.5 387.5 l 1
 180.5 406 l 2
 187 415 199 417 212.5 417 c 2
 222.5 417 l 2
 228.5 417 232 415.5 232 412.5 c 0
 232 410.5 231 408 229 405.5 c 2
 199 358 l 2
 194 349.5 184 349 170.5 349 c 2
 165.5 349 l 2
60 -1 m 2
 40.5 -1 32 4 32 14 c 2
 32 312 l 2
 32 322 40.5 327 60 327 c 2
 80 327 l 2
 93.5 327 104 325.5 111 314.5 c 2
 221 145 l 1
 233.5 126 l 1
 233.5 312 l 2
 233.5 322 242 327 261.5 327 c 2
 275 327 l 2
 294.5 327 303 322 303 312 c 2xd8
 303 14 l 2
 303 4 294.5 -1 275 -1 c 2
 257 -1 l 2
 243.5 -1 233.5 1 226.5 11.5 c 2
 111.5 188 l 1
 101.5 202.5 l 1
 101.5 14 l 2
 101.5 4 93 -1 73.5 -1 c 2
 60 -1 l 2
EndSplineSet
Validated: 524289
Position2: "'cpsp' Capital Spacing lookup 0 subtable" dx=5 dy=0 dh=10 dv=0
EndChar

StartChar: Ncommaaccent
Encoding: 325 325 101
Width: 335
VWidth: 466
GlyphClass: 2
Flags: MW
HStem: -112 21G<142.25 154.75> -112 88<142.25 173.5> -1 21G<50.25 60 60 73.5 250.25 257 257 275> 307 20G<60 80 80 86.75 261.5 275 275 284.75>
VStem: 32 69.5<14 202.5> 137 60<-60 -38.5 -60 -38> 233.5 69.5<126 312>
AnchorPoint: "Anchor-1" 168 326 basechar 0
AnchorPoint: "Anchor-0" 168 -95 basechar 0
LayerCount: 2
Back
Fore
SplineSet
60 -1 m 2xbe
 40.5 -1 32 4 32 14 c 2
 32 312 l 2
 32 322 40.5 327 60 327 c 2
 80 327 l 2
 93.5 327 104 325.5 111 314.5 c 2
 221 145 l 1
 233.5 126 l 1
 233.5 312 l 2
 233.5 322 242 327 261.5 327 c 2
 275 327 l 2
 294.5 327 303 322 303 312 c 2
 303 14 l 2
 303 4 294.5 -1 275 -1 c 2
 257 -1 l 2
 243.5 -1 233.5 1 226.5 11.5 c 2
 111.5 188 l 1
 101.5 202.5 l 1
 101.5 14 l 2
 101.5 4 93 -1 73.5 -1 c 2
 60 -1 l 2xbe
146.5 -112 m 0
 138 -112 125.5 -109 125.5 -101.5 c 0
 125.5 -93 137 -81.5 137 -44.5 c 0
 137 -31.5 145 -24 164.5 -24 c 2
 173.5 -24 l 2x7e
 190 -24 197 -32.5 197 -44.5 c 0
 197 -75.5 163 -112 146.5 -112 c 0
EndSplineSet
Validated: 524289
Position2: "'cpsp' Capital Spacing lookup 0 subtable" dx=5 dy=0 dh=10 dv=0
EndChar

StartChar: uni1E44
Encoding: 7748 7748 102
Width: 335
VWidth: 466
GlyphClass: 2
Flags: MW
HStem: -1 21G<50.25 60 60 73.5 250.25 257 257 275> 307 20G<60 80 80 86.75 261.5 275 275 284.75> 352 42.5<140 177.75>
VStem: 32 69.5<14 202.5> 140 56<367 394.5 362 399.5> 233.5 69.5<126 312>
AnchorPoint: "Anchor-1" 168 326 basechar 0
AnchorPoint: "Anchor-0" 168 0 basechar 0
LayerCount: 2
Back
Fore
SplineSet
168 352 m 0
 148.5 352 140 357 140 367 c 2
 140 394.5 l 2
 140 404.5 148.5 409.5 168 409.5 c 0
 187.5 409.5 196 404.5 196 394.5 c 2
 196 367 l 2
 196 357 187.5 352 168 352 c 0
60 -1 m 2
 40.5 -1 32 4 32 14 c 2
 32 312 l 2
 32 322 40.5 327 60 327 c 2
 80 327 l 2
 93.5 327 104 325.5 111 314.5 c 2
 221 145 l 1
 233.5 126 l 1
 233.5 312 l 2
 233.5 322 242 327 261.5 327 c 2
 275 327 l 2
 294.5 327 303 322 303 312 c 2xdc
 303 14 l 2
 303 4 294.5 -1 275 -1 c 2
 257 -1 l 2
 243.5 -1 233.5 1 226.5 11.5 c 2
 111.5 188 l 1
 101.5 202.5 l 1
 101.5 14 l 2
 101.5 4 93 -1 73.5 -1 c 2
 60 -1 l 2
EndSplineSet
Validated: 524289
Position2: "'cpsp' Capital Spacing lookup 0 subtable" dx=5 dy=0 dh=10 dv=0
EndChar

StartChar: Eng
Encoding: 330 330 103
Width: 335
VWidth: 466
GlyphClass: 2
Flags: MW
HStem: -99 54.5<216.5 223.5 214.75 254.25> -1 21G<50.25 60 60 73.5> 307 20G<60 80 80 86.75 261.5 275 275 284.75>
VStem: 32 69.5<14 202.5> 233.5 69.5<126 312>
AnchorPoint: "Anchor-1" 268 244 basechar 0
AnchorPoint: "Anchor-0" 0 0 basechar 0
LayerCount: 2
Back
Fore
SplineSet
275 327 m 2
 294.5 327 303 322 303 312 c 2
 303 -23.5 l 2
 303 -74 273.5 -99 235 -99 c 0
 198 -99 186.5 -92.5 186.5 -74.5 c 0
 186.5 -64 193.5 -42.5 203.5 -42.5 c 0
 206 -42.5 212 -44.5 217.5 -44.5 c 0
 229.5 -44.5 234 -38 234 -24 c 2
 234 1 l 1
 113 184.5 l 1
 101.5 202.5 l 1
 101.5 14 l 2
 101.5 4 93 -1 73.5 -1 c 2
 60 -1 l 2
 40.5 -1 32 4 32 14 c 2
 32 312 l 2
 32 322 40.5 327 60 327 c 2
 80 327 l 2
 93.5 327 104 325.5 111 314.5 c 2
 233.5 126 l 1
 233.5 312 l 2
 233.5 322 242 327 261.5 327 c 2
 275 327 l 2
EndSplineSet
Validated: 524289
Position2: "'cpsp' Capital Spacing lookup 0 subtable" dx=5 dy=0 dh=10 dv=0
EndChar

StartChar: uni01CB
Encoding: 459 459 104
Width: 464
VWidth: 466
GlyphClass: 2
Flags: MW
HStem: -99 54.5<350 357 348.25 387.75> -1 21G<50.25 60 60 73.5 250.25 257 257 275> 224.5 20G<395.5 408.5 408.5 418.25> 284 67.5<385.75 408.5 395.5 408.5> 307 20G<60 80 80 86.75 261.5 275 275 284.75>
VStem: 32 69.5<14 202.5> 233.5 69.5<126 312> 367.5 69<-24 -23.5 -23.5 229.5 298.5 336.5>
AnchorPoint: "Anchor-1" 168 326 basechar 0
AnchorPoint: "Anchor-0" 168 0 basechar 0
LayerCount: 2
Back
Fore
SplineSet
395.5 284 m 2xf7
 376 284 367.5 289 367.5 298.5 c 2
 367.5 336.5 l 2
 367.5 346 376 351.5 395.5 351.5 c 2
 408.5 351.5 l 2
 428 351.5 436.5 346 436.5 336.5 c 2
 436.5 298.5 l 2
 436.5 289 428 284 408.5 284 c 2
 395.5 284 l 2xf7
60 -1 m 2
 40.5 -1 32 4 32 14 c 2
 32 312 l 2
 32 322 40.5 327 60 327 c 2
 80 327 l 2
 93.5 327 104 325.5 111 314.5 c 2
 221 145 l 1
 233.5 126 l 1
 233.5 312 l 2
 233.5 322 242 327 261.5 327 c 2
 275 327 l 2
 294.5 327 303 322 303 312 c 2xef
 303 14 l 2
 303 4 294.5 -1 275 -1 c 2
 257 -1 l 2
 243.5 -1 233.5 1 226.5 11.5 c 2
 111.5 188 l 1
 101.5 202.5 l 1
 101.5 14 l 2
 101.5 4 93 -1 73.5 -1 c 2
 60 -1 l 2
368.5 -99 m 0
 331.5 -99 320 -92.5 320 -74.5 c 0
 320 -64 327 -42.5 337 -42.5 c 0
 339.5 -42.5 345.5 -44.5 351 -44.5 c 0
 363 -44.5 367.5 -38 367.5 -24 c 2
 367.5 229.5 l 2
 367.5 239.5 376 244.5 395.5 244.5 c 2
 408.5 244.5 l 2
 428 244.5 436.5 239.5 436.5 229.5 c 2
 436.5 -23.5 l 2
 436.5 -74 407 -99 368.5 -99 c 0
EndSplineSet
Validated: 524289
Position2: "'cpsp' Capital Spacing lookup 0 subtable" dx=5 dy=0 dh=10 dv=0
EndChar

StartChar: Ntilde
Encoding: 209 209 105
Width: 335
VWidth: 466
GlyphClass: 2
Flags: MW
HStem: -1 21G<50.25 60 60 73.5 250.25 257 257 275> 307 20G<60 80 80 86.75 261.5 275 275 284.75> 353.5 39<196.5 198.5 196.5 207.75> 367 39<127 129>
VStem: 32 69.5<14 202.5> 233.5 69.5<126 312>
AnchorPoint: "Anchor-1" 168 326 basechar 0
AnchorPoint: "Anchor-0" 168 0 basechar 0
LayerCount: 2
Back
Fore
SplineSet
94.5 353 m 2xec
 89 354 l 2xec
 81.5 356.5 79 361.5 79 367 c 0
 79 369 79.5 371.5 80 373.5 c 0
 86.5 390 104 406 131 406 c 0xdc
 147 406 181 393.5 196.5 392.5 c 0xec
 200.5 392.5 206.5 393.5 212 400 c 0
 217 406 220.5 408 225 408 c 0
 226.5 408 229 407.5 230.5 407 c 2
 236 405.5 l 2xdc
 244 403 246.5 398 246.5 393 c 0
 246.5 390.5 246 388 245.5 386.5 c 0
 239 369.5 221 353.5 194.5 353.5 c 0xec
 178.5 353.5 144 366.5 129 367 c 0xdc
 125 367 119 366.5 113.5 360 c 0
 108.5 353.5 104.5 352 100 352 c 0
 98.5 352 96.5 352 94.5 353 c 2xec
60 -1 m 2xdc
 40.5 -1 32 4 32 14 c 2
 32 312 l 2
 32 322 40.5 327 60 327 c 2
 80 327 l 2
 93.5 327 104 325.5 111 314.5 c 2
 221 145 l 1
 233.5 126 l 1
 233.5 312 l 2
 233.5 322 242 327 261.5 327 c 2
 275 327 l 2
 294.5 327 303 322 303 312 c 2
 303 14 l 2
 303 4 294.5 -1 275 -1 c 2
 257 -1 l 2
 243.5 -1 233.5 1 226.5 11.5 c 2
 111.5 188 l 1
 101.5 202.5 l 1
 101.5 14 l 2
 101.5 4 93 -1 73.5 -1 c 2
 60 -1 l 2xdc
EndSplineSet
Validated: 524289
Position2: "'cpsp' Capital Spacing lookup 0 subtable" dx=5 dy=0 dh=10 dv=0
EndChar

StartChar: O
Encoding: 79 79 106
Width: 341
VWidth: 466
GlyphClass: 2
Flags: MW
HStem: -3.5 61<145.5 195.5 145.5 218.5> 268.5 61.5<145.5 195.5>
VStem: 21 73.5<128.75 197.25 128.75 216.75> 246 73.5<128.75 197.25>
AnchorPoint: "Anchor-1" 171 326 basechar 0
AnchorPoint: "Anchor-0" 171 0 basechar 0
LayerCount: 2
Back
Fore
SplineSet
170.5 -3.5 m 0
 74.5 -3.5 21 55.5 21 163 c 0
 21 270.5 74.5 330 170.5 330 c 0
 266.5 330 319.5 270.5 319.5 163 c 0
 319.5 55.5 266.5 -3.5 170.5 -3.5 c 0
170.5 57.5 m 0
 220.5 57.5 246 94.5 246 163 c 0
 246 231.5 220.5 268.5 170.5 268.5 c 0
 120.5 268.5 94.5 231.5 94.5 163 c 0
 94.5 94.5 120.5 57.5 170.5 57.5 c 0
EndSplineSet
Validated: 524289
Substitution2: "Single Substitution lookup 49 subtable" ordmasculine
Substitution2: "'aalt' Access All Alternates lookup 0 subtable" ordmasculine
Position2: "'cpsp' Capital Spacing lookup 0 subtable" dx=5 dy=0 dh=10 dv=0
EndChar

StartChar: Oacute
Encoding: 211 211 107
Width: 341
VWidth: 466
GlyphClass: 2
Flags: MW
HStem: -3.5 61<145.5 195.5 145.5 218.5> 268.5 61.5<145.5 195.5> 350.5 74<146.5 216.75>
VStem: 21 73.5<128.75 197.25 128.75 216.75> 246 73.5<128.75 197.25>
AnchorPoint: "Anchor-1" 171 326 basechar 0
AnchorPoint: "Anchor-0" 171 0 basechar 0
LayerCount: 2
Back
Fore
SplineSet
152 350.5 m 0
 141 350.5 137.5 352.5 137.5 357.5 c 0
 137.5 362.5 146.5 374 168 412 c 0
 173.5 421.5 189 424.5 207.5 424.5 c 0
 226 424.5 235.5 423 235.5 418 c 0
 235.5 412.5 232.5 411.5 187 362 c 0
 182 356.5 174 350.5 152 350.5 c 0
170.5 -3.5 m 0
 74.5 -3.5 21 55.5 21 163 c 0
 21 270.5 74.5 330 170.5 330 c 0xd8
 266.5 330 319.5 270.5 319.5 163 c 0
 319.5 55.5 266.5 -3.5 170.5 -3.5 c 0
170.5 57.5 m 0
 220.5 57.5 246 94.5 246 163 c 0
 246 231.5 220.5 268.5 170.5 268.5 c 0xd8
 120.5 268.5 94.5 231.5 94.5 163 c 0
 94.5 94.5 120.5 57.5 170.5 57.5 c 0
EndSplineSet
Validated: 524289
Substitution2: "'locl' Localized Forms in Latin lookup 14 subtable" Oacute.loclPLK
Substitution2: "'aalt' Access All Alternates lookup 0 subtable" Oacute.loclPLK
Position2: "'cpsp' Capital Spacing lookup 0 subtable" dx=5 dy=0 dh=10 dv=0
EndChar

StartChar: Obreve
Encoding: 334 334 108
Width: 341
VWidth: 466
GlyphClass: 2
Flags: MW
HStem: -3.5 61<145.5 195.5 145.5 218.5> 268.5 61.5<145.5 195.5> 350.5 42.5<158.75 183.25 158.75 190.75>
VStem: 21 73.5<128.75 197.25 128.75 216.75> 102 137<389.25 406.75> 246 73.5<128.75 197.25>
AnchorPoint: "Anchor-1" 171 402 basechar 0
AnchorPoint: "Anchor-0" 171 0 basechar 0
LayerCount: 2
Back
Fore
SplineSet
170.5 350.5 m 0
 130 350.5 102 376 102 402.5 c 0
 102 411 108 415.5 118.5 415.5 c 0
 126.5 415.5 129.5 412 134 407.5 c 0
 140 401 147 393 170.5 393 c 0
 196 393 202.5 401.5 208.5 408 c 0
 212 412.5 215.5 415.5 223 415.5 c 0
 233 415.5 239 411 239 402.5 c 0
 239 376 211 350.5 170.5 350.5 c 0
170.5 -3.5 m 0xd4
 74.5 -3.5 21 55.5 21 163 c 0
 21 270.5 74.5 330 170.5 330 c 0
 266.5 330 319.5 270.5 319.5 163 c 0
 319.5 55.5 266.5 -3.5 170.5 -3.5 c 0xd4
170.5 57.5 m 0
 220.5 57.5 246 94.5 246 163 c 0
 246 231.5 220.5 268.5 170.5 268.5 c 0
 120.5 268.5 94.5 231.5 94.5 163 c 0
 94.5 94.5 120.5 57.5 170.5 57.5 c 0
EndSplineSet
Validated: 524289
Position2: "'cpsp' Capital Spacing lookup 0 subtable" dx=5 dy=0 dh=10 dv=0
EndChar

StartChar: Ocircumflex
Encoding: 212 212 109
Width: 341
VWidth: 466
GlyphClass: 2
Flags: MW
HStem: -3.5 61<145.5 195.5 145.5 218.5> 268.5 61.5<145.5 195.5> 349 68<112.25 173 115.5 173 168 215 168 225>
VStem: 21 73.5<128.75 197.25 128.75 216.75> 246 73.5<128.75 197.25>
AnchorPoint: "Anchor-1" 249 379 basechar 0
AnchorPoint: "Anchor-0" 171 0 basechar 0
LayerCount: 2
Back
Fore
SplineSet
115.5 349 m 2
 109 349 106.5 350.5 106.5 353.5 c 0
 106.5 355.5 107.5 358 109 360.5 c 2
 139.5 408 l 2
 144.5 416.5 154.5 417 168 417 c 2
 173 417 l 2
 186.5 417 196.5 416.5 201.5 408 c 2
 231.5 360.5 l 2
 233.5 358 234.5 355.5 234.5 353.5 c 0
 234.5 350.5 231 349 225 349 c 2
 215 349 l 2
 201.5 349 189.5 351.5 183 360 c 2
 170 379 l 1
 157 360.5 l 2
 150 351 139.5 349 126 349 c 2
 115.5 349 l 2
170.5 -3.5 m 0
 74.5 -3.5 21 55.5 21 163 c 0
 21 270.5 74.5 330 170.5 330 c 0xd8
 266.5 330 319.5 270.5 319.5 163 c 0
 319.5 55.5 266.5 -3.5 170.5 -3.5 c 0
170.5 57.5 m 0
 220.5 57.5 246 94.5 246 163 c 0
 246 231.5 220.5 268.5 170.5 268.5 c 0xd8
 120.5 268.5 94.5 231.5 94.5 163 c 0
 94.5 94.5 120.5 57.5 170.5 57.5 c 0
EndSplineSet
Validated: 524289
Position2: "'cpsp' Capital Spacing lookup 0 subtable" dx=5 dy=0 dh=10 dv=0
EndChar

StartChar: uni1ED0
Encoding: 7888 7888 110
Width: 341
VWidth: 466
GlyphClass: 2
Flags: MW
HStem: -3.5 61<145.5 195.5 145.5 218.5> 268.5 61.5<145.5 195.5> 349 68<112.25 173 115.5 173 168 208 168 218> 384.5 64.5<219.25 270.5>
VStem: 21 73.5<128.75 197.25 128.75 216.75> 246 73.5<128.75 197.25>
AnchorPoint: "Anchor-1" 233 386 basechar 0
AnchorPoint: "Anchor-0" 171 0 basechar 0
LayerCount: 2
Back
Fore
SplineSet
223 384.5 m 0xec
 215.5 384.5 213.5 386.5 213.5 391.5 c 0xec
 213.5 395.5 218 405.5 229.5 436.5 c 0
 235 446.5 248.5 449 264.5 449 c 0
 276.5 449 283 447 283 438 c 0xdc
 283 433.5 277 426 248.5 391.5 c 0
 245 387.5 239.5 384.5 223 384.5 c 0xec
115.5 349 m 2
 109 349 106.5 350.5 106.5 353.5 c 0
 106.5 355.5 107.5 358 109 360.5 c 2
 139.5 408 l 2
 144.5 416.5 154.5 417 168 417 c 2
 173 417 l 2
 184 417 192 416.5 197 408 c 2
 224.5 360.5 l 2
 226.5 358 227.5 355.5 227.5 353.5 c 0
 227.5 350.5 224.5 349 218 349 c 2
 208 349 l 2
 194.5 349 179.5 350.5 176.5 360 c 2
 170 379 l 1
 157 360.5 l 2
 150 351 139.5 349 126 349 c 2
 115.5 349 l 2
170.5 -3.5 m 0xcc
 74.5 -3.5 21 55.5 21 163 c 0
 21 270.5 74.5 330 170.5 330 c 0
 266.5 330 319.5 270.5 319.5 163 c 0
 319.5 55.5 266.5 -3.5 170.5 -3.5 c 0xcc
170.5 57.5 m 0
 220.5 57.5 246 94.5 246 163 c 0
 246 231.5 220.5 268.5 170.5 268.5 c 0
 120.5 268.5 94.5 231.5 94.5 163 c 0
 94.5 94.5 120.5 57.5 170.5 57.5 c 0
EndSplineSet
Validated: 524289
Position2: "'cpsp' Capital Spacing lookup 0 subtable" dx=5 dy=0 dh=10 dv=0
EndChar

StartChar: uni1ED8
Encoding: 7896 7896 111
Width: 341
VWidth: 466
GlyphClass: 2
Flags: MW
HStem: -95 42.5<144 181.75> -3.5 61<145.5 195.5 145.5 218.5> 268.5 61.5<145.5 195.5> 349 68<112.25 173 115.5 173 168 215 168 225>
VStem: 21 73.5<128.75 197.25 128.75 216.75> 144 56<-80 -52.5 -85 -47.5> 246 73.5<128.75 197.25>
AnchorPoint: "Anchor-1" 249 379 basechar 0
AnchorPoint: "Anchor-0" 172 -95 basechar 0
LayerCount: 2
Back
Fore
SplineSet
115.5 349 m 2
 109 349 106.5 350.5 106.5 353.5 c 0
 106.5 355.5 107.5 358 109 360.5 c 2
 139.5 408 l 2
 144.5 416.5 154.5 417 168 417 c 2
 173 417 l 2
 186.5 417 196.5 416.5 201.5 408 c 2
 231.5 360.5 l 2
 233.5 358 234.5 355.5 234.5 353.5 c 0
 234.5 350.5 231 349 225 349 c 2
 215 349 l 2
 201.5 349 189.5 351.5 183 360 c 2
 170 379 l 1
 157 360.5 l 2
 150 351 139.5 349 126 349 c 2
 115.5 349 l 2
170.5 -3.5 m 0
 74.5 -3.5 21 55.5 21 163 c 0
 21 270.5 74.5 330 170.5 330 c 0xee
 266.5 330 319.5 270.5 319.5 163 c 0
 319.5 55.5 266.5 -3.5 170.5 -3.5 c 0
170.5 57.5 m 0
 220.5 57.5 246 94.5 246 163 c 0
 246 231.5 220.5 268.5 170.5 268.5 c 0xee
 120.5 268.5 94.5 231.5 94.5 163 c 0
 94.5 94.5 120.5 57.5 170.5 57.5 c 0
172 -95 m 0xee
 152.5 -95 144 -90 144 -80 c 2
 144 -52.5 l 2
 144 -42.5 152.5 -37.5 172 -37.5 c 0
 191.5 -37.5 200 -42.5 200 -52.5 c 2
 200 -80 l 2
 200 -90 191.5 -95 172 -95 c 0xee
EndSplineSet
Validated: 524289
Position2: "'cpsp' Capital Spacing lookup 0 subtable" dx=5 dy=0 dh=10 dv=0
EndChar

StartChar: uni1ED2
Encoding: 7890 7890 112
Width: 341
VWidth: 466
GlyphClass: 2
Flags: MW
HStem: -3.5 61<145.5 195.5 145.5 218.5> 268.5 61.5<145.5 195.5> 349 68<112.25 173 115.5 173 168 208 168 218> 384 64.5<194 247.25>
VStem: 21 73.5<128.75 197.25 128.75 216.75> 246 73.5<128.75 197.25>
AnchorPoint: "Anchor-1" 233 386 basechar 0
AnchorPoint: "Anchor-0" 171 0 basechar 0
LayerCount: 2
Back
Fore
SplineSet
241.5 384 m 0xdc
 224 384 217.5 390 212.5 395.5 c 0xdc
 181 436.5 179 437.5 179 442 c 0
 179 447.5 187 448.5 201 448.5 c 0
 219.5 448.5 236.5 446 240.5 436 c 0xec
 253 406 256 395 256 391 c 0
 256 386 253 384 241.5 384 c 0xdc
115.5 349 m 2xec
 109 349 106.5 350.5 106.5 353.5 c 0
 106.5 355.5 107.5 358 109 360.5 c 2
 139.5 408 l 2
 144.5 416.5 154.5 417 168 417 c 2
 173 417 l 2
 184 417 192 416.5 197 408 c 2
 224.5 360.5 l 2
 226.5 358 227.5 355.5 227.5 353.5 c 0
 227.5 350.5 224.5 349 218 349 c 2
 208 349 l 2
 194.5 349 179.5 350.5 176.5 360 c 2
 170 379 l 1
 157 360.5 l 2
 150 351 139.5 349 126 349 c 2
 115.5 349 l 2xec
170.5 -3.5 m 0
 74.5 -3.5 21 55.5 21 163 c 0
 21 270.5 74.5 330 170.5 330 c 0xdc
 266.5 330 319.5 270.5 319.5 163 c 0
 319.5 55.5 266.5 -3.5 170.5 -3.5 c 0
170.5 57.5 m 0
 220.5 57.5 246 94.5 246 163 c 0
 246 231.5 220.5 268.5 170.5 268.5 c 0xdc
 120.5 268.5 94.5 231.5 94.5 163 c 0
 94.5 94.5 120.5 57.5 170.5 57.5 c 0
EndSplineSet
Validated: 524289
Position2: "'cpsp' Capital Spacing lookup 0 subtable" dx=5 dy=0 dh=10 dv=0
EndChar

StartChar: uni1ED4
Encoding: 7892 7892 113
Width: 341
VWidth: 466
GlyphClass: 2
Flags: MW
HStem: -3.5 61<145.5 195.5 145.5 218.5> 268.5 61.5<145.5 195.5> 349 68<112.25 173 115.5 173 201.25 204.75 168 208 168 218> 417 33<200.75 239.5>
VStem: 21 73.5<128.75 197.25 128.75 216.75> 237 32.5<415.25 419.75> 246 73.5<128.75 197.25>
AnchorPoint: "Anchor-1" 233 451 basechar 0
AnchorPoint: "Anchor-0" 171 0 basechar 0
LayerCount: 2
Back
Fore
SplineSet
234.5 387 m 0xec
 222 387 214 391.5 214 396.5 c 0
 214 398.5 218 402 222.5 404 c 0xec
 231.5 408.5 237 410.5 237 417 c 0
 237 422.5 232 425 227.5 425 c 0
 212 425 207 417 202.5 417 c 0
 199 417 188.5 429.5 188.5 436.5 c 0
 188.5 443 209.5 450 226 450 c 0
 253 450 269.5 437.5 269.5 419 c 0xdc
 269.5 411.5 266.5 404.5 257 397 c 0
 252.5 393.5 242.5 387 234.5 387 c 0xec
115.5 349 m 2
 109 349 106.5 350.5 106.5 353.5 c 0
 106.5 355.5 107.5 358 109 360.5 c 2
 139.5 408 l 2
 144.5 416.5 154.5 417 168 417 c 2
 173 417 l 2
 184 417 192 416.5 197 408 c 2
 224.5 360.5 l 2
 226.5 358 227.5 355.5 227.5 353.5 c 0
 227.5 350.5 224.5 349 218 349 c 2
 208 349 l 2
 194.5 349 179.5 350.5 176.5 360 c 2
 170 379 l 1
 157 360.5 l 2
 150 351 139.5 349 126 349 c 2
 115.5 349 l 2
170.5 -3.5 m 0xda
 74.5 -3.5 21 55.5 21 163 c 0
 21 270.5 74.5 330 170.5 330 c 0
 266.5 330 319.5 270.5 319.5 163 c 0
 319.5 55.5 266.5 -3.5 170.5 -3.5 c 0xda
170.5 57.5 m 0
 220.5 57.5 246 94.5 246 163 c 0
 246 231.5 220.5 268.5 170.5 268.5 c 0
 120.5 268.5 94.5 231.5 94.5 163 c 0
 94.5 94.5 120.5 57.5 170.5 57.5 c 0
EndSplineSet
Validated: 524289
Position2: "'cpsp' Capital Spacing lookup 0 subtable" dx=5 dy=0 dh=10 dv=0
EndChar

StartChar: uni1ED6
Encoding: 7894 7894 114
Width: 341
VWidth: 466
GlyphClass: 2
Flags: MW
HStem: -3.5 61<145.5 195.5 145.5 218.5> 268.5 61.5<145.5 195.5> 349 57<112.25 173 115.5 173 168 215 168 225> 421 39<199 200.75 199 209.25> 434.5 39<135.75 137.5>
VStem: 21 73.5<128.75 197.25 128.75 216.75> 246 73.5<128.75 197.25>
AnchorPoint: "Anchor-1" 171 326 basechar 0
AnchorPoint: "Anchor-0" 171 0 basechar 0
LayerCount: 2
Back
Fore
SplineSet
106.5 420.5 m 2xd6
 101.5 421.5 l 2xd6
 94.5 424 92 429 92 434.5 c 0
 92 436.5 92.5 439 93 441 c 0
 99 457.5 115 473.5 139.5 473.5 c 0xce
 154 473.5 185 461 199 460 c 0xd6
 202.5 460 208 461 213 467.5 c 0
 217.5 473.5 221 475.5 225 475.5 c 0
 226.5 475.5 228.5 475 230 474.5 c 2
 235 473 l 2xce
 242 470.5 244.5 465.5 244.5 460.5 c 0
 244.5 458 244 455.5 243.5 454 c 0
 237.5 437 221.5 421 197 421 c 0xd6
 182.5 421 151.5 434 137.5 434.5 c 0xce
 134 434.5 128.5 434 123.5 427.5 c 0
 119 421 115.5 419.5 111.5 419.5 c 0
 110 419.5 108 419.5 106.5 420.5 c 2xd6
115.5 349 m 2xf6
 109 349 106.5 350.5 106.5 353.5 c 0
 106.5 355.5 107.5 358 109 360.5 c 2
 139.5 397 l 2
 146.5 404.5 154.5 406 168 406 c 2
 173 406 l 2
 186.5 406 194.5 404.5 201.5 397 c 2
 231.5 360.5 l 2
 233.5 358 234.5 355.5 234.5 353.5 c 0
 234.5 350.5 231 349 225 349 c 2
 215 349 l 2
 201.5 349 193 354 183 360 c 2
 170 373 l 1
 157 360.5 l 2
 146 354 139.5 349 126 349 c 2
 115.5 349 l 2xf6
170.5 -3.5 m 0
 74.5 -3.5 21 55.5 21 163 c 0
 21 270.5 74.5 330 170.5 330 c 0xd6
 266.5 330 319.5 270.5 319.5 163 c 0
 319.5 55.5 266.5 -3.5 170.5 -3.5 c 0
170.5 57.5 m 0
 220.5 57.5 246 94.5 246 163 c 0
 246 231.5 220.5 268.5 170.5 268.5 c 0xd6
 120.5 268.5 94.5 231.5 94.5 163 c 0
 94.5 94.5 120.5 57.5 170.5 57.5 c 0
EndSplineSet
Validated: 524289
Position2: "'cpsp' Capital Spacing lookup 0 subtable" dx=5 dy=0 dh=10 dv=0
EndChar

StartChar: Odieresis
Encoding: 214 214 115
Width: 341
VWidth: 466
GlyphClass: 2
Flags: MW
HStem: -3.5 61<145.5 195.5 145.5 218.5> 268.5 61.5<145.5 195.5> 352 42.5<100.5 138.25>
VStem: 21 73.5<128.75 197.25 128.75 216.75> 100.5 56<367 394.5 362 399.5> 184.5 56<367 394.5 362 399.5> 246 73.5<128.75 197.25>
AnchorPoint: "Anchor-1" 171 326 basechar 0
AnchorPoint: "Anchor-0" 171 0 basechar 0
LayerCount: 2
Back
Fore
SplineSet
128.5 352 m 0
 109 352 100.5 357 100.5 367 c 2
 100.5 394.5 l 2
 100.5 404.5 109 409.5 128.5 409.5 c 0
 148 409.5 156.5 404.5 156.5 394.5 c 2
 156.5 367 l 2
 156.5 357 148 352 128.5 352 c 0
212.5 352 m 0xf4
 193 352 184.5 357 184.5 367 c 2
 184.5 394.5 l 2
 184.5 404.5 193 409.5 212.5 409.5 c 0
 232 409.5 240.5 404.5 240.5 394.5 c 2
 240.5 367 l 2
 240.5 357 232 352 212.5 352 c 0xf4
170.5 -3.5 m 0
 74.5 -3.5 21 55.5 21 163 c 0
 21 270.5 74.5 330 170.5 330 c 0
 266.5 330 319.5 270.5 319.5 163 c 0xd2
 319.5 55.5 266.5 -3.5 170.5 -3.5 c 0
170.5 57.5 m 0xd2
 220.5 57.5 246 94.5 246 163 c 0
 246 231.5 220.5 268.5 170.5 268.5 c 0
 120.5 268.5 94.5 231.5 94.5 163 c 0
 94.5 94.5 120.5 57.5 170.5 57.5 c 0xd2
EndSplineSet
Validated: 524289
Position2: "'cpsp' Capital Spacing lookup 0 subtable" dx=5 dy=0 dh=10 dv=0
EndChar

StartChar: uni1ECC
Encoding: 7884 7884 116
Width: 341
VWidth: 466
GlyphClass: 2
Flags: MW
HStem: -95 42.5<144 181.75> -3.5 61<145.5 195.5 145.5 218.5> 268.5 61.5<145.5 195.5>
VStem: 21 73.5<128.75 197.25 128.75 216.75> 144 56<-80 -52.5 -85 -47.5> 246 73.5<128.75 197.25>
AnchorPoint: "Anchor-1" 171 326 basechar 0
AnchorPoint: "Anchor-0" 172 -95 basechar 0
LayerCount: 2
Back
Fore
SplineSet
170.5 -3.5 m 0
 74.5 -3.5 21 55.5 21 163 c 0
 21 270.5 74.5 330 170.5 330 c 0
 266.5 330 319.5 270.5 319.5 163 c 0
 319.5 55.5 266.5 -3.5 170.5 -3.5 c 0
170.5 57.5 m 0
 220.5 57.5 246 94.5 246 163 c 0
 246 231.5 220.5 268.5 170.5 268.5 c 0
 120.5 268.5 94.5 231.5 94.5 163 c 0
 94.5 94.5 120.5 57.5 170.5 57.5 c 0
172 -95 m 0
 152.5 -95 144 -90 144 -80 c 2
 144 -52.5 l 2
 144 -42.5 152.5 -37.5 172 -37.5 c 0
 191.5 -37.5 200 -42.5 200 -52.5 c 2
 200 -80 l 2
 200 -90 191.5 -95 172 -95 c 0
EndSplineSet
Validated: 524289
Position2: "'cpsp' Capital Spacing lookup 0 subtable" dx=5 dy=0 dh=10 dv=0
EndChar

StartChar: Ograve
Encoding: 210 210 117
Width: 341
VWidth: 466
GlyphClass: 2
Flags: MW
HStem: -3.5 61<145.5 195.5 145.5 218.5> 268.5 61.5<145.5 195.5> 350.5 74<126.75 197.25>
VStem: 21 73.5<128.75 197.25 128.75 216.75> 246 73.5<128.75 197.25>
AnchorPoint: "Anchor-1" 171 326 basechar 0
AnchorPoint: "Anchor-0" 171 0 basechar 0
LayerCount: 2
Back
Fore
SplineSet
191.5 350.5 m 0
 169.5 350.5 162 356.5 156.5 362 c 0
 111.5 411.5 108 412.5 108 418 c 0
 108 423 117.5 424.5 136 424.5 c 0
 155 424.5 170 421.5 175.5 412 c 0
 197 374 206 362.5 206 357.5 c 0
 206 352.5 203 350.5 191.5 350.5 c 0
170.5 -3.5 m 0
 74.5 -3.5 21 55.5 21 163 c 0
 21 270.5 74.5 330 170.5 330 c 0xd8
 266.5 330 319.5 270.5 319.5 163 c 0
 319.5 55.5 266.5 -3.5 170.5 -3.5 c 0
170.5 57.5 m 0
 220.5 57.5 246 94.5 246 163 c 0
 246 231.5 220.5 268.5 170.5 268.5 c 0xd8
 120.5 268.5 94.5 231.5 94.5 163 c 0
 94.5 94.5 120.5 57.5 170.5 57.5 c 0
EndSplineSet
Validated: 524289
Position2: "'cpsp' Capital Spacing lookup 0 subtable" dx=5 dy=0 dh=10 dv=0
EndChar

StartChar: uni1ECE
Encoding: 7886 7886 118
Width: 341
VWidth: 466
GlyphClass: 2
Flags: MW
HStem: -3.5 61<145.5 195.5 145.5 218.5> 268.5 61.5<145.5 195.5> 404 28.5<168.25 176.75>
VStem: 21 73.5<128.75 197.25 128.75 216.75> 187.5 41<387 397.25> 246 73.5<128.75 197.25>
AnchorPoint: "Anchor-1" 171 409 basechar 0
AnchorPoint: "Anchor-0" 171 0 basechar 0
LayerCount: 2
Back
Fore
SplineSet
181.5 348 m 0
 170.5 348 156.5 355 156.5 359 c 0
 156.5 367 187.5 380 187.5 394 c 0
 187.5 400.5 180.5 404 173 404 c 0
 162.5 404 157.5 398.5 153.5 398.5 c 0
 149.5 398.5 139.5 411 139.5 418 c 0
 139.5 424 160 432.5 176.5 432.5 c 0
 210 432.5 228.5 418.5 228.5 395.5 c 0
 228.5 371 190 348 181.5 348 c 0
170.5 -3.5 m 0
 74.5 -3.5 21 55.5 21 163 c 0
 21 270.5 74.5 330 170.5 330 c 0
 266.5 330 319.5 270.5 319.5 163 c 0xf4
 319.5 55.5 266.5 -3.5 170.5 -3.5 c 0
170.5 57.5 m 0xf4
 220.5 57.5 246 94.5 246 163 c 0
 246 231.5 220.5 268.5 170.5 268.5 c 0
 120.5 268.5 94.5 231.5 94.5 163 c 0
 94.5 94.5 120.5 57.5 170.5 57.5 c 0xf4
EndSplineSet
Validated: 524289
Position2: "'cpsp' Capital Spacing lookup 0 subtable" dx=5 dy=0 dh=10 dv=0
EndChar

StartChar: Ohorn
Encoding: 416 416 119
Width: 341
VWidth: 466
GlyphClass: 2
Flags: MW
HStem: -3.5 61<145.5 195.5 145.5 218.5> 268.5 61.5<145.5 183 122.5 195.5> 300 18
VStem: 21 73.5<128.75 197.25 128.75 216.75> 246 73.5<128.75 194.25 109.25 197.25> 270 37<331.25 340>
AnchorPoint: "Anchor-1" 198 374 basechar 0
AnchorPoint: "Anchor-0" 171 0 basechar 0
LayerCount: 2
Back
Fore
SplineSet
267.5 300 m 1xb8
 301.5 272 319.5 225.5 319.5 163 c 0
 319.5 55.5 266.5 -3.5 170.5 -3.5 c 0
 74.5 -3.5 21 55.5 21 163 c 0
 21 270.5 74.5 330 170.5 330 c 0xd8
 195.5 330 218 326 237 318 c 1
 248 318 l 2
 264 318 270 324 270 335 c 0
 270 345 257.5 353 257.5 359 c 0
 257.5 362.5 259 365.5 263 368 c 2
 278 378.5 l 2
 280 380 282.5 380.5 285 380.5 c 0
 297.5 380.5 307 356 307 342 c 0xb4
 307 320.5 295 305 267.5 300 c 1xb8
170.5 57.5 m 0xd8
 220.5 57.5 246 94.5 246 163 c 0
 246 231.5 220.5 268.5 170.5 268.5 c 0
 120.5 268.5 94.5 231.5 94.5 163 c 0
 94.5 94.5 120.5 57.5 170.5 57.5 c 0xd8
EndSplineSet
Validated: 524289
Position2: "'cpsp' Capital Spacing lookup 0 subtable" dx=5 dy=0 dh=10 dv=0
EndChar

StartChar: uni1EDA
Encoding: 7898 7898 120
Width: 341
VWidth: 466
GlyphClass: 2
Flags: MW
HStem: -3.5 61<145.5 195.5 145.5 218.5> 268.5 61.5<145.5 183 122.5 195.5> 300 18 350.5 74<146.5 216.75>
VStem: 21 73.5<128.75 197.25 128.75 216.75> 246 73.5<128.75 194.25 109.25 197.25> 270 37<331.25 340>
AnchorPoint: "Anchor-1" 198 374 basechar 0
AnchorPoint: "Anchor-0" 171 0 basechar 0
LayerCount: 2
Back
Fore
SplineSet
152 350.5 m 0xbc
 141 350.5 137.5 352.5 137.5 357.5 c 0
 137.5 362.5 146.5 374 168 412 c 0
 173.5 421.5 189 424.5 207.5 424.5 c 0
 226 424.5 235.5 423 235.5 418 c 0
 235.5 412.5 232.5 411.5 187 362 c 0
 182 356.5 174 350.5 152 350.5 c 0xbc
267.5 300 m 1
 301.5 272 319.5 225.5 319.5 163 c 0
 319.5 55.5 266.5 -3.5 170.5 -3.5 c 0
 74.5 -3.5 21 55.5 21 163 c 0
 21 270.5 74.5 330 170.5 330 c 0xcc
 195.5 330 218 326 237 318 c 1
 248 318 l 2
 264 318 270 324 270 335 c 0
 270 345 257.5 353 257.5 359 c 0
 257.5 362.5 259 365.5 263 368 c 2
 278 378.5 l 2
 280 380 282.5 380.5 285 380.5 c 0
 297.5 380.5 307 356 307 342 c 0xaa
 307 320.5 295 305 267.5 300 c 1
170.5 57.5 m 0xcc
 220.5 57.5 246 94.5 246 163 c 0
 246 231.5 220.5 268.5 170.5 268.5 c 0
 120.5 268.5 94.5 231.5 94.5 163 c 0
 94.5 94.5 120.5 57.5 170.5 57.5 c 0xcc
EndSplineSet
Validated: 524289
Position2: "'cpsp' Capital Spacing lookup 0 subtable" dx=5 dy=0 dh=10 dv=0
EndChar

StartChar: uni1EE2
Encoding: 7906 7906 121
Width: 341
VWidth: 466
GlyphClass: 2
Flags: MW
HStem: -80 42.5<144 181.75 162.25 200> -3.5 61<145.5 195.5 145.5 218.5> 268.5 61.5<145.5 183 122.5 195.5> 300 18
VStem: 21 73.5<128.75 197.25 128.75 216.75> 144 56<-80 -52.5 -85 -47.5> 246 73.5<128.75 194.25 109.25 197.25> 270 37<331.25 340>
AnchorPoint: "Anchor-1" 198 374 basechar 0
AnchorPoint: "Anchor-0" 172 -95 basechar 0
LayerCount: 2
Back
Fore
SplineSet
267.5 300 m 1xde
 301.5 272 319.5 225.5 319.5 163 c 0
 319.5 55.5 266.5 -3.5 170.5 -3.5 c 0
 74.5 -3.5 21 55.5 21 163 c 0
 21 270.5 74.5 330 170.5 330 c 0xee
 195.5 330 218 326 237 318 c 1
 248 318 l 2
 264 318 270 324 270 335 c 0
 270 345 257.5 353 257.5 359 c 0
 257.5 362.5 259 365.5 263 368 c 2
 278 378.5 l 2
 280 380 282.5 380.5 285 380.5 c 0
 297.5 380.5 307 356 307 342 c 0xdd
 307 320.5 295 305 267.5 300 c 1xde
170.5 57.5 m 0xee
 220.5 57.5 246 94.5 246 163 c 0
 246 231.5 220.5 268.5 170.5 268.5 c 0
 120.5 268.5 94.5 231.5 94.5 163 c 0
 94.5 94.5 120.5 57.5 170.5 57.5 c 0xee
172 -37.5 m 0
 191.5 -37.5 200 -42.5 200 -52.5 c 2
 200 -80 l 2
 200 -90 191.5 -95 172 -95 c 0
 152.5 -95 144 -90 144 -80 c 2
 144 -52.5 l 2
 144 -42.5 152.5 -37.5 172 -37.5 c 0
EndSplineSet
Validated: 524289
Position2: "'cpsp' Capital Spacing lookup 0 subtable" dx=5 dy=0 dh=10 dv=0
EndChar

StartChar: uni1EDC
Encoding: 7900 7900 122
Width: 341
VWidth: 466
GlyphClass: 2
Flags: MW
HStem: -3.5 61<145.5 195.5 145.5 218.5> 268.5 61.5<145.5 183 122.5 195.5> 300 18 350.5 74<126.75 197.25>
VStem: 21 73.5<128.75 197.25 128.75 216.75> 246 73.5<128.75 194.25 109.25 197.25> 270 37<331.25 340>
AnchorPoint: "Anchor-1" 198 374 basechar 0
AnchorPoint: "Anchor-0" 171 0 basechar 0
LayerCount: 2
Back
Fore
SplineSet
191.5 350.5 m 0xbc
 169.5 350.5 162 356.5 156.5 362 c 0
 111.5 411.5 108 412.5 108 418 c 0
 108 423 117.5 424.5 136 424.5 c 0
 155 424.5 170 421.5 175.5 412 c 0
 197 374 206 362.5 206 357.5 c 0
 206 352.5 203 350.5 191.5 350.5 c 0xbc
267.5 300 m 1
 301.5 272 319.5 225.5 319.5 163 c 0
 319.5 55.5 266.5 -3.5 170.5 -3.5 c 0
 74.5 -3.5 21 55.5 21 163 c 0
 21 270.5 74.5 330 170.5 330 c 0xcc
 195.5 330 218 326 237 318 c 1
 248 318 l 2
 264 318 270 324 270 335 c 0
 270 345 257.5 353 257.5 359 c 0
 257.5 362.5 259 365.5 263 368 c 2
 278 378.5 l 2
 280 380 282.5 380.5 285 380.5 c 0
 297.5 380.5 307 356 307 342 c 0xaa
 307 320.5 295 305 267.5 300 c 1
170.5 57.5 m 0xcc
 220.5 57.5 246 94.5 246 163 c 0
 246 231.5 220.5 268.5 170.5 268.5 c 0
 120.5 268.5 94.5 231.5 94.5 163 c 0
 94.5 94.5 120.5 57.5 170.5 57.5 c 0xcc
EndSplineSet
Validated: 524289
Position2: "'cpsp' Capital Spacing lookup 0 subtable" dx=5 dy=0 dh=10 dv=0
EndChar

StartChar: uni1EDE
Encoding: 7902 7902 123
Width: 341
VWidth: 466
GlyphClass: 2
Flags: MW
HStem: -3.5 61<145.5 195.5 145.5 218.5> 268.5 61.5<145.5 183 122.5 195.5> 300 18 404 28.5<168.25 176.75>
VStem: 21 73.5<128.75 197.25 128.75 216.75> 187.5 41<387 397.25> 246 73.5<128.75 194.25 109.25 197.25> 270 37<331.25 340>
AnchorPoint: "Anchor-1" 198 374 basechar 0
AnchorPoint: "Anchor-0" 171 0 basechar 0
LayerCount: 2
Back
Fore
SplineSet
153.5 398.5 m 0xde
 149.5 398.5 139.5 411 139.5 418 c 0
 139.5 424 160 432.5 176.5 432.5 c 0
 210 432.5 228.5 418.5 228.5 395.5 c 0
 228.5 371 190 348 181.5 348 c 0
 170.5 348 156.5 355 156.5 359 c 0
 156.5 367 187.5 380 187.5 394 c 0
 187.5 400.5 180.5 404 173 404 c 0
 162.5 404 157.5 398.5 153.5 398.5 c 0xde
267.5 300 m 1xba
 301.5 272 319.5 225.5 319.5 163 c 0
 319.5 55.5 266.5 -3.5 170.5 -3.5 c 0
 74.5 -3.5 21 55.5 21 163 c 0
 21 270.5 74.5 330 170.5 330 c 0xda
 195.5 330 218 326 237 318 c 1
 248 318 l 2
 264 318 270 324 270 335 c 0
 270 345 257.5 353 257.5 359 c 0
 257.5 362.5 259 365.5 263 368 c 2
 278 378.5 l 2
 280 380 282.5 380.5 285 380.5 c 0
 297.5 380.5 307 356 307 342 c 0xb9
 307 320.5 295 305 267.5 300 c 1xba
170.5 57.5 m 0xda
 220.5 57.5 246 94.5 246 163 c 0
 246 231.5 220.5 268.5 170.5 268.5 c 0
 120.5 268.5 94.5 231.5 94.5 163 c 0
 94.5 94.5 120.5 57.5 170.5 57.5 c 0xda
EndSplineSet
Validated: 524289
Position2: "'cpsp' Capital Spacing lookup 0 subtable" dx=5 dy=0 dh=10 dv=0
EndChar

StartChar: uni1EE0
Encoding: 7904 7904 124
Width: 341
VWidth: 466
GlyphClass: 2
Flags: MW
HStem: -3.5 61<145.5 195.5 145.5 218.5> 268.5 61.5<145.5 183 122.5 195.5> 300 18 353.5 39<194.5 196.25 194.5 204.75> 367 39<131.25 133>
VStem: 21 73.5<128.75 197.25 128.75 216.75> 246 73.5<128.75 194.25 109.25 197.25> 270 37<331.25 340>
AnchorPoint: "Anchor-1" 198 374 basechar 0
AnchorPoint: "Anchor-0" 171 0 basechar 0
LayerCount: 2
Back
Fore
SplineSet
97 354 m 2xd6
 90 356.5 87.5 361.5 87.5 367 c 0
 87.5 369 88 371.5 88.5 373.5 c 0
 94.5 390 110.5 406 135 406 c 0xce
 149.5 406 180.5 393.5 194.5 392.5 c 0xd6
 198 392.5 203.5 393.5 208.5 400 c 0
 213 406 216.5 408 220.5 408 c 0
 222 408 224 407.5 225.5 407 c 2
 230.5 405.5 l 2xce
 237.5 403 240 398 240 393 c 0
 240 390.5 239.5 388 239 386.5 c 0
 233 369.5 217 353.5 192.5 353.5 c 0xd6
 178 353.5 147 366.5 133 367 c 0xce
 129.5 367 124 366.5 119 360 c 0
 114.5 353.5 111 352 107 352 c 0
 105.5 352 103.5 352 102 353 c 2
 97 354 l 2xd6
267.5 300 m 1xa6
 301.5 272 319.5 225.5 319.5 163 c 0
 319.5 55.5 266.5 -3.5 170.5 -3.5 c 0
 74.5 -3.5 21 55.5 21 163 c 0
 21 270.5 74.5 330 170.5 330 c 0xc6
 195.5 330 218 326 237 318 c 1
 248 318 l 2
 264 318 270 324 270 335 c 0
 270 345 257.5 353 257.5 359 c 0
 257.5 362.5 259 365.5 263 368 c 2
 278 378.5 l 2
 280 380 282.5 380.5 285 380.5 c 0
 297.5 380.5 307 356 307 342 c 0xa5
 307 320.5 295 305 267.5 300 c 1xa6
170.5 57.5 m 0xc6
 220.5 57.5 246 94.5 246 163 c 0
 246 231.5 220.5 268.5 170.5 268.5 c 0
 120.5 268.5 94.5 231.5 94.5 163 c 0
 94.5 94.5 120.5 57.5 170.5 57.5 c 0xc6
EndSplineSet
Validated: 524289
Position2: "'cpsp' Capital Spacing lookup 0 subtable" dx=5 dy=0 dh=10 dv=0
EndChar

StartChar: Ohungarumlaut
Encoding: 336 336 125
Width: 341
VWidth: 466
GlyphClass: 2
Flags: MW
HStem: -3.5 61<145.5 195.5 145.5 218.5> 268.5 61.5<145.5 195.5> 350.5 74<107.5 178 159.25 209.5>
VStem: 21 73.5<128.75 197.25 128.75 216.75> 246 73.5<128.75 197.25>
AnchorPoint: "Anchor-1" 171 326 basechar 0
AnchorPoint: "Anchor-0" 171 0 basechar 0
LayerCount: 2
Back
Fore
SplineSet
113 350.5 m 0
 102 350.5 99 352.5 99 357.5 c 0
 99 362.5 107.5 374 129 412 c 0
 134.5 421.5 150 424.5 168.5 424.5 c 0
 187.5 424.5 196.5 423 196.5 418 c 0
 196.5 412.5 193.5 411.5 148 362 c 0
 143 356.5 135 350.5 113 350.5 c 0
198.5 350.5 m 0
 187.5 350.5 184 352.5 184 357.5 c 0
 184 362.5 193 374 214.5 412 c 0
 220 421.5 235.5 424.5 254 424.5 c 0
 272.5 424.5 282 423 282 418 c 0
 282 412.5 278.5 411.5 233.5 362 c 0
 228.5 356.5 220.5 350.5 198.5 350.5 c 0
170.5 -3.5 m 0
 74.5 -3.5 21 55.5 21 163 c 0
 21 270.5 74.5 330 170.5 330 c 0xd8
 266.5 330 319.5 270.5 319.5 163 c 0
 319.5 55.5 266.5 -3.5 170.5 -3.5 c 0
170.5 57.5 m 0
 220.5 57.5 246 94.5 246 163 c 0
 246 231.5 220.5 268.5 170.5 268.5 c 0xd8
 120.5 268.5 94.5 231.5 94.5 163 c 0
 94.5 94.5 120.5 57.5 170.5 57.5 c 0
EndSplineSet
Validated: 524289
Position2: "'cpsp' Capital Spacing lookup 0 subtable" dx=5 dy=0 dh=10 dv=0
EndChar

StartChar: Omacron
Encoding: 332 332 126
Width: 341
VWidth: 466
GlyphClass: 2
Flags: MW
HStem: -3.5 61<145.5 195.5 145.5 218.5> 268.5 61.5<145.5 195.5> 360.5 44.5<115.5 220.5 120.5 220.5>
VStem: 21 73.5<128.75 197.25 128.75 216.75> 106.5 128<379.5 386.5 373 393> 246 73.5<128.75 197.25>
AnchorPoint: "Anchor-1" 171 326 basechar 0
AnchorPoint: "Anchor-0" 171 0 basechar 0
LayerCount: 2
Back
Fore
SplineSet
120.5 360.5 m 2
 110.5 360.5 106.5 366.5 106.5 379.5 c 2
 106.5 386.5 l 2
 106.5 399.5 110.5 405 120.5 405 c 2
 220.5 405 l 2
 230 405 234.5 399.5 234.5 386.5 c 2
 234.5 379.5 l 2
 234.5 366.5 230 360.5 220.5 360.5 c 2
 120.5 360.5 l 2
170.5 -3.5 m 0xf4
 74.5 -3.5 21 55.5 21 163 c 0
 21 270.5 74.5 330 170.5 330 c 0
 266.5 330 319.5 270.5 319.5 163 c 0
 319.5 55.5 266.5 -3.5 170.5 -3.5 c 0xf4
170.5 57.5 m 0
 220.5 57.5 246 94.5 246 163 c 0
 246 231.5 220.5 268.5 170.5 268.5 c 0
 120.5 268.5 94.5 231.5 94.5 163 c 0
 94.5 94.5 120.5 57.5 170.5 57.5 c 0
EndSplineSet
Validated: 524289
Position2: "'cpsp' Capital Spacing lookup 0 subtable" dx=5 dy=0 dh=10 dv=0
EndChar

StartChar: uni01EA
Encoding: 490 490 127
Width: 341
VWidth: 466
GlyphClass: 2
Flags: MW
HStem: -85.5 33<225 234> -3.5 61<145.5 170.5 170.5 179> -0.5 21G<206.5 206.5> 268.5 61.5<145.5 195.5>
VStem: 21 73.5<128.75 197.25 128.75 216.75> 170 31.5<-40.25 -34> 246 73.5<128.75 197.25>
AnchorPoint: "Anchor-1" 171 326 basechar 0
AnchorPoint: "Anchor-0" 171 0 basechar 0
LayerCount: 2
Back
Fore
SplineSet
319.5 163 m 0xde
 319.5 69.5 279.5 13 206.5 -0.5 c 1
 206.5 -2.5 l 2xbe
 206.5 -9.5 201.5 -15.5 201.5 -29 c 0
 201.5 -51.5 219.5 -52.5 230.5 -52.5 c 0
 242 -52.5 244.5 -49 253 -49 c 0
 259.5 -49 263.5 -53 263.5 -62 c 0
 263.5 -81.5 243 -85.5 225 -85.5 c 0
 175.5 -85.5 170 -51.5 170 -37.5 c 0
 170 -30.5 171.5 -14 179 -3.5 c 1
 170.5 -3.5 l 2
 74.5 -3.5 21 55.5 21 163 c 0
 21 270.5 74.5 330 170.5 330 c 0
 266.5 330 319.5 270.5 319.5 163 c 0xde
170.5 57.5 m 0
 220.5 57.5 246 94.5 246 163 c 0
 246 231.5 220.5 268.5 170.5 268.5 c 0
 120.5 268.5 94.5 231.5 94.5 163 c 0
 94.5 94.5 120.5 57.5 170.5 57.5 c 0
EndSplineSet
Validated: 524289
Position2: "'cpsp' Capital Spacing lookup 0 subtable" dx=5 dy=0 dh=10 dv=0
EndChar

StartChar: Oslash
Encoding: 216 216 128
Width: 341
VWidth: 466
GlyphClass: 2
Flags: MW
HStem: -3.5 61<158.5 195.5 158.5 218.5> 268.5 61.5<145.5 179.5>
VStem: 21 73.5<155.25 197.25 155.25 216.75> 246 73.5<128.75 174.5>
AnchorPoint: "Anchor-1" 171 326 basechar 0
AnchorPoint: "Anchor-0" 0 0 basechar 0
LayerCount: 2
Back
Fore
SplineSet
170.5 -3.5 m 0
 127.5 -3.5 93 8 68.5 31 c 1
 41.5 0 l 2
 38 -3.5 34.5 -5.5 31 -5.5 c 0
 24 -5.5 9 7 9 16 c 0
 9 18.5 10.5 22 13.5 25 c 2
 44.5 60 l 1
 29 86.5 21 121 21 163 c 0
 21 270.5 74.5 330 170.5 330 c 0
 207 330 237.5 321 261 304.5 c 1
 285 332 l 2
 288.5 335.5 291.5 337.5 295.5 337.5 c 0
 303.5 337.5 318 324.5 318 316 c 0
 318 313 316.5 310 313 306.5 c 2
 288 278 l 1
 308.5 250 319.5 211.5 319.5 163 c 0
 319.5 55.5 266.5 -3.5 170.5 -3.5 c 0
98.5 121 m 1
 216 253.5 l 1
 204 263.5 188.5 268.5 170.5 268.5 c 0
 120.5 268.5 94.5 231.5 94.5 163 c 0
 94.5 147.5 96 133.5 98.5 121 c 1
170.5 57.5 m 0
 220.5 57.5 246 94.5 246 163 c 0
 246 186 243 205.5 237 221 c 1
 115 83 l 1
 127.5 66 146.5 57.5 170.5 57.5 c 0
EndSplineSet
Validated: 524289
Position2: "'cpsp' Capital Spacing lookup 0 subtable" dx=5 dy=0 dh=10 dv=0
EndChar

StartChar: Oslashacute
Encoding: 510 510 129
Width: 341
VWidth: 466
GlyphClass: 2
Flags: MW
HStem: -3.5 61<158.5 195.5 158.5 218.5> 268.5 61.5<145.5 179.5> 350.5 74<146.5 216.75>
VStem: 21 73.5<155.25 197.25 155.25 216.75> 246 73.5<128.75 174.5>
AnchorPoint: "Anchor-1" 171 326 basechar 0
AnchorPoint: "Anchor-0" 0 0 basechar 0
LayerCount: 2
Back
Fore
SplineSet
152 350.5 m 0
 141 350.5 137.5 352.5 137.5 357.5 c 0
 137.5 362.5 146.5 374 168 412 c 0
 173.5 421.5 189 424.5 207.5 424.5 c 0
 226 424.5 235.5 423 235.5 418 c 0
 235.5 412.5 232.5 411.5 187 362 c 0
 182 356.5 174 350.5 152 350.5 c 0
170.5 -3.5 m 0
 127.5 -3.5 93 8 68.5 31 c 1
 41.5 0 l 2
 38 -3.5 34.5 -5.5 31 -5.5 c 0
 24 -5.5 9 7 9 16 c 0
 9 18.5 10.5 22 13.5 25 c 2
 44.5 60 l 1
 29 86.5 21 121 21 163 c 0
 21 270.5 74.5 330 170.5 330 c 0
 207 330 237.5 321 261 304.5 c 1
 285 332 l 2
 288.5 335.5 291.5 337.5 295.5 337.5 c 0
 303.5 337.5 318 324.5 318 316 c 0
 318 313 316.5 310 313 306.5 c 2
 288 278 l 1xd8
 308.5 250 319.5 211.5 319.5 163 c 0
 319.5 55.5 266.5 -3.5 170.5 -3.5 c 0
98.5 121 m 1xd8
 216 253.5 l 1
 204 263.5 188.5 268.5 170.5 268.5 c 0
 120.5 268.5 94.5 231.5 94.5 163 c 0
 94.5 147.5 96 133.5 98.5 121 c 1xd8
170.5 57.5 m 0
 220.5 57.5 246 94.5 246 163 c 0
 246 186 243 205.5 237 221 c 1
 115 83 l 1
 127.5 66 146.5 57.5 170.5 57.5 c 0
EndSplineSet
Validated: 524289
Position2: "'cpsp' Capital Spacing lookup 0 subtable" dx=5 dy=0 dh=10 dv=0
EndChar

StartChar: Otilde
Encoding: 213 213 130
Width: 341
VWidth: 466
GlyphClass: 2
Flags: MW
HStem: -3.5 61<145.5 195.5 145.5 218.5> 268.5 61.5<145.5 195.5> 353.5 39<199 201 199 210.25> 367 39<129.5 131.5>
VStem: 21 73.5<128.75 197.25 128.75 216.75> 246 73.5<128.75 197.25>
AnchorPoint: "Anchor-1" 171 326 basechar 0
AnchorPoint: "Anchor-0" 171 0 basechar 0
LayerCount: 2
Back
Fore
SplineSet
97 353 m 2xec
 91.5 354 l 2xec
 84 356.5 81.5 361.5 81.5 367 c 0
 81.5 369 82 371.5 82.5 373.5 c 0
 89 390 106.5 406 133.5 406 c 0xdc
 149.5 406 183.5 393.5 199 392.5 c 0xec
 203 392.5 209 393.5 214.5 400 c 0
 219.5 406 223 408 227.5 408 c 0
 229 408 231.5 407.5 233 407 c 2
 238.5 405.5 l 2xdc
 246.5 403 249 398 249 393 c 0
 249 390.5 248.5 388 248 386.5 c 0
 241.5 369.5 223.5 353.5 197 353.5 c 0xec
 181 353.5 146.5 366.5 131.5 367 c 0xdc
 127.5 367 121.5 366.5 116 360 c 0
 111 353.5 107 352 102.5 352 c 0
 101 352 99 352 97 353 c 2xec
170.5 -3.5 m 0xcc
 74.5 -3.5 21 55.5 21 163 c 0
 21 270.5 74.5 330 170.5 330 c 0
 266.5 330 319.5 270.5 319.5 163 c 0
 319.5 55.5 266.5 -3.5 170.5 -3.5 c 0xcc
170.5 57.5 m 0
 220.5 57.5 246 94.5 246 163 c 0
 246 231.5 220.5 268.5 170.5 268.5 c 0
 120.5 268.5 94.5 231.5 94.5 163 c 0
 94.5 94.5 120.5 57.5 170.5 57.5 c 0
EndSplineSet
Validated: 524289
Position2: "'cpsp' Capital Spacing lookup 0 subtable" dx=5 dy=0 dh=10 dv=0
EndChar

StartChar: OE
Encoding: 338 338 131
Width: 476
VWidth: 466
GlyphClass: 2
Flags: MW
HStem: -3.5 61<145.5 181.5> 0 61<259.25 436.5 318.5 436.5 318.5 436.5> 136.5 61<318.5 423.5 318.5 423.5> 265 61<318.5 436 318.5 318.5> 268.5 61.5<145.5 182 119.25 195.5>
VStem: 21 73.5<128.75 197.25 128.75 216.75> 246 72.5<128.75 136.5 61 197.25>
AnchorPoint: "Anchor-1" 238 326 basechar 0
AnchorPoint: "Anchor-0" 0 0 basechar 0
LayerCount: 2
Back
Fore
SplineSet
436.5 61 m 2x76
 446.5 61 450.5 54 450.5 37.5 c 2
 450.5 23.5 l 2
 450.5 7 446.5 0 436.5 0 c 2
 265.5 0 l 2x76
 253 0 247.5 5 247 17.5 c 1
 224 3.5 197 -3.5 166 -3.5 c 0
 72.5 -3.5 21 55.5 21 163 c 0
 21 270.5 72.5 330 166 330 c 0xae
 198 330 224 323 247 308.5 c 1
 247 320.5 252.5 326 265.5 326 c 2
 436 326 l 2
 446 326 450 319 450 303 c 2
 450 288.5 l 2
 450 272 446 265 436 265 c 2
 318.5 265 l 1
 318.5 197.5 l 1
 423.5 197.5 l 2
 433.5 197.5 437.5 190.5 437.5 174.5 c 2
 437.5 160 l 2
 437.5 143.5 433.5 136.5 423.5 136.5 c 2
 318.5 136.5 l 1
 318.5 61 l 1
 436.5 61 l 2x76
170.5 57.5 m 0xae
 220.5 57.5 246 94.5 246 163 c 0
 246 231.5 220.5 268.5 170.5 268.5 c 0
 120.5 268.5 94.5 231.5 94.5 163 c 0
 94.5 94.5 120.5 57.5 170.5 57.5 c 0xae
EndSplineSet
Validated: 524289
Position2: "'cpsp' Capital Spacing lookup 0 subtable" dx=5 dy=0 dh=10 dv=0
EndChar

StartChar: P
Encoding: 80 80 132
Width: 266
VWidth: 466
GlyphClass: 2
Flags: MW
HStem: -1 21G<50.25 60 60 76> 122 61.5<104 145.5 145.5 153.5 104 145.5> 265 61<104 145.5 104 104>
VStem: 32 72<14 122 183.5 265> 186 73.5<207.25 240.75>
LayerCount: 2
Back
Fore
SplineSet
60 -1 m 2
 40.5 -1 32 4 32 14 c 2
 32 307.5 l 2
 32 320.5 37.5 326 51 326 c 2
 148.5 326 l 2
 190 326 259.5 314 259.5 224 c 0
 259.5 134 178.5 122 153.5 122 c 2
 104 122 l 1
 104 14 l 2
 104 4 95.5 -1 76 -1 c 2
 60 -1 l 2
104 183.5 m 1
 145.5 183.5 l 2
 163 183.5 186 190.5 186 224 c 0
 186 257.5 163 265 145.5 265 c 2
 104 265 l 1
 104 183.5 l 1
EndSplineSet
Validated: 524289
Position2: "'cpsp' Capital Spacing lookup 0 subtable" dx=5 dy=0 dh=10 dv=0
EndChar

StartChar: Thorn
Encoding: 222 222 133
Width: 264
VWidth: 466
GlyphClass: 2
Flags: MW
HStem: -1 21G<49.75 59.5 59.5 75.5> 72 61.5<103.5 148 148 156 103.5 148> 215.5 61<103.5 148 103.5 151.5> 307 20G<59.5 75.5 75.5 85.25>
VStem: 31.5 72<14 72 133.5 215.5 276.5 312> 188.5 74<157.5 191.25>
LayerCount: 2
Back
Fore
SplineSet
59.5 -1 m 2
 40 -1 31.5 4 31.5 14 c 2
 31.5 312 l 2
 31.5 322 40 327 59.5 327 c 2
 75.5 327 l 2
 95 327 103.5 322 103.5 312 c 2
 103.5 276.5 l 1
 151.5 276.5 l 2
 193 276.5 262.5 264 262.5 174.5 c 0
 262.5 84.5 181.5 72 156 72 c 2
 103.5 72 l 1
 103.5 14 l 2
 103.5 4 95 -1 75.5 -1 c 2
 59.5 -1 l 2
103.5 133.5 m 1
 148 133.5 l 2
 166 133.5 188.5 140.5 188.5 174.5 c 0
 188.5 208 166 215.5 148 215.5 c 2
 103.5 215.5 l 1
 103.5 133.5 l 1
EndSplineSet
Validated: 524289
Position2: "'cpsp' Capital Spacing lookup 0 subtable" dx=5 dy=0 dh=10 dv=0
EndChar

StartChar: Q
Encoding: 81 81 134
Width: 341
VWidth: 466
GlyphClass: 2
Flags: MW
HStem: 268.5 61.5<145.5 195.5>
VStem: 21 73.5<128 197.25 128 216.75> 246 73.5<128 197.25>
LayerCount: 2
Back
Fore
SplineSet
298.5 -68 m 0
 294 -68 295.5 -67.5 106 7.5 c 0
 51 29 21 82.5 21 163 c 0
 21 270.5 74.5 330 170.5 330 c 0
 266.5 330 319.5 270.5 319.5 163 c 0
 319.5 89.5 293.5 38.5 246.5 14.5 c 1
 246.5 12.5 l 1
 318 -13 l 2
 322 -14.5 324.5 -17 324.5 -20.5 c 0
 324.5 -28 313.5 -68 298.5 -68 c 0
170.5 55.5 m 0
 220.5 55.5 246 93 246 163 c 0
 246 231.5 220.5 268.5 170.5 268.5 c 0
 120.5 268.5 94.5 231.5 94.5 163 c 0
 94.5 93 120.5 55.5 170.5 55.5 c 0
EndSplineSet
Validated: 524289
Position2: "'cpsp' Capital Spacing lookup 0 subtable" dx=5 dy=0 dh=10 dv=0
EndChar

StartChar: R
Encoding: 82 82 135
Width: 285
VWidth: 466
GlyphClass: 2
Flags: MW
HStem: -1 21G<50.25 60 60 76 226.25 233 233 252> 127.5 62<104 122 104 148> 265 61<104 141.5 141.5 145 104 104>
VStem: 32 72<14 127.5 189.5 265> 184 73.5<220.5 240.25>
AnchorPoint: "Anchor-1" 142 326 basechar 0
AnchorPoint: "Anchor-0" 142 0 basechar 0
LayerCount: 2
Back
Fore
SplineSet
60 -1 m 2
 40.5 -1 32 4 32 14 c 2
 32 307.5 l 2
 32 320.5 37.5 326 51 326 c 2
 141.5 326 l 2
 222.5 326 257.5 294.5 257.5 238.5 c 0
 257.5 202.5 235.5 176.5 203 164.5 c 1
 203 162.5 l 1
 215 158 229 140 236.5 120 c 2
 277.5 17 l 2
 279 13.5 280 10.5 280 8.5 c 0
 280 3 271 -1 252 -1 c 2
 233 -1 l 2
 219.5 -1 209 1.5 206 9 c 2
 169 99.5 l 2
 160 118.5 152.5 127.5 122 127.5 c 2
 104 127.5 l 1
 104 14 l 2
 104 4 95.5 -1 76 -1 c 2
 60 -1 l 2
104 189.5 m 1
 148 189.5 l 2
 167.5 189.5 184 207.5 184 229.5 c 0
 184 251 169 265 145 265 c 2
 104 265 l 1
 104 189.5 l 1
EndSplineSet
Validated: 524289
Position2: "'cpsp' Capital Spacing lookup 0 subtable" dx=5 dy=0 dh=10 dv=0
EndChar

StartChar: Racute
Encoding: 340 340 136
Width: 285
VWidth: 466
GlyphClass: 2
Flags: MW
HStem: -1 21G<50.25 60 60 76 226.25 233 233 252> 127.5 62<104 122 104 148> 265 61<104 141.5 141.5 145 104 104> 350.5 74<118 188.25>
VStem: 32 72<14 127.5 189.5 265> 184 73.5<220.5 240.25>
AnchorPoint: "Anchor-1" 142 326 basechar 0
AnchorPoint: "Anchor-0" 142 0 basechar 0
LayerCount: 2
Back
Fore
SplineSet
123.5 350.5 m 0
 112.5 350.5 109 352.5 109 357.5 c 0
 109 362.5 118 374 139.5 412 c 0
 145 421.5 160.5 424.5 179 424.5 c 0
 197.5 424.5 207 423 207 418 c 0
 207 412.5 204 411.5 158.5 362 c 0
 153.5 356.5 145.5 350.5 123.5 350.5 c 0
60 -1 m 2
 40.5 -1 32 4 32 14 c 2
 32 307.5 l 2
 32 320.5 37.5 326 51 326 c 2
 141.5 326 l 2
 222.5 326 257.5 294.5 257.5 238.5 c 0xec
 257.5 202.5 235.5 176.5 203 164.5 c 1
 203 162.5 l 1
 215 158 229 140 236.5 120 c 2
 277.5 17 l 2
 279 13.5 280 10.5 280 8.5 c 0
 280 3 271 -1 252 -1 c 2
 233 -1 l 2
 219.5 -1 209 1.5 206 9 c 2
 169 99.5 l 2
 160 118.5 152.5 127.5 122 127.5 c 2
 104 127.5 l 1
 104 14 l 2
 104 4 95.5 -1 76 -1 c 2
 60 -1 l 2
104 189.5 m 1
 148 189.5 l 2
 167.5 189.5 184 207.5 184 229.5 c 0
 184 251 169 265 145 265 c 2
 104 265 l 1xec
 104 189.5 l 1
EndSplineSet
Validated: 524289
Position2: "'cpsp' Capital Spacing lookup 0 subtable" dx=5 dy=0 dh=10 dv=0
EndChar

StartChar: Rcaron
Encoding: 344 344 137
Width: 285
VWidth: 466
GlyphClass: 2
Flags: MW
HStem: -1 21G<50.25 60 60 76 226.25 233 233 252> 127.5 62<104 122 104 148> 265 61<104 141.5 141.5 145 104 104> 349 68<87 139.5 87 144.5>
VStem: 32 72<14 127.5 189.5 265> 184 73.5<220.5 240.25>
AnchorPoint: "Anchor-1" 142 326 basechar 0
AnchorPoint: "Anchor-0" 142 0 basechar 0
LayerCount: 2
Back
Fore
SplineSet
139.5 349 m 2
 126 349 116 349.5 111 358 c 2
 80.5 405.5 l 2
 79 408 78 410.5 78 412.5 c 0
 78 415.5 80.5 417 87 417 c 2
 97.5 417 l 2
 111 417 121.5 415 128.5 405.5 c 2
 141.5 387.5 l 1
 154.5 406 l 2
 161 415 173 417 186.5 417 c 2
 196.5 417 l 2
 202.5 417 206 415.5 206 412.5 c 0
 206 410.5 205 408 203 405.5 c 2
 173 358 l 2
 168 349.5 158 349 144.5 349 c 2
 139.5 349 l 2
60 -1 m 2
 40.5 -1 32 4 32 14 c 2
 32 307.5 l 2
 32 320.5 37.5 326 51 326 c 2
 141.5 326 l 2
 222.5 326 257.5 294.5 257.5 238.5 c 0xec
 257.5 202.5 235.5 176.5 203 164.5 c 1
 203 162.5 l 1
 215 158 229 140 236.5 120 c 2
 277.5 17 l 2
 279 13.5 280 10.5 280 8.5 c 0
 280 3 271 -1 252 -1 c 2
 233 -1 l 2
 219.5 -1 209 1.5 206 9 c 2
 169 99.5 l 2
 160 118.5 152.5 127.5 122 127.5 c 2
 104 127.5 l 1
 104 14 l 2
 104 4 95.5 -1 76 -1 c 2
 60 -1 l 2
104 189.5 m 1
 148 189.5 l 2
 167.5 189.5 184 207.5 184 229.5 c 0
 184 251 169 265 145 265 c 2
 104 265 l 1xec
 104 189.5 l 1
EndSplineSet
Validated: 524289
Position2: "'cpsp' Capital Spacing lookup 0 subtable" dx=5 dy=0 dh=10 dv=0
EndChar

StartChar: Rcommaaccent
Encoding: 342 342 138
Width: 285
VWidth: 466
GlyphClass: 2
Flags: MW
HStem: -112 21G<116.25 128.75> -112 88<116.25 147.5> -1 21G<50.25 60 60 76 226.25 233 233 252> 127.5 62<104 122 104 148> 265 61<104 141.5 141.5 145 104 104>
VStem: 32 72<14 127.5 189.5 265> 111 60<-60 -38.5 -60 -38> 184 73.5<220.5 240.25>
AnchorPoint: "Anchor-1" 142 326 basechar 0
AnchorPoint: "Anchor-0" 142 -95 basechar 0
LayerCount: 2
Back
Fore
SplineSet
60 -1 m 2xbd
 40.5 -1 32 4 32 14 c 2
 32 307.5 l 2
 32 320.5 37.5 326 51 326 c 2
 141.5 326 l 2
 222.5 326 257.5 294.5 257.5 238.5 c 0
 257.5 202.5 235.5 176.5 203 164.5 c 1
 203 162.5 l 1
 215 158 229 140 236.5 120 c 2
 277.5 17 l 2
 279 13.5 280 10.5 280 8.5 c 0
 280 3 271 -1 252 -1 c 2
 233 -1 l 2
 219.5 -1 209 1.5 206 9 c 2
 169 99.5 l 2
 160 118.5 152.5 127.5 122 127.5 c 2
 104 127.5 l 1
 104 14 l 2
 104 4 95.5 -1 76 -1 c 2
 60 -1 l 2xbd
104 189.5 m 1
 148 189.5 l 2
 167.5 189.5 184 207.5 184 229.5 c 0
 184 251 169 265 145 265 c 2
 104 265 l 1
 104 189.5 l 1
120.5 -112 m 0xbb
 112 -112 99.5 -109 99.5 -101.5 c 0
 99.5 -93 111 -81.5 111 -44.5 c 0
 111 -31.5 119 -24 138.5 -24 c 2
 147.5 -24 l 2x7b
 164 -24 171 -32.5 171 -44.5 c 0
 171 -75.5 137 -112 120.5 -112 c 0xbb
EndSplineSet
Validated: 524289
Position2: "'cpsp' Capital Spacing lookup 0 subtable" dx=5 dy=0 dh=10 dv=0
EndChar

StartChar: uni1E5A
Encoding: 7770 7770 139
Width: 285
VWidth: 466
GlyphClass: 2
Flags: MW
HStem: -95 42.5<115 152.75> -1 21G<50.25 60 60 76 226.25 233 233 252> 127.5 62<104 122 104 148> 265 61<104 141.5 141.5 145 104 104>
VStem: 32 72<14 127.5 189.5 265> 115 56<-80 -52.5 -85 -47.5> 184 73.5<220.5 240.25>
AnchorPoint: "Anchor-1" 142 326 basechar 0
AnchorPoint: "Anchor-0" 143 -95 basechar 0
LayerCount: 2
Back
Fore
SplineSet
60 -1 m 2
 40.5 -1 32 4 32 14 c 2
 32 307.5 l 2
 32 320.5 37.5 326 51 326 c 2
 141.5 326 l 2
 222.5 326 257.5 294.5 257.5 238.5 c 0
 257.5 202.5 235.5 176.5 203 164.5 c 1
 203 162.5 l 1
 215 158 229 140 236.5 120 c 2
 277.5 17 l 2
 279 13.5 280 10.5 280 8.5 c 0
 280 3 271 -1 252 -1 c 2
 233 -1 l 2
 219.5 -1 209 1.5 206 9 c 2
 169 99.5 l 2
 160 118.5 152.5 127.5 122 127.5 c 2
 104 127.5 l 1
 104 14 l 2
 104 4 95.5 -1 76 -1 c 2
 60 -1 l 2
104 189.5 m 1
 148 189.5 l 2
 167.5 189.5 184 207.5 184 229.5 c 0
 184 251 169 265 145 265 c 2
 104 265 l 1
 104 189.5 l 1
143 -95 m 0xfe
 123.5 -95 115 -90 115 -80 c 2
 115 -52.5 l 2
 115 -42.5 123.5 -37.5 143 -37.5 c 0
 162.5 -37.5 171 -42.5 171 -52.5 c 2
 171 -80 l 2
 171 -90 162.5 -95 143 -95 c 0xfe
EndSplineSet
Validated: 524289
Position2: "'cpsp' Capital Spacing lookup 0 subtable" dx=5 dy=0 dh=10 dv=0
EndChar

StartChar: S
Encoding: 83 83 140
Width: 233
VWidth: 466
GlyphClass: 2
Flags: MW
HStem: -3.5 61<89 117.5 89 145.25> 268.5 61.5<115.5 149.25>
VStem: 17 73.5<229.5 247.75 229.5 269.5> 151.5 73.5<76.75 104>
AnchorPoint: "Anchor-1" 117 326 basechar 0
AnchorPoint: "Anchor-0" 117 0 basechar 0
LayerCount: 2
Back
Fore
SplineSet
120 -3.5 m 0
 49 -3.5 10.5 21.5 10.5 37.5 c 0
 10.5 51.5 29.5 79 39 79 c 0
 47.5 79 70.5 57.5 107.5 57.5 c 0
 127.5 57.5 151.5 63.5 151.5 90 c 0
 151.5 118 114.5 126 79.5 142 c 0
 47.5 157.5 17 180 17 236 c 0
 17 303 72.5 330 127 330 c 0
 176.5 330 211 312.5 211 297.5 c 0
 211 284.5 196.5 257 185.5 257 c 0
 179.5 257 165 268.5 133.5 268.5 c 0
 97.5 268.5 90.5 253 90.5 242.5 c 0
 90.5 216.5 113 207.5 140.5 196.5 c 0
 178.5 181 225 161.5 225 98.5 c 0
 225 22.5 170.5 -3.5 120 -3.5 c 0
EndSplineSet
Validated: 524289
Position2: "'cpsp' Capital Spacing lookup 0 subtable" dx=5 dy=0 dh=10 dv=0
EndChar

StartChar: Sacute
Encoding: 346 346 141
Width: 233
VWidth: 466
GlyphClass: 2
Flags: MW
HStem: -3.5 61<89 117.5 89 145.25> 268.5 61.5<115.5 149.25> 350.5 74<92.5 162.75>
VStem: 17 73.5<229.5 247.75 229.5 269.5> 151.5 73.5<76.75 104>
AnchorPoint: "Anchor-1" 117 326 basechar 0
AnchorPoint: "Anchor-0" 117 0 basechar 0
LayerCount: 2
Back
Fore
SplineSet
98 350.5 m 0
 87 350.5 83.5 352.5 83.5 357.5 c 0
 83.5 362.5 92.5 374 114 412 c 0
 119.5 421.5 135 424.5 153.5 424.5 c 0
 172 424.5 181.5 423 181.5 418 c 0
 181.5 412.5 178.5 411.5 133 362 c 0
 128 356.5 120 350.5 98 350.5 c 0
120 -3.5 m 0
 49 -3.5 10.5 21.5 10.5 37.5 c 0
 10.5 51.5 29.5 79 39 79 c 0
 47.5 79 70.5 57.5 107.5 57.5 c 0
 127.5 57.5 151.5 63.5 151.5 90 c 0
 151.5 118 114.5 126 79.5 142 c 0
 47.5 157.5 17 180 17 236 c 0
 17 303 72.5 330 127 330 c 0
 176.5 330 211 312.5 211 297.5 c 0
 211 284.5 196.5 257 185.5 257 c 0
 179.5 257 165 268.5 133.5 268.5 c 0
 97.5 268.5 90.5 253 90.5 242.5 c 0
 90.5 216.5 113 207.5 140.5 196.5 c 0xd8
 178.5 181 225 161.5 225 98.5 c 0
 225 22.5 170.5 -3.5 120 -3.5 c 0
EndSplineSet
Validated: 524289
Substitution2: "'locl' Localized Forms in Latin lookup 14 subtable" Sacute.loclPLK
Substitution2: "'aalt' Access All Alternates lookup 0 subtable" Sacute.loclPLK
Position2: "'cpsp' Capital Spacing lookup 0 subtable" dx=5 dy=0 dh=10 dv=0
EndChar

StartChar: Scaron
Encoding: 352 352 142
Width: 233
VWidth: 466
GlyphClass: 2
Flags: MW
HStem: -3.5 61<89 117.5 89 145.25> 268.5 61.5<115.5 149.25> 349 68<61.5 114 61.5 119>
VStem: 17 73.5<229.5 247.75 229.5 269.5> 151.5 73.5<76.75 104>
AnchorPoint: "Anchor-1" 117 326 basechar 0
AnchorPoint: "Anchor-0" 117 0 basechar 0
LayerCount: 2
Back
Fore
SplineSet
114 349 m 2
 100.5 349 90.5 349.5 85.5 358 c 2
 55 405.5 l 2
 53.5 408 52.5 410.5 52.5 412.5 c 0
 52.5 415.5 55 417 61.5 417 c 2
 72 417 l 2
 85.5 417 96 415 103 405.5 c 2
 116 387.5 l 1
 129 406 l 2
 135.5 415 147.5 417 161 417 c 2
 171 417 l 2
 177 417 180.5 415.5 180.5 412.5 c 0
 180.5 410.5 179.5 408 177.5 405.5 c 2
 147.5 358 l 2
 142.5 349.5 132.5 349 119 349 c 2
 114 349 l 2
120 -3.5 m 0
 49 -3.5 10.5 21.5 10.5 37.5 c 0
 10.5 51.5 29.5 79 39 79 c 0
 47.5 79 70.5 57.5 107.5 57.5 c 0
 127.5 57.5 151.5 63.5 151.5 90 c 0
 151.5 118 114.5 126 79.5 142 c 0
 47.5 157.5 17 180 17 236 c 0
 17 303 72.5 330 127 330 c 0
 176.5 330 211 312.5 211 297.5 c 0
 211 284.5 196.5 257 185.5 257 c 0
 179.5 257 165 268.5 133.5 268.5 c 0
 97.5 268.5 90.5 253 90.5 242.5 c 0
 90.5 216.5 113 207.5 140.5 196.5 c 0xd8
 178.5 181 225 161.5 225 98.5 c 0
 225 22.5 170.5 -3.5 120 -3.5 c 0
EndSplineSet
Validated: 524289
Position2: "'cpsp' Capital Spacing lookup 0 subtable" dx=5 dy=0 dh=10 dv=0
EndChar

StartChar: Scedilla
Encoding: 350 350 143
Width: 233
VWidth: 466
GlyphClass: 2
Flags: MW
HStem: -99 34<95 108.5 94.75 126.5> -3 60.5<89 131> 268.5 61.5<115.5 149.25>
VStem: 17 73.5<229.5 247.75 229.5 269.5> 115.5 48<-59.5 -51> 151.5 73.5<76.75 104>
AnchorPoint: "Anchor-1" 117 326 basechar 0
AnchorPoint: "Anchor-0" 117 0 basechar 0
LayerCount: 2
Back
Fore
SplineSet
225 98.5 m 0xf4
 225 28 178 0.5 131 -3 c 1xf4
 127.5 -17 l 1
 144.5 -19 163.5 -28.5 163.5 -52 c 0
 163.5 -84 145 -99 108 -99 c 0
 82 -99 47 -90.5 47 -75.5 c 0
 47 -59.5 58.5 -55 62 -55 c 0
 72.5 -55 85 -65 104.5 -65 c 0
 112.5 -65 115.5 -62 115.5 -57 c 0
 115.5 -45 91 -45.5 91 -34.5 c 0
 91 -32.5 91.5 -30.5 100 -3 c 1xf8
 42 1.5 10.5 23 10.5 37.5 c 0
 10.5 51.5 29.5 79 39 79 c 0
 47.5 79 70.5 57.5 107.5 57.5 c 0
 127.5 57.5 151.5 63.5 151.5 90 c 0
 151.5 118 114.5 126 79.5 142 c 0
 47.5 157.5 17 180 17 236 c 0
 17 303 72.5 330 127 330 c 0
 176.5 330 211 312.5 211 297.5 c 0
 211 284.5 196.5 257 185.5 257 c 0
 179.5 257 165 268.5 133.5 268.5 c 0
 97.5 268.5 90.5 253 90.5 242.5 c 0
 90.5 216.5 113 207.5 140.5 196.5 c 0
 178.5 181 225 161.5 225 98.5 c 0xf4
EndSplineSet
Validated: 524289
Substitution2: "'locl' Localized Forms in Latin lookup 8 subtable" Scommaaccent
Substitution2: "'locl' Localized Forms in Latin lookup 7 subtable" Scommaaccent
Substitution2: "'aalt' Access All Alternates lookup 0 subtable" Scommaaccent
Position2: "'cpsp' Capital Spacing lookup 0 subtable" dx=5 dy=0 dh=10 dv=0
EndChar

StartChar: Scircumflex
Encoding: 348 348 144
Width: 233
VWidth: 466
GlyphClass: 2
Flags: MW
HStem: -3.5 61<89 117.5 89 145.25> 268.5 61.5<115.5 149.25> 349 68<58.25 119 61.5 119 114 161 114 171>
VStem: 17 73.5<229.5 247.75 229.5 269.5> 151.5 73.5<76.75 104>
AnchorPoint: "Anchor-1" 195 379 basechar 0
AnchorPoint: "Anchor-0" 117 0 basechar 0
LayerCount: 2
Back
Fore
SplineSet
61.5 349 m 2
 55 349 52.5 350.5 52.5 353.5 c 0
 52.5 355.5 53.5 358 55 360.5 c 2
 85.5 408 l 2
 90.5 416.5 100.5 417 114 417 c 2
 119 417 l 2
 132.5 417 142.5 416.5 147.5 408 c 2
 177.5 360.5 l 2
 179.5 358 180.5 355.5 180.5 353.5 c 0
 180.5 350.5 177 349 171 349 c 2
 161 349 l 2
 147.5 349 135.5 351.5 129 360 c 2
 116 379 l 1
 103 360.5 l 2
 96 351 85.5 349 72 349 c 2
 61.5 349 l 2
120 -3.5 m 0
 49 -3.5 10.5 21.5 10.5 37.5 c 0
 10.5 51.5 29.5 79 39 79 c 0
 47.5 79 70.5 57.5 107.5 57.5 c 0
 127.5 57.5 151.5 63.5 151.5 90 c 0
 151.5 118 114.5 126 79.5 142 c 0
 47.5 157.5 17 180 17 236 c 0
 17 303 72.5 330 127 330 c 0
 176.5 330 211 312.5 211 297.5 c 0
 211 284.5 196.5 257 185.5 257 c 0
 179.5 257 165 268.5 133.5 268.5 c 0
 97.5 268.5 90.5 253 90.5 242.5 c 0
 90.5 216.5 113 207.5 140.5 196.5 c 0xd8
 178.5 181 225 161.5 225 98.5 c 0
 225 22.5 170.5 -3.5 120 -3.5 c 0
EndSplineSet
Validated: 524289
Position2: "'cpsp' Capital Spacing lookup 0 subtable" dx=5 dy=0 dh=10 dv=0
EndChar

StartChar: Scommaaccent
Encoding: 536 536 145
Width: 233
VWidth: 466
GlyphClass: 2
Flags: MW
HStem: -112 21G<90.75 103.25> -112 88<90.75 122> -3.5 61<89 117.5 89 145.25> 268.5 61.5<115.5 149.25>
VStem: 17 73.5<229.5 247.75 229.5 269.5> 85.5 60<-60 -38.5 -60 -38> 151.5 73.5<76.75 104>
AnchorPoint: "Anchor-1" 117 326 basechar 0
AnchorPoint: "Anchor-0" 117 -95 basechar 0
LayerCount: 2
Back
Fore
SplineSet
120 -3.5 m 0xb4
 49 -3.5 10.5 21.5 10.5 37.5 c 0
 10.5 51.5 29.5 79 39 79 c 0
 47.5 79 70.5 57.5 107.5 57.5 c 0
 127.5 57.5 151.5 63.5 151.5 90 c 0
 151.5 118 114.5 126 79.5 142 c 0
 47.5 157.5 17 180 17 236 c 0
 17 303 72.5 330 127 330 c 0
 176.5 330 211 312.5 211 297.5 c 0
 211 284.5 196.5 257 185.5 257 c 0
 179.5 257 165 268.5 133.5 268.5 c 0
 97.5 268.5 90.5 253 90.5 242.5 c 0
 90.5 216.5 113 207.5 140.5 196.5 c 0
 178.5 181 225 161.5 225 98.5 c 0xba
 225 22.5 170.5 -3.5 120 -3.5 c 0xb4
95 -112 m 0
 86.5 -112 74 -109 74 -101.5 c 0
 74 -93 85.5 -81.5 85.5 -44.5 c 0
 85.5 -31.5 93.5 -24 113 -24 c 2
 122 -24 l 2x74
 138.5 -24 145.5 -32.5 145.5 -44.5 c 0
 145.5 -75.5 111.5 -112 95 -112 c 0
EndSplineSet
Validated: 524289
Position2: "'cpsp' Capital Spacing lookup 0 subtable" dx=5 dy=0 dh=10 dv=0
EndChar

StartChar: uni1E62
Encoding: 7778 7778 146
Width: 233
VWidth: 466
GlyphClass: 2
Flags: MW
HStem: -95 42.5<89.5 127.25> -3.5 61<89 117.5 89 145.25> 268.5 61.5<115.5 149.25>
VStem: 17 73.5<229.5 247.75 229.5 269.5> 89.5 56<-80 -52.5 -85 -47.5> 151.5 73.5<76.75 104>
AnchorPoint: "Anchor-1" 117 326 basechar 0
AnchorPoint: "Anchor-0" 118 -95 basechar 0
LayerCount: 2
Back
Fore
SplineSet
120 -3.5 m 0xe8
 49 -3.5 10.5 21.5 10.5 37.5 c 0
 10.5 51.5 29.5 79 39 79 c 0
 47.5 79 70.5 57.5 107.5 57.5 c 0
 127.5 57.5 151.5 63.5 151.5 90 c 0
 151.5 118 114.5 126 79.5 142 c 0
 47.5 157.5 17 180 17 236 c 0
 17 303 72.5 330 127 330 c 0
 176.5 330 211 312.5 211 297.5 c 0
 211 284.5 196.5 257 185.5 257 c 0
 179.5 257 165 268.5 133.5 268.5 c 0
 97.5 268.5 90.5 253 90.5 242.5 c 0
 90.5 216.5 113 207.5 140.5 196.5 c 0
 178.5 181 225 161.5 225 98.5 c 0xf4
 225 22.5 170.5 -3.5 120 -3.5 c 0xe8
117.5 -95 m 0
 98 -95 89.5 -90 89.5 -80 c 2
 89.5 -52.5 l 2
 89.5 -42.5 98 -37.5 117.5 -37.5 c 0
 137 -37.5 145.5 -42.5 145.5 -52.5 c 2
 145.5 -80 l 2
 145.5 -90 137 -95 117.5 -95 c 0
EndSplineSet
Validated: 524289
Position2: "'cpsp' Capital Spacing lookup 0 subtable" dx=5 dy=0 dh=10 dv=0
EndChar

StartChar: uni1E9E
Encoding: 7838 7838 147
Width: 326
VWidth: 466
GlyphClass: 2
Flags: MW
HStem: -3.5 54.5<198.75 215.5 188.5 243.5> -1 21G<48.75 58.5 58.5 75> 268.5 61.5<141.5 171.5>
VStem: 31 72<14 201> 244.5 70<81.5 111.5>
LayerCount: 2
Back
Fore
SplineSet
214 -3.5 m 0xb8
 183.5 -3.5 127 5.5 127 34.5 c 0
 127 43.5 139 70 149.5 70 c 0
 156.5 70 174 51 203 51 c 0
 228 51 244.5 67 244.5 96 c 0
 244.5 127 227 143.5 195 143.5 c 2
 182 143.5 l 2xb8
 174.5 143.5 164 172.5 164 185 c 0
 164 187 164.5 188.5 165 189.5 c 2
 211 266 l 1
 197.5 267.5 181.5 268.5 161.5 268.5 c 0
 121.5 268.5 103 244 103 201 c 2
 103 14 l 2
 103 4 94.5 -1 75 -1 c 2
 58.5 -1 l 2
 39 -1 31 4 31 14 c 2x78
 31 201.5 l 2
 31 286 76 330 163 330 c 0
 203 330 248 326 278.5 321.5 c 0
 286 320.5 296 291 296 278.5 c 0
 296 277 296 276 295.5 275 c 2
 243.5 191 l 1
 278.5 177 314.5 155.5 314.5 95 c 0
 314.5 33 273 -3.5 214 -3.5 c 0xb8
EndSplineSet
Validated: 524289
Position2: "'cpsp' Capital Spacing lookup 0 subtable" dx=5 dy=0 dh=10 dv=0
EndChar

StartChar: uni018F
Encoding: 399 399 148
Width: 313
VWidth: 466
GlyphClass: 2
Flags: MW
HStem: -0.5 54.5<121.75 157.25 121.75 182> 129 46<85 207 85 85> 275.5 54.5<120.75 155.25>
VStem: 17.5 67.5<108.25 129 107.25 151.5> 207 71<129 129 175 175>
LayerCount: 2
Back
Fore
SplineSet
141.5 -0.5 m 0
 52 -0.5 17.5 69 17.5 147.5 c 0
 17.5 155.5 35.5 175 41.5 175 c 2
 207 175 l 1
 202 253.5 176 275.5 134.5 275.5 c 0
 91.5 275.5 59.5 251.5 50.5 251.5 c 0
 40 251.5 26 277.5 26 287 c 0
 26 317 103.5 330 138 330 c 0
 235.5 330 278 260.5 278 154.5 c 0
 278 43.5 222.5 -0.5 141.5 -0.5 c 0
141.5 54 m 0
 173 54 199 71 207 129 c 1
 85 129 l 1
 85 85.5 102 54 141.5 54 c 0
EndSplineSet
Validated: 524289
Position2: "'cpsp' Capital Spacing lookup 0 subtable" dx=5 dy=0 dh=10 dv=0
EndChar

StartChar: T
Encoding: 84 84 149
Width: 256
VWidth: 466
GlyphClass: 2
Flags: MW
HStem: -1 21G<110 120 120 136> 265 61<12.75 238 17.5 92 164 164 164 238>
VStem: 92 72<14 265>
AnchorPoint: "Anchor-1" 128 326 basechar 0
AnchorPoint: "Anchor-0" 128 0 basechar 0
LayerCount: 2
Back
Fore
SplineSet
120 -1 m 2
 100 -1 92 4 92 14 c 2
 92 265 l 1
 17.5 265 l 2
 8 265 3.5 272 3.5 288.5 c 2
 3.5 303 l 2
 3.5 319 8 326 17.5 326 c 2
 238 326 l 2
 248 326 252 319 252 303 c 2
 252 288.5 l 2
 252 272 248 265 238 265 c 2
 164 265 l 1
 164 14 l 2
 164 4 155.5 -1 136 -1 c 2
 120 -1 l 2
EndSplineSet
Validated: 524289
Position2: "'cpsp' Capital Spacing lookup 0 subtable" dx=5 dy=0 dh=10 dv=0
EndChar

StartChar: Tbar
Encoding: 358 358 150
Width: 256
VWidth: 466
GlyphClass: 2
Flags: MW
HStem: -1 21G<110 120 120 136> 141.5 44<42 92 47 92 164 212.5> 265 61<12.75 238 17.5 92 164 238 164 164>
VStem: 92 72<14 141.5 185.5 265>
AnchorPoint: "Anchor-1" 128 326 basechar 0
AnchorPoint: "Anchor-0" 128 0 basechar 0
LayerCount: 2
Back
Fore
SplineSet
238 326 m 2
 248 326 252 319 252 303 c 2
 252 288.5 l 2
 252 272 248 265 238 265 c 2
 164 265 l 1
 164 185.5 l 1
 212.5 185.5 l 2
 222 185.5 226.5 180 226.5 167 c 2
 226.5 160 l 2
 226.5 147 222 141.5 212.5 141.5 c 2
 164 141.5 l 1
 164 14 l 2
 164 4 155.5 -1 136 -1 c 2
 120 -1 l 2
 100 -1 92 4 92 14 c 2
 92 141.5 l 1
 47 141.5 l 2
 37 141.5 33 147 33 160 c 2
 33 167 l 2
 33 180 37 185.5 47 185.5 c 2
 92 185.5 l 1
 92 265 l 1
 17.5 265 l 2
 8 265 3.5 272 3.5 288.5 c 2
 3.5 303 l 2
 3.5 319 8 326 17.5 326 c 2
 238 326 l 2
EndSplineSet
Validated: 524289
Position2: "'cpsp' Capital Spacing lookup 0 subtable" dx=5 dy=0 dh=10 dv=0
EndChar

StartChar: Tcaron
Encoding: 356 356 151
Width: 256
VWidth: 466
GlyphClass: 2
Flags: MW
HStem: -1 21G<110 120 120 136> 265 61<12.75 238 17.5 92 164 164 164 238> 349 68<73 125.5 73 130.5>
VStem: 92 72<14 265>
AnchorPoint: "Anchor-1" 128 326 basechar 0
AnchorPoint: "Anchor-0" 128 0 basechar 0
LayerCount: 2
Back
Fore
SplineSet
125.5 349 m 2
 112 349 102 349.5 97 358 c 2
 66.5 405.5 l 2
 65 408 64 410.5 64 412.5 c 0
 64 415.5 66.5 417 73 417 c 2
 83.5 417 l 2
 97 417 107.5 415 114.5 405.5 c 2
 127.5 387.5 l 1
 140.5 406 l 2
 147 415 159 417 172.5 417 c 2
 182.5 417 l 2
 188.5 417 192 415.5 192 412.5 c 0
 192 410.5 191 408 189 405.5 c 2
 159 358 l 2
 154 349.5 144 349 130.5 349 c 2
 125.5 349 l 2
120 -1 m 2
 100 -1 92 4 92 14 c 2
 92 265 l 1
 17.5 265 l 2
 8 265 3.5 272 3.5 288.5 c 2
 3.5 303 l 2
 3.5 319 8 326 17.5 326 c 2
 238 326 l 2
 248 326 252 319 252 303 c 2
 252 288.5 l 2
 252 272 248 265 238 265 c 2
 164 265 l 1xd0
 164 14 l 2
 164 4 155.5 -1 136 -1 c 2
 120 -1 l 2
EndSplineSet
Validated: 524289
Position2: "'cpsp' Capital Spacing lookup 0 subtable" dx=5 dy=0 dh=10 dv=0
EndChar

StartChar: uni0162
Encoding: 354 354 152
Width: 256
VWidth: 466
GlyphClass: 2
Flags: MW
HStem: -99 34<106.5 120 106.25 138> -0.5 21G<143 143> 265 61<12.75 238 17.5 92 164 238 164 164>
VStem: 92 72<14 265> 127 48<-59.5 -51>
AnchorPoint: "Anchor-1" 128 326 basechar 0
AnchorPoint: "Anchor-0" 128 0 basechar 0
LayerCount: 2
Back
Fore
SplineSet
238 326 m 2xf0
 248 326 252 319 252 303 c 2
 252 288.5 l 2
 252 272 248 265 238 265 c 2
 164 265 l 1
 164 14 l 2
 164 5.5 157.5 0.5 143 -0.5 c 1
 139 -17 l 1xf0
 156 -19 175 -28.5 175 -52 c 0
 175 -84 156.5 -99 119.5 -99 c 0xe8
 93.5 -99 58.5 -90.5 58.5 -75.5 c 0
 58.5 -59.5 70 -55 73.5 -55 c 0
 84 -55 96.5 -65 116 -65 c 0
 124 -65 127 -62 127 -57 c 0
 127 -45 102.5 -45.5 102.5 -34.5 c 0
 102.5 -32.5 103 -30.5 112.5 -0.5 c 1
 98 0.5 92 5.5 92 14 c 2
 92 265 l 1
 17.5 265 l 2
 8 265 3.5 272 3.5 288.5 c 2
 3.5 303 l 2
 3.5 319 8 326 17.5 326 c 2
 238 326 l 2xf0
EndSplineSet
Validated: 524289
Substitution2: "'locl' Localized Forms in Latin lookup 8 subtable" uni021A
Substitution2: "'locl' Localized Forms in Latin lookup 7 subtable" uni021A
Substitution2: "'aalt' Access All Alternates lookup 0 subtable" uni021A
Position2: "'cpsp' Capital Spacing lookup 0 subtable" dx=5 dy=0 dh=10 dv=0
EndChar

StartChar: uni021A
Encoding: 538 538 153
Width: 256
VWidth: 466
GlyphClass: 2
Flags: MW
HStem: -112 21G<102.25 114.75> -112 88<102.25 133.5> -1 21G<110 120 120 136> 265 61<12.75 238 17.5 92 164 164 164 238>
VStem: 92 72<14 265> 97 60<-60 -38.5 -60 -38>
AnchorPoint: "Anchor-1" 128 326 basechar 0
AnchorPoint: "Anchor-0" 128 -95 basechar 0
LayerCount: 2
Back
Fore
SplineSet
120 -1 m 2xb8
 100 -1 92 4 92 14 c 2
 92 265 l 1
 17.5 265 l 2
 8 265 3.5 272 3.5 288.5 c 2
 3.5 303 l 2
 3.5 319 8 326 17.5 326 c 2
 238 326 l 2
 248 326 252 319 252 303 c 2
 252 288.5 l 2
 252 272 248 265 238 265 c 2
 164 265 l 1
 164 14 l 2
 164 4 155.5 -1 136 -1 c 2
 120 -1 l 2xb8
106.5 -112 m 0xb4
 98 -112 85.5 -109 85.5 -101.5 c 0
 85.5 -93 97 -81.5 97 -44.5 c 0
 97 -31.5 105 -24 124.5 -24 c 2
 133.5 -24 l 2x74
 150 -24 157 -32.5 157 -44.5 c 0
 157 -75.5 123 -112 106.5 -112 c 0xb4
EndSplineSet
Validated: 524289
Position2: "'cpsp' Capital Spacing lookup 0 subtable" dx=5 dy=0 dh=10 dv=0
EndChar

StartChar: uni1E6C
Encoding: 7788 7788 154
Width: 256
VWidth: 466
GlyphClass: 2
Flags: MW
HStem: -95 42.5<101 138.75> -1 21G<110 120 120 136> 265 61<12.75 238 17.5 92 164 164 164 238>
VStem: 92 72<14 265> 101 56<-80 -52.5 -85 -47.5>
AnchorPoint: "Anchor-1" 128 326 basechar 0
AnchorPoint: "Anchor-0" 129 -95 basechar 0
LayerCount: 2
Back
Fore
SplineSet
120 -1 m 2xf0
 100 -1 92 4 92 14 c 2
 92 265 l 1
 17.5 265 l 2
 8 265 3.5 272 3.5 288.5 c 2
 3.5 303 l 2
 3.5 319 8 326 17.5 326 c 2
 238 326 l 2
 248 326 252 319 252 303 c 2
 252 288.5 l 2
 252 272 248 265 238 265 c 2
 164 265 l 1
 164 14 l 2
 164 4 155.5 -1 136 -1 c 2
 120 -1 l 2xf0
129 -95 m 0xe8
 109.5 -95 101 -90 101 -80 c 2
 101 -52.5 l 2
 101 -42.5 109.5 -37.5 129 -37.5 c 0
 148.5 -37.5 157 -42.5 157 -52.5 c 2
 157 -80 l 2
 157 -90 148.5 -95 129 -95 c 0xe8
EndSplineSet
Validated: 524289
Position2: "'cpsp' Capital Spacing lookup 0 subtable" dx=5 dy=0 dh=10 dv=0
EndChar

StartChar: U
Encoding: 85 85 155
Width: 332
VWidth: 466
GlyphClass: 2
Flags: MW
HStem: -3.5 61<147 184.75 147 208.5> 307 20G<58.5 74.5 74.5 84.25 257.5 273 273 282.75>
VStem: 31 71.5<109 113.5 113.5 312> 229.5 71.5<113.5 312>
AnchorPoint: "Anchor-1" 166 326 basechar 0
AnchorPoint: "Anchor-0" 166 0 basechar 0
LayerCount: 2
Back
Fore
SplineSet
166 -3.5 m 0
 80.5 -3.5 31 37.5 31 109 c 2
 31 312 l 2
 31 322 39 327 58.5 327 c 2
 74.5 327 l 2
 94 327 102.5 322 102.5 312 c 2
 102.5 113.5 l 2
 102.5 81 128 57.5 166 57.5 c 0
 203.5 57.5 229.5 81 229.5 113.5 c 2
 229.5 312 l 2
 229.5 322 238 327 257.5 327 c 2
 273 327 l 2
 292.5 327 301 322 301 312 c 2
 301 109 l 2
 301 37.5 251 -3.5 166 -3.5 c 0
EndSplineSet
Validated: 524289
Position2: "'cpsp' Capital Spacing lookup 0 subtable" dx=5 dy=0 dh=10 dv=0
EndChar

StartChar: Uacute
Encoding: 218 218 156
Width: 332
VWidth: 466
GlyphClass: 2
Flags: MW
HStem: -3.5 61<147 184.75 147 208.5> 307 20G<58.5 74.5 74.5 84.25 257.5 273 273 282.75> 350.5 74<142 212.25>
VStem: 31 71.5<109 113.5 113.5 312> 229.5 71.5<113.5 312>
AnchorPoint: "Anchor-1" 166 326 basechar 0
AnchorPoint: "Anchor-0" 166 0 basechar 0
LayerCount: 2
Back
Fore
SplineSet
147.5 350.5 m 0
 136.5 350.5 133 352.5 133 357.5 c 0
 133 362.5 142 374 163.5 412 c 0
 169 421.5 184.5 424.5 203 424.5 c 0
 221.5 424.5 231 423 231 418 c 0
 231 412.5 228 411.5 182.5 362 c 0
 177.5 356.5 169.5 350.5 147.5 350.5 c 0
166 -3.5 m 0
 80.5 -3.5 31 37.5 31 109 c 2
 31 312 l 2
 31 322 39 327 58.5 327 c 2
 74.5 327 l 2
 94 327 102.5 322 102.5 312 c 2
 102.5 113.5 l 2
 102.5 81 128 57.5 166 57.5 c 0
 203.5 57.5 229.5 81 229.5 113.5 c 2
 229.5 312 l 2
 229.5 322 238 327 257.5 327 c 2
 273 327 l 2
 292.5 327 301 322 301 312 c 2xd8
 301 109 l 2
 301 37.5 251 -3.5 166 -3.5 c 0
EndSplineSet
Validated: 524289
Position2: "'cpsp' Capital Spacing lookup 0 subtable" dx=5 dy=0 dh=10 dv=0
EndChar

StartChar: Ubreve
Encoding: 364 364 157
Width: 332
VWidth: 466
GlyphClass: 2
Flags: MW
HStem: -3.5 61<147 184.75 147 208.5> 307 20G<58.5 74.5 74.5 84.25 257.5 273 273 282.75> 350.5 42.5<154.25 178.75 154.25 186.25>
VStem: 31 71.5<109 113.5 113.5 312> 97.5 137<389.25 406.75> 229.5 71.5<113.5 312>
AnchorPoint: "Anchor-1" 166 402 basechar 0
AnchorPoint: "Anchor-0" 166 0 basechar 0
LayerCount: 2
Back
Fore
SplineSet
166 350.5 m 0xe8
 125.5 350.5 97.5 376 97.5 402.5 c 0
 97.5 411 103.5 415.5 114 415.5 c 0
 122 415.5 125 412 129.5 407.5 c 0
 135.5 401 142.5 393 166 393 c 0
 191.5 393 198 401.5 204 408 c 0
 207.5 412.5 211 415.5 218.5 415.5 c 0
 228.5 415.5 234.5 411 234.5 402.5 c 0
 234.5 376 206.5 350.5 166 350.5 c 0xe8
166 -3.5 m 0xd4
 80.5 -3.5 31 37.5 31 109 c 2
 31 312 l 2
 31 322 39 327 58.5 327 c 2
 74.5 327 l 2
 94 327 102.5 322 102.5 312 c 2
 102.5 113.5 l 2
 102.5 81 128 57.5 166 57.5 c 0
 203.5 57.5 229.5 81 229.5 113.5 c 2
 229.5 312 l 2
 229.5 322 238 327 257.5 327 c 2
 273 327 l 2
 292.5 327 301 322 301 312 c 2
 301 109 l 2
 301 37.5 251 -3.5 166 -3.5 c 0xd4
EndSplineSet
Validated: 524289
Position2: "'cpsp' Capital Spacing lookup 0 subtable" dx=5 dy=0 dh=10 dv=0
EndChar

StartChar: Ucircumflex
Encoding: 219 219 158
Width: 332
VWidth: 466
GlyphClass: 2
Flags: MW
HStem: -3.5 61<147 184.75 147 208.5> 307 20G<58.5 74.5 74.5 84.25 257.5 273 273 282.75> 349 68<107.75 168.5 111 168.5 163.5 210.5 163.5 220.5>
VStem: 31 71.5<109 113.5 113.5 312> 229.5 71.5<113.5 312>
AnchorPoint: "Anchor-1" 244 379 basechar 0
AnchorPoint: "Anchor-0" 166 0 basechar 0
LayerCount: 2
Back
Fore
SplineSet
111 349 m 2
 104.5 349 102 350.5 102 353.5 c 0
 102 355.5 103 358 104.5 360.5 c 2
 135 408 l 2
 140 416.5 150 417 163.5 417 c 2
 168.5 417 l 2
 182 417 192 416.5 197 408 c 2
 227 360.5 l 2
 229 358 230 355.5 230 353.5 c 0
 230 350.5 226.5 349 220.5 349 c 2
 210.5 349 l 2
 197 349 185 351.5 178.5 360 c 2
 165.5 379 l 1
 152.5 360.5 l 2
 145.5 351 135 349 121.5 349 c 2
 111 349 l 2
166 -3.5 m 0
 80.5 -3.5 31 37.5 31 109 c 2
 31 312 l 2
 31 322 39 327 58.5 327 c 2
 74.5 327 l 2
 94 327 102.5 322 102.5 312 c 2
 102.5 113.5 l 2
 102.5 81 128 57.5 166 57.5 c 0
 203.5 57.5 229.5 81 229.5 113.5 c 2
 229.5 312 l 2
 229.5 322 238 327 257.5 327 c 2
 273 327 l 2
 292.5 327 301 322 301 312 c 2xd8
 301 109 l 2
 301 37.5 251 -3.5 166 -3.5 c 0
EndSplineSet
Validated: 524289
Position2: "'cpsp' Capital Spacing lookup 0 subtable" dx=5 dy=0 dh=10 dv=0
EndChar

StartChar: Udieresis
Encoding: 220 220 159
Width: 332
VWidth: 466
GlyphClass: 2
Flags: MW
HStem: -3.5 61<147 184.75 147 208.5> 307 20G<58.5 74.5 74.5 84.25 257.5 273 273 282.75> 352 42.5<96 133.75>
VStem: 31 71.5<109 113.5 113.5 312> 96 56<367 394.5 362 399.5> 180 56<367 394.5 362 399.5> 229.5 71.5<113.5 312>
AnchorPoint: "Anchor-1" 166 326 basechar 0
AnchorPoint: "Anchor-0" 166 0 basechar 0
LayerCount: 2
Back
Fore
SplineSet
124 352 m 0xea
 104.5 352 96 357 96 367 c 2
 96 394.5 l 2
 96 404.5 104.5 409.5 124 409.5 c 0
 143.5 409.5 152 404.5 152 394.5 c 2
 152 367 l 2
 152 357 143.5 352 124 352 c 0xea
208 352 m 0xf4
 188.5 352 180 357 180 367 c 2
 180 394.5 l 2
 180 404.5 188.5 409.5 208 409.5 c 0
 227.5 409.5 236 404.5 236 394.5 c 2
 236 367 l 2
 236 357 227.5 352 208 352 c 0xf4
166 -3.5 m 0
 80.5 -3.5 31 37.5 31 109 c 2
 31 312 l 2
 31 322 39 327 58.5 327 c 2
 74.5 327 l 2
 94 327 102.5 322 102.5 312 c 2
 102.5 113.5 l 2
 102.5 81 128 57.5 166 57.5 c 0
 203.5 57.5 229.5 81 229.5 113.5 c 2
 229.5 312 l 2
 229.5 322 238 327 257.5 327 c 2
 273 327 l 2
 292.5 327 301 322 301 312 c 2
 301 109 l 2xd2
 301 37.5 251 -3.5 166 -3.5 c 0
EndSplineSet
Validated: 524289
Position2: "'cpsp' Capital Spacing lookup 0 subtable" dx=5 dy=0 dh=10 dv=0
EndChar

StartChar: uni1EE4
Encoding: 7908 7908 160
Width: 332
VWidth: 466
GlyphClass: 2
Flags: MW
HStem: -95 42.5<139 176.75> -3.5 61<147 184.75 147 208.5> 307 20G<58.5 74.5 74.5 84.25 257.5 273 273 282.75>
VStem: 31 71.5<109 113.5 113.5 312> 139 56<-80 -52.5 -85 -47.5> 229.5 71.5<113.5 312>
AnchorPoint: "Anchor-1" 166 326 basechar 0
AnchorPoint: "Anchor-0" 167 -95 basechar 0
LayerCount: 2
Back
Fore
SplineSet
166 -3.5 m 0
 80.5 -3.5 31 37.5 31 109 c 2
 31 312 l 2
 31 322 39 327 58.5 327 c 2
 74.5 327 l 2
 94 327 102.5 322 102.5 312 c 2
 102.5 113.5 l 2
 102.5 81 128 57.5 166 57.5 c 0
 203.5 57.5 229.5 81 229.5 113.5 c 2
 229.5 312 l 2
 229.5 322 238 327 257.5 327 c 2
 273 327 l 2
 292.5 327 301 322 301 312 c 2
 301 109 l 2
 301 37.5 251 -3.5 166 -3.5 c 0
167 -95 m 0
 147.5 -95 139 -90 139 -80 c 2
 139 -52.5 l 2
 139 -42.5 147.5 -37.5 167 -37.5 c 0
 186.5 -37.5 195 -42.5 195 -52.5 c 2
 195 -80 l 2
 195 -90 186.5 -95 167 -95 c 0
EndSplineSet
Validated: 524289
Position2: "'cpsp' Capital Spacing lookup 0 subtable" dx=5 dy=0 dh=10 dv=0
EndChar

StartChar: Ugrave
Encoding: 217 217 161
Width: 332
VWidth: 466
GlyphClass: 2
Flags: MW
HStem: -3.5 61<147 184.75 147 208.5> 307 20G<58.5 74.5 74.5 84.25 257.5 273 273 282.75> 350.5 74<122.25 192.75>
VStem: 31 71.5<109 113.5 113.5 312> 229.5 71.5<113.5 312>
AnchorPoint: "Anchor-1" 166 326 basechar 0
AnchorPoint: "Anchor-0" 166 0 basechar 0
LayerCount: 2
Back
Fore
SplineSet
187 350.5 m 0
 165 350.5 157.5 356.5 152 362 c 0
 107 411.5 103.5 412.5 103.5 418 c 0
 103.5 423 113 424.5 131.5 424.5 c 0
 150.5 424.5 165.5 421.5 171 412 c 0
 192.5 374 201.5 362.5 201.5 357.5 c 0
 201.5 352.5 198.5 350.5 187 350.5 c 0
166 -3.5 m 0
 80.5 -3.5 31 37.5 31 109 c 2
 31 312 l 2
 31 322 39 327 58.5 327 c 2
 74.5 327 l 2
 94 327 102.5 322 102.5 312 c 2
 102.5 113.5 l 2
 102.5 81 128 57.5 166 57.5 c 0
 203.5 57.5 229.5 81 229.5 113.5 c 2
 229.5 312 l 2
 229.5 322 238 327 257.5 327 c 2
 273 327 l 2
 292.5 327 301 322 301 312 c 2xd8
 301 109 l 2
 301 37.5 251 -3.5 166 -3.5 c 0
EndSplineSet
Validated: 524289
Position2: "'cpsp' Capital Spacing lookup 0 subtable" dx=5 dy=0 dh=10 dv=0
EndChar

StartChar: uni1EE6
Encoding: 7910 7910 162
Width: 332
VWidth: 466
GlyphClass: 2
Flags: MW
HStem: -3.5 61<147 184.75 147 208.5> 307 20G<58.5 74.5 74.5 84.25 257.5 273 273 282.75> 404 28.5<163.75 172.25>
VStem: 31 71.5<109 113.5 113.5 312> 183 41<387 397.25> 229.5 71.5<113.5 312>
AnchorPoint: "Anchor-1" 166 409 basechar 0
AnchorPoint: "Anchor-0" 166 0 basechar 0
LayerCount: 2
Back
Fore
SplineSet
177 348 m 0
 166 348 152 355 152 359 c 0
 152 367 183 380 183 394 c 0
 183 400.5 176 404 168.5 404 c 0
 158 404 153 398.5 149 398.5 c 0
 145 398.5 135 411 135 418 c 0
 135 424 155.5 432.5 172 432.5 c 0
 205.5 432.5 224 418.5 224 395.5 c 0
 224 371 185.5 348 177 348 c 0
166 -3.5 m 0
 80.5 -3.5 31 37.5 31 109 c 2
 31 312 l 2
 31 322 39 327 58.5 327 c 2
 74.5 327 l 2
 94 327 102.5 322 102.5 312 c 2
 102.5 113.5 l 2
 102.5 81 128 57.5 166 57.5 c 0
 203.5 57.5 229.5 81 229.5 113.5 c 2
 229.5 312 l 2
 229.5 322 238 327 257.5 327 c 2
 273 327 l 2
 292.5 327 301 322 301 312 c 2
 301 109 l 2xf4
 301 37.5 251 -3.5 166 -3.5 c 0
EndSplineSet
Validated: 524289
Position2: "'cpsp' Capital Spacing lookup 0 subtable" dx=5 dy=0 dh=10 dv=0
EndChar

StartChar: Uhorn
Encoding: 431 431 163
Width: 332
VWidth: 466
GlyphClass: 2
Flags: MW
HStem: -3.5 61<147 184.75 147 208.5> 308.5 18.5
VStem: 31 71.5<109 113.5 113.5 312> 229.5 71.5<113.5 308.5> 306.5 37<340 349>
AnchorPoint: "Anchor-1" 235 383 basechar 0
AnchorPoint: "Anchor-0" 166 0 basechar 0
LayerCount: 2
Back
Fore
SplineSet
343.5 351 m 0
 343.5 329 330.5 313 301 308.5 c 1
 301 109 l 2
 301 37.5 251 -3.5 166 -3.5 c 0
 80.5 -3.5 31 37.5 31 109 c 2
 31 312 l 2
 31 322 39 327 58.5 327 c 2
 74.5 327 l 2
 94 327 102.5 322 102.5 312 c 2
 102.5 113.5 l 2
 102.5 81 128 57.5 166 57.5 c 0
 203.5 57.5 229.5 81 229.5 113.5 c 2
 229.5 312 l 2
 229.5 322 238 327 257.5 327 c 2xf0
 284.5 327 l 2
 300.5 327 306.5 333 306.5 344 c 0
 306.5 354 294 362 294 368 c 0
 294 371.5 295.5 374.5 299.5 377 c 2
 314.5 387.5 l 2
 316.5 389 319 389.5 321.5 389.5 c 0
 334 389.5 343.5 365 343.5 351 c 0
EndSplineSet
Validated: 524289
Position2: "'cpsp' Capital Spacing lookup 0 subtable" dx=5 dy=0 dh=10 dv=0
EndChar

StartChar: uni1EE8
Encoding: 7912 7912 164
Width: 332
VWidth: 466
GlyphClass: 2
Flags: MW
HStem: -3.5 61<147 184.75 147 208.5> 308.5 18.5 350.5 74<142 212.25>
VStem: 31 71.5<109 113.5 113.5 312> 229.5 71.5<113.5 308.5> 306.5 37<340 349>
AnchorPoint: "Anchor-1" 235 383 basechar 0
AnchorPoint: "Anchor-0" 166 0 basechar 0
LayerCount: 2
Back
Fore
SplineSet
147.5 350.5 m 0
 136.5 350.5 133 352.5 133 357.5 c 0
 133 362.5 142 374 163.5 412 c 0
 169 421.5 184.5 424.5 203 424.5 c 0
 221.5 424.5 231 423 231 418 c 0
 231 412.5 228 411.5 182.5 362 c 0
 177.5 356.5 169.5 350.5 147.5 350.5 c 0
343.5 351 m 0xd4
 343.5 329 330.5 313 301 308.5 c 1
 301 109 l 2
 301 37.5 251 -3.5 166 -3.5 c 0
 80.5 -3.5 31 37.5 31 109 c 2
 31 312 l 2
 31 322 39 327 58.5 327 c 2
 74.5 327 l 2
 94 327 102.5 322 102.5 312 c 2
 102.5 113.5 l 2
 102.5 81 128 57.5 166 57.5 c 0
 203.5 57.5 229.5 81 229.5 113.5 c 2
 229.5 312 l 2
 229.5 322 238 327 257.5 327 c 2xd8
 284.5 327 l 2
 300.5 327 306.5 333 306.5 344 c 0
 306.5 354 294 362 294 368 c 0
 294 371.5 295.5 374.5 299.5 377 c 2
 314.5 387.5 l 2
 316.5 389 319 389.5 321.5 389.5 c 0
 334 389.5 343.5 365 343.5 351 c 0xd4
EndSplineSet
Validated: 524289
Position2: "'cpsp' Capital Spacing lookup 0 subtable" dx=5 dy=0 dh=10 dv=0
EndChar

StartChar: uni1EF0
Encoding: 7920 7920 165
Width: 332
VWidth: 466
GlyphClass: 2
Flags: MW
HStem: -80 42.5<139 176.75 157.25 195> -3.5 61<147 184.75 147 208.5> 308.5 18.5
VStem: 31 71.5<109 113.5 113.5 312> 139 56<-80 -52.5 -85 -47.5> 229.5 71.5<113.5 308.5> 306.5 37<340 349>
AnchorPoint: "Anchor-1" 235 383 basechar 0
AnchorPoint: "Anchor-0" 167 -95 basechar 0
LayerCount: 2
Back
Fore
SplineSet
343.5 351 m 0
 343.5 329 330.5 313 301 308.5 c 1
 301 109 l 2
 301 37.5 251 -3.5 166 -3.5 c 0
 80.5 -3.5 31 37.5 31 109 c 2
 31 312 l 2
 31 322 39 327 58.5 327 c 2
 74.5 327 l 2
 94 327 102.5 322 102.5 312 c 2
 102.5 113.5 l 2
 102.5 81 128 57.5 166 57.5 c 0
 203.5 57.5 229.5 81 229.5 113.5 c 2
 229.5 312 l 2
 229.5 322 238 327 257.5 327 c 2xfc
 284.5 327 l 2
 300.5 327 306.5 333 306.5 344 c 0
 306.5 354 294 362 294 368 c 0
 294 371.5 295.5 374.5 299.5 377 c 2
 314.5 387.5 l 2
 316.5 389 319 389.5 321.5 389.5 c 0
 334 389.5 343.5 365 343.5 351 c 0
167 -37.5 m 0xfc
 186.5 -37.5 195 -42.5 195 -52.5 c 2
 195 -80 l 2
 195 -90 186.5 -95 167 -95 c 0
 147.5 -95 139 -90 139 -80 c 2
 139 -52.5 l 2
 139 -42.5 147.5 -37.5 167 -37.5 c 0xfc
EndSplineSet
Validated: 524289
Position2: "'cpsp' Capital Spacing lookup 0 subtable" dx=5 dy=0 dh=10 dv=0
EndChar

